<?xml version="1.0" standalone="no"?>
<!DOCTYPE svg PUBLIC "-//W3C//DTD SVG 1.1//EN" "http://www.w3.org/Graphics/SVG/1.1/DTD/svg11.dtd" >
<svg xmlns="http://www.w3.org/2000/svg" xmlns:xlink="http://www.w3.org/1999/xlink" version="1.1">
<metadata>
Created by FontForge 20170731 at Mon Sep 14 14:56:12 2020
 By Aleksey,,,
Copyright (c) Beijing Tsanger Character Technology Co., Ltd.. All rights reserved.
</metadata>
<defs>
<font id="TsangerYuMo-W02" horiz-adv-x="1000" vert-adv-y="1000" >
  <font-face 
    font-family="TsangerYuMo W02"
    font-weight="400"
    font-stretch="normal"
    units-per-em="1000"
    panose-1="2 2 4 0 0 0 0 0 0 0"
    ascent="880"
    descent="-120"
    x-height="533"
    cap-height="809"
    bbox="-7 -226 1002 884"
    underline-thickness="50"
    underline-position="-150"
    unicode-range="U+0001-FFE5"
  />
<missing-glyph horiz-adv-x="500" 
 />
    <glyph glyph-name=".notdef" horiz-adv-x="500" 
 />
    <glyph glyph-name=".null" horiz-adv-x="0" vert-adv-y="0" 
 />
    <glyph glyph-name="nonmarkingreturn" horiz-adv-x="333" 
 />
    <glyph glyph-name="uni0001" horiz-adv-x="250" 
 />
    <glyph glyph-name="uni0001" unicode=" " horiz-adv-x="250" 
 />
    <glyph glyph-name="uni0001" horiz-adv-x="250" 
 />
    <glyph glyph-name="uni0001" horiz-adv-x="250" 
 />
    <glyph glyph-name="uni0001" horiz-adv-x="250" 
 />
    <glyph glyph-name="uni0001" horiz-adv-x="250" 
 />
    <glyph glyph-name="uni0001" horiz-adv-x="250" 
 />
    <glyph glyph-name="uni0001" horiz-adv-x="250" 
 />
    <glyph glyph-name="uni0001" horiz-adv-x="250" 
 />
    <glyph glyph-name="uni0001" horiz-adv-x="250" 
 />
    <glyph glyph-name="uni0001" horiz-adv-x="250" 
 />
    <glyph glyph-name="uni0001" horiz-adv-x="250" 
 />
    <glyph glyph-name="uni0001" horiz-adv-x="250" 
 />
    <glyph glyph-name="uni0001" horiz-adv-x="250" 
 />
    <glyph glyph-name="uni0001" horiz-adv-x="250" 
 />
    <glyph glyph-name="uni0001" horiz-adv-x="250" 
 />
    <glyph glyph-name="uni0001" horiz-adv-x="250" 
 />
    <glyph glyph-name="uni0001" horiz-adv-x="250" 
 />
    <glyph glyph-name="uni0001" horiz-adv-x="250" 
 />
    <glyph glyph-name="uni0001" horiz-adv-x="250" 
 />
    <glyph glyph-name="uni0001" unicode="&#xd;" horiz-adv-x="250" 
 />
    <glyph glyph-name="uni0001" horiz-adv-x="250" 
 />
    <glyph glyph-name="uni0001" horiz-adv-x="250" 
 />
    <glyph glyph-name="uni0001" unicode="&#xa;" horiz-adv-x="250" 
 />
    <glyph glyph-name="uni0001" unicode="&#x9;" horiz-adv-x="250" 
 />
    <glyph glyph-name="uni0001" horiz-adv-x="250" 
 />
    <glyph glyph-name="uni0001" horiz-adv-x="250" 
 />
    <glyph glyph-name="uni0001" horiz-adv-x="250" 
 />
    <glyph glyph-name="uni0001" horiz-adv-x="250" 
 />
    <glyph glyph-name="uni0001" horiz-adv-x="250" 
 />
    <glyph glyph-name="uni0001" horiz-adv-x="250" 
 />
    <glyph glyph-name="uni0001" horiz-adv-x="250" 
 />
    <glyph glyph-name="uni0001" horiz-adv-x="250" 
 />
    <glyph glyph-name="exclam" unicode="!" horiz-adv-x="261" 
d="M198 810h-92l16 -565h58zM108 112q-19 -18 -19 -44q0 -27 19 -45q18 -19 45 -19q26 0 44 19q18 18 18 45q0 26 -18 44q-19 19 -44 19q-27 0 -45 -19z" />
    <glyph glyph-name="quotedbl" unicode="&#x22;" horiz-adv-x="365" 
d="M154 805h-87l17 -254h55zM292 805h-87l17 -254h55z" />
    <glyph glyph-name="numbersign" unicode="#" horiz-adv-x="516" 
d="M405 466l-21 -152h98v-69h-108l-34 -245h-70l34 245h-135l-34 -245h-69l34 245h-92v69h102q14 91 22 152h-102v69h111l31 218h68l-30 -218h135l31 218h69l-30 -218h89v-69h-99zM314 314q14 91 22 152h-136l-21 -152h135z" />
    <glyph glyph-name="dollar" unicode="$" horiz-adv-x="589" 
d="M507 65q-55 -51 -179 -54v-104h-65v105q-116 7 -165 58q-46 49 -64 174l75 9q15 -92 46 -128q32 -37 108 -43v260q-121 26 -167 73q-42 43 -42 126q0 84 46 125q50 44 163 51v38q0 30 -6 76q44 -13 71 -8v-105q116 -2 161 -42q48 -44 58 -167l-71 -13q-8 93 -35 122
q-28 29 -113 30v-244l5 -1q4 0 5 -1q122 -22 172 -67q48 -43 48 -124q0 -99 -51 -146zM153 468q30 -30 110 -50v229q-79 -5 -109 -30q-27 -23 -27 -76q0 -48 26 -73zM328 80q155 5 155 131q0 48 -31 73q-34 29 -124 46v-250z" />
    <glyph glyph-name="percent" unicode="%" horiz-adv-x="836" 
d="M665 761h-72l-432 -768h73zM70 688q35 43 114 43q77 0 112 -42q39 -47 39 -158q0 -113 -38 -160q-34 -43 -113 -43q-81 0 -116 46q-36 47 -36 157t38 157zM118 417q16 -25 66 -25q48 0 65 26q19 29 19 113q0 82 -18 111q-17 26 -66 26q-48 0 -65 -26q-19 -29 -19 -111
q0 -87 18 -114zM537 389q35 43 113 43t113 -42q39 -47 39 -158q0 -113 -38 -160q-34 -43 -114 -43t-115 46q-36 47 -36 157t38 157zM585 118q15 -25 65 -25q49 0 66 26q18 28 18 113q0 82 -18 111q-17 26 -66 26q-47 0 -64 -26q-19 -29 -19 -111q0 -87 18 -114z" />
    <glyph glyph-name="ampersand" unicode="&#x26;" horiz-adv-x="647" 
d="M590 -19q-68 47 -125 95q-77 -76 -204 -76q-105 0 -169 58q-65 58 -65 152q0 118 137 201q-59 89 -59 177q0 71 47 120t116 49q70 0 113 -43q44 -45 44 -121q0 -62 -30 -104q-33 -47 -123 -100q89 -115 181 -203q47 83 56 224l73 -17q-12 -161 -70 -258q54 -46 120 -93z
M206 658q-28 -31 -28 -71q0 -64 51 -139q123 72 123 146q0 39 -27 68q-26 27 -58 27q-34 0 -61 -31zM408 127q-98 93 -201 225q-100 -63 -100 -142q0 -61 46 -100q44 -37 109 -37q88 0 146 54z" />
    <glyph glyph-name="quotesingle" unicode="'" horiz-adv-x="205" 
d="M157 802h-91l18 -258h56z" />
    <glyph glyph-name="parenleft" unicode="(" horiz-adv-x="357" 
d="M267 -119l56 33q-199 208 -199 468q0 271 196 467l-52 35q-96 -85 -154 -219q-61 -139 -61 -283q0 -302 214 -501z" />
    <glyph glyph-name="parenright" unicode=")" horiz-adv-x="366" 
d="M39 -85l55 -34q214 200 214 501q0 143 -60 283q-59 135 -153 219l-56 -35q199 -196 199 -467q0 -261 -199 -467z" />
    <glyph glyph-name="asterisk" unicode="*" horiz-adv-x="463" 
d="M281 616l78 -92l-69 -48l-61 103l-67 -104l-65 53q48 52 80 88q-46 11 -118 27l25 81l112 -46l-10 120h85q-6 -71 -9 -119l111 45l25 -81z" />
    <glyph glyph-name="plus" unicode="+" horiz-adv-x="565" 
d="M37 347h212v-216h73v216h212v67h-212v219h-73v-219h-212v-67z" />
    <glyph glyph-name="comma" unicode="," horiz-adv-x="270" 
d="M202 126q0 -173 -170 -209q79 56 91 148q-28 2 -47 23t-19 49q0 30 21 52q21 21 51 21q48 0 65 -41q6 -11 7 -24q1 -6 1 -19z" />
    <glyph glyph-name="hyphen" unicode="-" horiz-adv-x="566" 
d="M533 426h-507v-69h507v69z" />
    <glyph glyph-name="period" unicode="." horiz-adv-x="280" 
d="M87 146q-20 -20 -20 -48q0 -29 20 -50q20 -20 48 -20q29 0 49 20q20 21 20 50q0 28 -20 48q-21 20 -49 20t-48 -20z" />
    <glyph glyph-name="slash" unicode="/" horiz-adv-x="412" 
d="M406 801h-80l-323 -801h81z" />
    <glyph glyph-name="zero" unicode="0" horiz-adv-x="620" 
d="M109 704q72 102 200 102q123 0 195 -99q78 -107 78 -306q0 -192 -72 -300q-72 -109 -201 -109q-128 0 -200 105q-74 107 -74 304t74 303zM171 152q51 -84 138 -84q85 0 136 85q54 89 54 247q0 155 -57 246q-52 84 -133 84q-83 0 -136 -84q-56 -90 -56 -246
q0 -160 54 -248z" />
    <glyph glyph-name="one" unicode="1" horiz-adv-x="598" 
d="M337 1v792q-31 -7 -88 10q6 -36 6 -82v-720h82z" />
    <glyph glyph-name="two" unicode="2" horiz-adv-x="600" 
d="M109 732q-68 -77 -68 -208l77 -10q0 214 174 214q74 0 118 -38q43 -37 43 -97q0 -101 -136 -237q-118 -120 -256 -275q-27 -30 -20 -55t43 -25h458l14 82h-381q107 125 221 236q143 138 143 274q0 95 -68 155q-69 61 -179 61q-115 0 -183 -77z" />
    <glyph glyph-name="three" unicode="3" horiz-adv-x="591" 
d="M145 443l6 -75q309 35 309 -144q0 -72 -48 -112t-127 -40q-115 0 -202 82l-47 -58q101 -103 259 -103q112 0 182 60q71 61 71 165q0 79 -44 135q-45 55 -122 68q133 49 131 194q-2 83 -66 137q-66 56 -170 56q-146 0 -227 -112l52 -57q59 89 174 89q69 0 111 -34
q41 -34 41 -91q0 -159 -283 -160z" />
    <glyph glyph-name="four" unicode="4" horiz-adv-x="588" 
d="M562 298h-100v514h-80q-155 -225 -348 -510q-24 -36 -14 -60q10 -22 43 -22l318 1v-223h81v223h100v77zM381 298h-256l256 377v-377z" />
    <glyph glyph-name="five" unicode="5" horiz-adv-x="605" 
d="M167 462l22 260h320l16 77h-411l-34 -425l68 -15q60 65 167 65q67 0 109 -44q43 -46 43 -127q0 -180 -182 -180q-132 0 -194 137l-60 -39q79 -178 256 -178q127 0 197 69q70 68 70 191q0 109 -64 179q-64 68 -158 68q-109 0 -165 -38z" />
    <glyph glyph-name="six" unicode="6" horiz-adv-x="633" 
d="M127 399q0 156 55 247q52 84 133 84q147 0 166 -133h84q-23 212 -248 212q-123 0 -196 -105q-83 -119 -83 -349q0 -364 288 -364q117 0 185 75q67 73 67 191q0 121 -68 192q-67 70 -177 70q-150 0 -206 -120zM446 392q45 -50 45 -135q0 -87 -45 -138t-123 -51
q-81 0 -133 51q-53 52 -53 138q0 74 53 129q55 57 133 57t123 -51z" />
    <glyph glyph-name="seven" unicode="7" horiz-adv-x="595" 
d="M168 0h86q203 513 294 759q14 41 -26 41h-488l7 -29l-7 -53h412z" />
    <glyph glyph-name="eight" unicode="8" horiz-adv-x="600" 
d="M408 429q70 -24 112 -79q42 -56 42 -128q0 -104 -70 -166q-73 -64 -197 -64q-121 0 -191 64q-69 62 -69 166q0 66 40 122q40 57 110 87q-54 23 -86 73q-31 47 -31 99q0 88 61 146q64 61 166 61q103 0 167 -60q61 -57 61 -147q0 -121 -115 -174zM193 695q-40 -38 -40 -92
q0 -98 142 -139q144 40 144 139q0 55 -39 93q-41 38 -105 38q-62 0 -102 -39zM168 109q46 -41 127 -41q82 0 129 41q47 42 47 118q0 59 -42 101q-46 47 -134 61q-84 -14 -130 -58q-43 -43 -43 -104q0 -76 46 -118z" />
    <glyph glyph-name="nine" unicode="9" horiz-adv-x="572" 
d="M438 376q0 -307 -158 -307q-144 0 -158 132h-84q17 -209 240 -209q124 0 184 100q65 108 65 348q0 192 -57 277q-59 88 -197 88q-106 0 -174 -78q-66 -76 -66 -190q0 -120 64 -192q64 -71 169 -71q129 0 172 102zM162 400q-43 50 -43 137q0 83 44 136q44 55 114 55
q151 0 151 -191q0 -80 -36 -130q-40 -57 -115 -57q-72 0 -115 50z" />
    <glyph glyph-name="colon" unicode=":" horiz-adv-x="277" 
d="M103 582q-21 -20 -21 -48q0 -30 21 -50q20 -21 50 -21q28 0 48 21q21 20 21 50q0 28 -21 48q-20 21 -48 21q-30 0 -50 -21zM103 124q-21 -20 -21 -49t21 -50q20 -20 50 -20q28 0 48 20q21 21 21 50q0 28 -21 49q-20 20 -48 20q-30 0 -50 -20z" />
    <glyph glyph-name="semicolon" unicode=";" horiz-adv-x="290" 
d="M107 491q-20 20 -20 50q0 28 20 48q21 21 49 21q29 0 50 -21q20 -20 20 -48q0 -30 -20 -50q-21 -21 -50 -21t-49 21zM237 130q2 -14 2 -23q0 -178 -174 -216q81 60 93 153q-29 2 -48 24q-20 21 -20 50q0 31 22 52q21 22 52 22q9 0 14 -1q42 -6 56 -49z" />
    <glyph glyph-name="less" unicode="&#x3c;" horiz-adv-x="565" 
d="M552 550v74q-433 -179 -514 -213q-30 -13 -30 -36q0 -24 30 -37q75 -32 514 -212v73l-429 175z" />
    <glyph glyph-name="equal" unicode="=" horiz-adv-x="599" 
d="M553 540h-520v-70h520v70zM553 304h-520v-70h520v70z" />
    <glyph glyph-name="greater" unicode="&#x3e;" horiz-adv-x="561" 
d="M518 339q24 11 24 38t-24 37l-514 211v-73l429 -176l-429 -176v-74z" />
    <glyph glyph-name="question" unicode="?" horiz-adv-x="520" 
d="M309 442q-90 -98 -90 -236h77q0 121 92 212q92 92 92 187q0 89 -62 147q-61 57 -150 57q-92 0 -151 -63q-58 -63 -58 -161l75 -9q0 76 39 119q37 41 95 41q55 0 92 -35q39 -37 39 -97q0 -64 -90 -162zM206 106q-20 -20 -20 -48t20 -48q19 -20 46 -20q28 0 48 20t20 48
t-20 48q-19 19 -48 19q-27 0 -46 -19z" />
    <glyph glyph-name="at" unicode="@" horiz-adv-x="907" 
d="M690 616h-63l-27 -55q-28 72 -134 75q-146 3 -219 -177q-48 -120 -16 -207q30 -81 111 -94q115 -18 168 56q13 -57 84 -57q108 0 177 84q71 87 71 228q0 146 -114 242q-110 91 -268 91q-172 0 -289 -123q-113 -120 -113 -285q0 -173 117 -289q116 -116 288 -116
q228 0 354 186l-46 30q-120 -154 -308 -154q-141 0 -241 96q-103 99 -103 247q0 145 99 246q100 101 242 101q135 0 229 -84q94 -85 90 -205q-4 -109 -58 -174q-48 -58 -112 -58q-35 0 -40 11q-5 12 11 59q45 131 110 326zM467 575q135 -3 74 -189q-34 -104 -81 -142
q-42 -34 -106 -24q-48 8 -64 60q-18 60 18 153q57 144 159 142z" />
    <glyph glyph-name="A" unicode="A" horiz-adv-x="753" 
d="M555 244h-347l-102 -242l-49 13l-37 -13l339 799h66q16 0 22 -14q70 -196 285 -785h-91zM530 317l-133 375l-158 -375h291z" />
    <glyph glyph-name="B" unicode="B" horiz-adv-x="729" 
d="M669 230q0 -122 -48 -178q-48 -55 -154 -55h-392v721q0 48 -6 87q12 -4 18 -5h344q102 0 141 -42q39 -43 39 -156q0 -123 -48 -167q106 -37 106 -205zM505 701q-22 27 -93 27h-254v-267h262q61 0 84 27q23 29 23 105q0 82 -22 108zM448 71q72 0 101 33q31 35 31 125
t-30 121q-29 29 -111 29h-281v-308h290z" />
    <glyph glyph-name="C" unicode="C" horiz-adv-x="791" 
d="M735 294q-23 -145 -108 -222q-86 -79 -225 -79q-159 0 -260 115t-101 297q0 178 100 292t261 114q132 0 218 -73q84 -72 107 -198l-83 -19q-40 214 -242 214q-124 0 -198 -89q-76 -90 -76 -241q0 -147 78 -239q77 -91 196 -91q208 0 253 234z" />
    <glyph glyph-name="D" unicode="D" horiz-adv-x="747" 
d="M350 799q154 0 250 -106q100 -110 100 -297q0 -197 -93 -299q-89 -98 -257 -98h-278v676q0 77 -6 135l37 -11h247zM335 80q133 0 204 80t71 236q0 149 -80 239q-77 85 -195 85h-178v-640h178z" />
    <glyph glyph-name="E" unicode="E" horiz-adv-x="638" 
d="M612 79l-15 -80h-524v719q0 59 -9 92l36 -10h505l-9 -77q-167 4 -437 0v-281h402l-8 -75q-149 4 -394 0v-288h453z" />
    <glyph glyph-name="F" unicode="F" horiz-adv-x="621" 
d="M590 720q-206 3 -430 0v-286h409l-12 -77q-191 3 -397 0v-355h-86v717q0 62 -8 91l37 -10h495z" />
    <glyph glyph-name="G" unicode="G" horiz-adv-x="787" 
d="M672 63q-68 -77 -258 -77q-208 0 -290 94q-79 90 -79 313q0 225 86 321q85 93 283 93q138 0 208 -54t100 -184l-75 -31q-23 106 -76 149q-52 41 -157 41q-153 0 -217 -73q-66 -75 -66 -262q0 -185 63 -257q61 -70 220 -70q143 0 194 58q50 56 50 212h-292l7 50l-8 26h337
q41 0 41 -40q0 -229 -71 -309z" />
    <glyph glyph-name="H" unicode="H" horiz-adv-x="711" 
d="M633 795v-794h-86v373q-188 3 -384 0v-373h-85v715q0 59 -9 91q61 -16 94 -13v-344h384v265q0 62 -8 91q64 -15 94 -11z" />
    <glyph glyph-name="I" unicode="I" horiz-adv-x="243" 
d="M164 -3v797q-34 -3 -91 15q8 -29 8 -91v-721h83z" />
    <glyph glyph-name="J" unicode="J" horiz-adv-x="531" 
d="M361 712q0 68 -9 101q73 -19 97 -13v-547q0 -152 -57 -213q-51 -56 -169 -56q-188 0 -210 219l79 20q17 -153 131 -153q74 0 104 36q34 40 34 147v459z" />
    <glyph glyph-name="K" unicode="K" horiz-adv-x="719" 
d="M377 490l334 -486l-84 11l-20 -13q-239 356 -288 428l-157 -162v-269h-85v711q0 76 -6 105q58 -17 91 -8v-428l414 423h103z" />
    <glyph glyph-name="L" unicode="L" horiz-adv-x="570" 
d="M535 -1l21 78h-393v726q-27 -5 -91 11q6 -24 6 -53v-732q0 -30 25 -30h432z" />
    <glyph glyph-name="M" unicode="M" horiz-adv-x="900" 
d="M727 799q31 0 35 -31l119 -767h-90l-102 652l-191 -602h-60q-28 0 -35 26q-5 19 -186 576l-112 -655l-68 14l-21 -14l138 801h73q22 0 28 -4q7 -5 12 -22l185 -585l188 611h87z" />
    <glyph glyph-name="N" unicode="N" horiz-adv-x="747" 
d="M160 659v-661l-62 15l-21 -15v804h64q24 0 31 -12l406 -653v665h88v-804h-84q-20 0 -29 17z" />
    <glyph glyph-name="O" unicode="O" horiz-adv-x="796" 
d="M669 75q-78 -88 -276 -88t-277 96q-75 91 -75 312q0 229 76 320q77 94 276 94q189 0 271 -94q84 -96 84 -320q0 -231 -79 -320zM598 656q-59 72 -205 72q-147 0 -204 -66q-63 -72 -63 -267q0 -182 60 -254q59 -72 207 -72q152 0 208 66q58 69 58 260q0 187 -61 261z" />
    <glyph glyph-name="P" unicode="P" horiz-adv-x="684" 
d="M437 801q104 0 150 -56q48 -60 48 -201q0 -137 -49 -200q-47 -59 -147 -59h-272v-286h-89v756q0 31 -6 53l32 -7h333zM425 368q61 0 89 39q31 41 31 137q0 100 -32 140q-27 35 -90 35h-256v-351h258z" />
    <glyph glyph-name="Q" unicode="Q" horiz-adv-x="770" 
d="M735 -3l-27 -7l-31 -45l-84 92q-73 -45 -214 -45q-190 0 -266 95q-72 91 -72 309q0 226 73 317q75 94 265 94q180 0 259 -93q81 -96 81 -318q0 -218 -68 -307zM532 104l-114 126l55 52l112 -122q40 71 40 236q0 184 -59 259q-56 71 -187 71q-139 0 -191 -65
q-56 -70 -56 -265q0 -179 58 -252q55 -71 189 -71q103 0 153 31z" />
    <glyph glyph-name="R" unicode="R" horiz-adv-x="667" 
d="M658 3l-71 9l-35 -13l-259 340h-127v-339h-89v755q0 31 -6 53l38 -8h327q100 0 142 -50q44 -53 44 -184q0 -126 -41 -177q-42 -50 -144 -50h-41zM166 420h257q66 0 87 28q23 29 23 118q0 92 -24 125q-23 30 -87 30h-256v-301z" />
    <glyph glyph-name="S" unicode="S" horiz-adv-x="729" 
d="M613 360q45 -48 45 -137q0 -129 -55 -179q-58 -52 -213 -52q-199 0 -266 54q-63 50 -85 215l86 10q21 -123 68 -159q50 -39 197 -39q103 0 140 31q36 31 36 119q0 63 -33 88q-38 30 -165 50q-189 30 -255 87q-56 49 -56 155q0 109 59 153q67 51 243 51q165 0 222 -44
q61 -47 72 -196l-86 -16q-5 108 -44 141q-40 35 -165 35q-132 0 -173 -27q-37 -24 -37 -97t45 -101q51 -32 233 -62q133 -23 187 -80z" />
    <glyph glyph-name="T" unicode="T" horiz-adv-x="643" 
d="M623 801l-10 -83q-136 2 -252 2v-721l-86 1v688q0 22 -1 32l-257 -3l4 56l-8 28h610z" />
    <glyph glyph-name="U" unicode="U" horiz-adv-x="750" 
d="M76 802h87v-555q0 -94 46 -136q49 -45 166 -45q111 0 159 44q46 42 46 137v555h87v-555q0 -142 -62 -199q-64 -59 -230 -59q-177 0 -241 60q-58 54 -58 198v555z" />
    <glyph glyph-name="V" unicode="V" horiz-adv-x="717" 
d="M404 -1h-57q-30 0 -43 33q-59 161 -290 768h93l253 -674l255 674h93z" />
    <glyph glyph-name="W" unicode="W" horiz-adv-x="893" 
d="M270 0h-55q-33 0 -40 35l-163 766h90l132 -655l163 613h70q17 0 22 -4t9 -20q10 -45 166 -592l128 658h92l-166 -801h-71q-29 0 -38 36q-10 43 -164 590z" />
    <glyph glyph-name="X" unicode="X" horiz-adv-x="667" 
d="M655 1l-83 10l-21 -12l-219 339l-219 -338l-22 12l-82 -10l272 415l-248 383h101l198 -304l199 304h100q-124 -192 -248 -382z" />
    <glyph glyph-name="Y" unicode="Y" horiz-adv-x="657" 
d="M548 800h100l-275 -501v-298h-85v300l-274 499h99l218 -415z" />
    <glyph glyph-name="Z" unicode="Z" horiz-adv-x="740" 
d="M689 81l-19 -80h-599q-25 0 -33 18q-8 16 6 35q213 284 504 666h-466l14 54l-14 25h569q26 0 35 -17q8 -18 -8 -39l-499 -662h510z" />
    <glyph glyph-name="bracketleft" unicode="[" horiz-adv-x="283" 
d="M274 864h-209v-969h209v67h-138v835h138v67z" />
    <glyph glyph-name="backslash" unicode="\" horiz-adv-x="390" 
d="M319 -99h69l-316 953h-70z" />
    <glyph glyph-name="bracketright" unicode="]" horiz-adv-x="309" 
d="M174 -40h-138v-66h210v969h-210v-66h138v-837z" />
    <glyph glyph-name="asciicircum" unicode="^" horiz-adv-x="507" 
d="M429 448h73l-194 386q-13 28 -37 28q-23 0 -37 -28q-24 -46 -197 -386h73l161 319z" />
    <glyph glyph-name="underscore" unicode="_" horiz-adv-x="553" 
d="M553 -32h-553v-65h553v65z" />
    <glyph glyph-name="grave" unicode="`" horiz-adv-x="277" 
d="M65 832l-58 -55l183 -178l44 47z" />
    <glyph glyph-name="a" unicode="a" horiz-adv-x="608" 
d="M531 520v-517h-66l-6 19v32q-41 -60 -181 -60q-115 0 -179 73q-63 70 -63 192q0 131 67 205q65 72 175 72q135 0 181 -45v11l7 18h65zM459 175v202q-15 50 -56 70q-39 19 -115 19q-80 0 -127 -52q-49 -55 -49 -155q0 -195 176 -195q142 0 171 111z" />
    <glyph glyph-name="b" unicode="b" horiz-adv-x="612" 
d="M508 463q66 -74 66 -206q0 -123 -64 -195q-65 -72 -176 -72q-132 0 -192 55v-44h-80v748q0 31 -6 55q60 -17 86 -11v-302q53 44 190 44q112 0 176 -72zM448 112q48 52 48 145q0 99 -48 154q-47 52 -128 52q-78 0 -116 -16q-41 -17 -62 -62v-240q47 -82 180 -82
q80 0 126 49z" />
    <glyph glyph-name="c" unicode="c" horiz-adv-x="565" 
d="M527 211q-22 -118 -81 -168q-57 -49 -166 -49q-245 0 -245 264q0 279 245 279q104 0 159 -39q58 -40 83 -138l-67 -21q-16 73 -57 103q-39 30 -115 30q-89 0 -130 -48q-44 -51 -44 -164q0 -108 43 -155q41 -43 130 -43q78 0 118 37q42 39 57 128z" />
    <glyph glyph-name="d" unicode="d" horiz-adv-x="616" 
d="M553 805v-801h-81v45q-60 -52 -194 -52q-112 0 -178 72q-65 72 -65 196q0 132 67 205q65 72 178 72q140 0 192 -45v265q0 35 -5 53q62 -16 86 -10zM406 88q40 18 66 64v241q-22 45 -63 62q-38 16 -117 16q-82 0 -129 -52q-48 -55 -48 -154q0 -94 48 -145q46 -50 127 -50
q76 0 116 18z" />
    <glyph glyph-name="e" unicode="e" horiz-adv-x="596" 
d="M486 183l63 -11q-22 -95 -82 -136q-57 -40 -161 -40q-130 0 -199 69q-70 69 -70 197q0 277 265 277q242 0 254 -265q2 -29 -22 -29h-422q1 -181 195 -181q148 0 179 119zM478 307q-20 166 -176 166q-176 0 -187 -166h363z" />
    <glyph glyph-name="f" unicode="f" horiz-adv-x="367" 
d="M204 719q-10 -15 -10 -52v-120h136l-9 -68l-127 1v-485h-80v485l-100 -1l5 43l-6 25h101v122q0 81 33 110q34 30 131 31q39 0 76 -5l-15 -69q-46 7 -97 2q-28 -4 -38 -19z" />
    <glyph glyph-name="g" unicode="g" horiz-adv-x="602" 
d="M475 532h65v-462q0 -169 -55 -233q-54 -63 -195 -63q-204 0 -265 164l55 36q67 -126 212 -126q92 0 128 43q42 48 43 180q-43 -71 -175 -71q-147 0 -202 65q-53 63 -53 226q0 135 62 193q59 56 193 56q133 0 177 -61zM150 116q39 -45 145 -45q92 0 127 43q38 46 38 176
q0 106 -38 145q-35 36 -127 36q-100 0 -143 -44q-42 -42 -42 -137q0 -128 40 -174z" />
    <glyph glyph-name="h" unicode="h" horiz-adv-x="570" 
d="M143 472q31 69 180 69q183 0 183 -153v-388h-81v354q0 106 -133 106q-149 0 -149 -129v-331h-82v691q0 82 -6 117q59 -15 88 -8v-328z" />
    <glyph glyph-name="i" unicode="i" horiz-adv-x="208" 
d="M138 717q16 15 16 37t-16 37q-15 16 -37 16q-21 0 -36 -16q-16 -15 -16 -37t16 -37q15 -16 36 -16q22 0 37 16zM142 1v587q-31 -3 -87 12q6 -20 6 -69v-530h81z" />
    <glyph glyph-name="j" unicode="j" horiz-adv-x="294" 
d="M224 721q15 15 15 36q0 22 -15 37t-36 15q-22 0 -36 -15q-15 -15 -15 -37q0 -21 15 -36q14 -15 36 -15q21 0 36 15zM152 565q0 20 -6 38q59 -16 84 -11v-577q0 -111 -65 -150q-63 -37 -172 0l17 78q67 -27 105 -4q37 23 37 86v540z" />
    <glyph glyph-name="k" unicode="k" horiz-adv-x="518" 
d="M516 0l-73 9l-18 -11l-176 291l-110 -119v-170h-79v718q0 30 -6 54q59 -16 85 -11v-483l248 267h99l-185 -200z" />
    <glyph glyph-name="l" unicode="l" horiz-adv-x="202" 
d="M139 0v794q-28 -5 -86 16q7 -32 7 -96v-714h79z" />
    <glyph glyph-name="m" unicode="m" horiz-adv-x="858" 
d="M480 525q37 17 131 17q106 0 146 -28q36 -26 36 -91v-423h-78v393q0 42 -23 57q-25 16 -98 16q-83 0 -105 -21q-24 -22 -24 -102v-343h-78v343q0 83 -21 104q-21 20 -102 20q-126 0 -126 -95v-372h-78v496q0 30 -5 48q49 -11 83 -3v-49q30 51 143 51q87 0 118 -14
q32 -15 40 -59q7 40 41 55z" />
    <glyph glyph-name="n" unicode="n" horiz-adv-x="555" 
d="M137 489q34 53 169 53q186 0 186 -171v-373h-80v353q0 117 -128 117q-147 0 -147 -105v-365h-77v433q0 71 -9 113q55 -11 86 -5v-50z" />
    <glyph glyph-name="o" unicode="o" horiz-adv-x="603" 
d="M96 475q62 65 204 65q139 0 203 -65q62 -65 62 -206q0 -146 -61 -210q-62 -65 -204 -65q-141 0 -203 64t-62 211q0 143 61 206zM154 107q42 -45 146 -45q103 0 146 44q44 46 44 163q0 113 -47 161q-44 44 -143 44q-106 0 -147 -44q-43 -44 -43 -161q0 -116 44 -162z" />
    <glyph glyph-name="p" unicode="p" horiz-adv-x="596" 
d="M501 478q58 -67 58 -225q0 -136 -57 -200q-56 -64 -177 -64q-129 0 -186 50v-244h-79v697q0 34 -6 50q54 -11 80 -6l3 -45q65 51 188 51q122 0 176 -64zM443 104q40 43 40 149q0 122 -40 171q-38 48 -131 48q-133 0 -173 -73v-258q39 -79 173 -79q92 0 131 42z" />
    <glyph glyph-name="q" unicode="q" horiz-adv-x="597" 
d="M461 536q26 -5 79 6q-6 -22 -6 -51v-697h-78v244q-57 -51 -187 -51q-121 0 -177 64q-57 64 -57 201q0 158 58 226q54 63 176 63q125 0 189 -52zM456 139v258q-40 74 -174 74q-93 0 -131 -48q-40 -49 -40 -171q0 -107 41 -150q38 -42 130 -42q135 0 174 79z" />
    <glyph glyph-name="r" unicode="r" horiz-adv-x="402" 
d="M385 540l-9 -76q-156 14 -195 -22t-39 -192v-250h-80v511q0 23 -6 36q53 -10 81 -5v-54q19 52 146 52h102z" />
    <glyph glyph-name="s" unicode="s" horiz-adv-x="523" 
d="M439 244q45 -37 45 -110q0 -77 -47 -111q-49 -37 -165 -37q-132 0 -184 41q-48 39 -56 140l73 10q12 -80 40 -102q30 -25 129 -25q75 0 107 21q28 20 28 63q0 45 -32 67q-33 22 -118 33q-128 17 -177 58q-44 36 -44 109q0 72 49 106q52 36 172 36q119 0 164 -34
q46 -35 53 -136l-70 -10q-5 68 -35 93q-32 26 -113 26t-115 -21q-31 -18 -31 -60q0 -45 32 -67q37 -24 138 -37q110 -13 157 -53z" />
    <glyph glyph-name="t" unicode="t" horiz-adv-x="402" 
d="M220 151q0 -56 30 -71q35 -18 133 1l-8 -75q-130 -18 -182 15q-49 32 -49 128v320q-86 0 -127 -1l6 42l-6 23h127v138q0 28 -6 44q59 -14 82 -10v-172h151l-8 -65q-45 1 -143 1v-318z" />
    <glyph glyph-name="u" unicode="u" horiz-adv-x="543" 
d="M480 532v-532h-68q-6 32 -7 41q-60 -49 -152 -49q-103 0 -148 43q-44 43 -44 139v361h74v-361q0 -57 29 -84q32 -28 104 -28q62 0 100 33q36 32 36 84v356h68v-3h8z" />
    <glyph glyph-name="v" unicode="v" horiz-adv-x="480" 
d="M281 0h-61q-21 0 -28 22q-42 116 -189 512h81l157 -434l155 434h79z" />
    <glyph glyph-name="w" unicode="w" horiz-adv-x="741" 
d="M243 0h-53q-27 0 -34 23l-154 510h82l121 -434l126 404h52q22 0 28 -15q53 -172 125 -390l119 435h80l-159 -533h-58q-23 0 -31 25q-49 157 -119 378z" />
    <glyph glyph-name="x" unicode="x" horiz-adv-x="472" 
d="M467 0l-62 7l-21 -8q-76 115 -149 224l-148 -224l-16 8l-69 -7l191 286l-165 248h86q67 -101 121 -184q56 83 123 184h83l-164 -247z" />
    <glyph glyph-name="y" unicode="y" horiz-adv-x="486" 
d="M479 534q-77 -235 -210 -607q-28 -80 -72 -101q-47 -23 -166 -9l3 67q87 -11 124 7q33 15 52 69l18 54q-9 22 -226 520h82l177 -421q79 239 138 421h80z" />
    <glyph glyph-name="z" unicode="z" horiz-adv-x="511" 
d="M475 69l-19 -67h-392q-22 0 -28 16q-6 15 7 32q195 267 296 418h-276l12 39l-11 28h356q26 0 32 -16q5 -15 -10 -36q-194 -263 -294 -414h327z" />
    <glyph glyph-name="braceleft" unicode="{" horiz-adv-x="292" 
d="M265 -43v56h-44q-64 0 -64 70v217q0 80 -42 96q42 18 42 100v211q0 72 60 72h48v57h-60q-115 0 -115 -120v-220q0 -72 -82 -72v-56q47 0 65 -16q17 -15 17 -52v-218q0 -125 115 -125h60z" />
    <glyph glyph-name="bar" unicode="|" horiz-adv-x="199" 
d="M125 852h-64v-942h64v942z" />
    <glyph glyph-name="braceright" unicode="}" horiz-adv-x="292" 
d="M14 8v-57h60q116 0 116 126v218q0 37 17 52q18 16 64 16v55q-81 0 -81 72v220q0 120 -116 120h-60v-56h49q60 0 60 -73v-211q0 -83 42 -100q-43 -17 -43 -95v-218q0 -69 -63 -69h-45z" />
    <glyph glyph-name="asciitilde" unicode="~" horiz-adv-x="502" 
d="M494 790l-56 35q-35 -57 -84 -57q-26 0 -92 35q-65 35 -116 35q-82 0 -141 -82l50 -37q38 57 89 57q28 0 93 -36t116 -36q86 0 141 86z" />
    <glyph glyph-name="exclamdown" unicode="&#xa1;" horiz-adv-x="223" 
d="M77 552q-15 -14 -15 -36q0 -21 15 -35t36 -14t36 14q14 14 14 35q0 22 -14 36q-15 15 -36 15t-36 -15zM150 -110l-14 484h-47l-14 -484h75z" />
    <glyph glyph-name="cent" unicode="&#xa2;" horiz-adv-x="622" 
d="M586 288q-16 -101 -88 -163t-173 -62q-55 0 -103 17q-15 -33 -54 -126l-61 26l55 130q-122 85 -122 262q0 134 77 218q79 86 208 86q40 0 73 -10l48 113l61 -25l-48 -113q96 -54 121 -168l-69 -15q-19 79 -78 120q-73 -170 -184 -434q37 -13 76 -13q68 0 120 44
q56 47 71 125zM191 178l182 428q-24 6 -48 6q-94 0 -152 -64q-60 -66 -60 -176q0 -127 78 -194z" />
    <glyph glyph-name="sterling" unicode="&#xa3;" horiz-adv-x="692" 
d="M645 232q-4 -175 -130 -175q-66 0 -230 110q-8 -70 -42 -98q-29 -24 -85 -24q-49 0 -83 34t-34 83q0 54 33 89q32 35 83 35q27 0 63 -13q-2 33 -11 97q-101 0 -140 -1l6 40l-7 22h131l-12 69q-16 87 31 141q49 55 150 55q136 0 198 -113l-54 -28q-47 79 -144 79
q-68 0 -97 -35q-30 -35 -17 -98l13 -70h212l-9 -62q-51 1 -194 1q11 -75 12 -130q207 -117 224 -117q37 0 54 24q18 27 19 93zM204 124q18 22 19 81q-40 20 -66 20q-55 0 -55 -63q0 -23 18 -40q17 -17 39 -17q31 0 45 19z" />
    <glyph glyph-name="currency" unicode="&#xa4;" horiz-adv-x="647" 
d="M529 543q56 -72 56 -163q0 -93 -57 -164l56 -57l-44 -43l-56 56q-72 -56 -163 -56q-93 0 -163 57l-57 -57l-43 43l56 56q-57 73 -57 165q0 91 56 163q-25 24 -57 57l43 43q32 -32 56 -57q74 58 166 58q93 0 165 -58l57 57l44 -43zM178 237q59 -60 143 -60t144 60
q59 59 59 143t-59 144q-60 59 -144 59t-143 -59q-60 -60 -60 -144t60 -143z" />
    <glyph glyph-name="yen" unicode="&#xa5;" horiz-adv-x="555" 
d="M312 264h191v-61h-191v-203h-67v203h-186v61h186v101h-180v61h162l-195 293h83l163 -252l162 252h83l-193 -293h170v-61h-188v-101z" />
    <glyph glyph-name="brokenbar" unicode="&#xa6;" horiz-adv-x="197" 
d="M130 814h-63v-424h63v424zM130 337h-63v-425h63v425z" />
    <glyph glyph-name="section" unicode="&#xa7;" horiz-adv-x="451" 
d="M339 258q33 -36 33 -91q0 -57 -37 -90q-39 -34 -110 -34q-138 0 -147 152h69q4 -49 22 -68q17 -19 57 -19q76 0 76 58q0 47 -103 100q-157 80 -157 162q0 73 73 118q-33 36 -33 83q0 58 37 91q39 34 109 34q141 0 147 -152h-68q-4 49 -22 68q-17 19 -57 19q-77 0 -77 -58
q0 -24 19 -42q21 -19 92 -57q88 -47 119 -81q30 -33 30 -79q0 -67 -72 -114zM343 366q0 43 -120 106q-39 21 -62 36q-50 -27 -50 -73q0 -41 127 -109q23 -12 55 -32q50 31 50 72z" />
    <glyph glyph-name="dieresis" unicode="&#xa8;" horiz-adv-x="352" 
d="M296 698q-13 14 -32 14q-48 0 -48 -46q0 -21 14 -36q14 -14 32 -14q47 0 47 48q0 20 -13 34zM121 694q-14 13 -34 13q-46 0 -46 -44q0 -22 14 -37q13 -15 32 -15q47 0 47 50q0 20 -13 33z" />
    <glyph glyph-name="copyright" unicode="&#xa9;" horiz-adv-x="877" 
d="M151 682q118 117 284 117t283 -117q117 -118 117 -284t-117 -283q-117 -118 -283 -118t-284 118q-117 117 -117 283q0 167 117 284zM191 155q101 -101 244 -101t243 101q101 101 101 243q0 143 -101 244q-100 101 -243 101t-244 -101t-101 -244t101 -243zM652 347
q-19 -107 -71 -153q-51 -44 -148 -44q-216 0 -216 246q0 253 217 253q92 0 140 -35q52 -37 74 -126l-58 -19q-15 68 -51 96q-35 26 -103 26q-78 0 -115 -44q-38 -46 -38 -149q0 -99 38 -144q36 -42 114 -42q132 0 156 149z" />
    <glyph glyph-name="guillemotleft" unicode="&#xab;" horiz-adv-x="506" 
d="M255 29h64l-210 333l210 326h-64q-188 -289 -199 -305q-13 -21 -2 -37q10 -18 201 -317zM400 29h63l-210 333l210 326h-63l-199 -305q-13 -20 -3 -37z" />
    <glyph glyph-name="registered" unicode="&#xae;" horiz-adv-x="879" 
d="M720 687q118 -117 118 -283t-118 -283q-117 -118 -283 -118t-283 118q-118 117 -118 283t118 283q117 118 283 118t283 -118zM683 158q102 102 102 246t-102 246t-246 102t-246 -102t-102 -246t102 -246t246 -102t246 102zM470 359l177 -225l-44 6l-22 -8l-175 227h-86
v-229h-55v505q0 25 -4 34q24 -5 22 -5h220q65 0 92 -33q29 -35 29 -122q0 -84 -27 -117t-93 -33h-34zM320 409h176q43 0 58 19q15 20 15 81q0 63 -16 85q-16 20 -58 20h-175v-205z" />
    <glyph glyph-name="degree" unicode="&#xb0;" horiz-adv-x="348" 
d="M254 709q-33 32 -80 32t-79 -31q-32 -32 -32 -78q0 -48 31 -81q32 -33 79 -33q50 0 83 32q32 32 32 80q0 46 -34 79zM221 584q-19 -19 -47 -19q-26 0 -45 18q-20 19 -20 48q0 25 19 44q20 19 46 19q27 0 47 -20q19 -19 19 -44q0 -27 -19 -46z" />
    <glyph glyph-name="plusminus" unicode="&#xb1;" horiz-adv-x="639" 
d="M287 405v-218h67v218h263v65h-263v212h-67v-212h-265v-65h265zM622 101h-605v-65h605v65z" />
    <glyph glyph-name="periodcentered" unicode="&#xb7;" horiz-adv-x="347" 
d="M127 323q20 -22 50 -22q33 0 54 21q20 21 20 54q0 27 -22 48q-22 20 -52 20q-28 0 -50 -21q-21 -21 -21 -47q0 -31 21 -53z" />
    <glyph glyph-name="multiply" unicode="&#xd7;" horiz-adv-x="618" 
d="M359 378l236 -236l-46 -47l-236 237l-237 -237l-46 47l236 236l-236 236l46 46l237 -236l236 236l46 -46z" />
    <glyph glyph-name="divide" unicode="&#xf7;" horiz-adv-x="684" 
d="M298 565q19 -20 47 -20t47 20q20 20 20 48t-20 47q-19 19 -47 19t-47 -19t-19 -47t19 -48zM664 350v66h-638v-66h638zM298 108q19 -20 47 -20t47 20q20 19 20 46q0 28 -20 48q-19 20 -47 20t-47 -20t-19 -48q0 -27 19 -46z" />
    <glyph glyph-name="amacron" unicode="&#x101;" 
 />
    <glyph glyph-name="emacron" unicode="&#x113;" 
 />
    <glyph glyph-name="ecaron" unicode="&#x11b;" 
 />
    <glyph glyph-name="imacron" unicode="&#x12b;" 
 />
    <glyph glyph-name="nacute" unicode="&#x144;" 
 />
    <glyph glyph-name="ncaron" unicode="&#x148;" 
 />
    <glyph glyph-name="omacron" unicode="&#x14d;" 
 />
    <glyph glyph-name="umacron" unicode="&#x16b;" 
 />
    <glyph glyph-name="uni01CE" unicode="&#x1ce;" 
 />
    <glyph glyph-name="uni01D0" unicode="&#x1d0;" 
 />
    <glyph glyph-name="uni01D2" unicode="&#x1d2;" 
 />
    <glyph glyph-name="uni01D4" unicode="&#x1d4;" 
 />
    <glyph glyph-name="uni01D6" unicode="&#x1d6;" 
 />
    <glyph glyph-name="uni01D8" unicode="&#x1d8;" 
 />
    <glyph glyph-name="uni01DA" unicode="&#x1da;" 
 />
    <glyph glyph-name="uni01DC" unicode="&#x1dc;" 
 />
    <glyph glyph-name="uni0251" unicode="&#x251;" 
 />
    <glyph glyph-name="uni0261" unicode="&#x261;" 
 />
    <glyph glyph-name="caron" unicode="&#x2c7;" horiz-adv-x="874" 
d="M303 773h-83l196 -240q21 -26 37 -26t38 26q81 99 198 240h-84l-151 -176z" />
    <glyph glyph-name="uni02C9" unicode="&#x2c9;" horiz-adv-x="874" 
d="M624 738h-387v-65h387v65z" />
    <glyph glyph-name="Alpha" unicode="&#x391;" 
 />
    <glyph glyph-name="Beta" unicode="&#x392;" 
 />
    <glyph glyph-name="Gamma" unicode="&#x393;" 
 />
    <glyph glyph-name="uni0394" unicode="&#x394;" 
 />
    <glyph glyph-name="Epsilon" unicode="&#x395;" 
 />
    <glyph glyph-name="Zeta" unicode="&#x396;" 
 />
    <glyph glyph-name="Eta" unicode="&#x397;" 
 />
    <glyph glyph-name="Theta" unicode="&#x398;" 
 />
    <glyph glyph-name="Iota" unicode="&#x399;" 
 />
    <glyph glyph-name="Kappa" unicode="&#x39a;" 
 />
    <glyph glyph-name="Lambda" unicode="&#x39b;" 
 />
    <glyph glyph-name="Mu" unicode="&#x39c;" 
 />
    <glyph glyph-name="Nu" unicode="&#x39d;" 
 />
    <glyph glyph-name="Xi" unicode="&#x39e;" 
 />
    <glyph glyph-name="Omicron" unicode="&#x39f;" 
 />
    <glyph glyph-name="Pi" unicode="&#x3a0;" 
 />
    <glyph glyph-name="Rho" unicode="&#x3a1;" 
 />
    <glyph glyph-name="Sigma" unicode="&#x3a3;" 
 />
    <glyph glyph-name="Tau" unicode="&#x3a4;" 
 />
    <glyph glyph-name="Upsilon" unicode="&#x3a5;" 
 />
    <glyph glyph-name="Phi" unicode="&#x3a6;" 
 />
    <glyph glyph-name="Chi" unicode="&#x3a7;" 
 />
    <glyph glyph-name="Psi" unicode="&#x3a8;" 
 />
    <glyph glyph-name="uni03A9" unicode="&#x3a9;" 
 />
    <glyph glyph-name="alpha" unicode="&#x3b1;" 
 />
    <glyph glyph-name="beta" unicode="&#x3b2;" 
 />
    <glyph glyph-name="gamma" unicode="&#x3b3;" 
 />
    <glyph glyph-name="delta" unicode="&#x3b4;" 
 />
    <glyph glyph-name="epsilon" unicode="&#x3b5;" 
 />
    <glyph glyph-name="zeta" unicode="&#x3b6;" 
 />
    <glyph glyph-name="eta" unicode="&#x3b7;" 
 />
    <glyph glyph-name="theta" unicode="&#x3b8;" 
 />
    <glyph glyph-name="iota" unicode="&#x3b9;" 
 />
    <glyph glyph-name="kappa" unicode="&#x3ba;" 
 />
    <glyph glyph-name="lambda" unicode="&#x3bb;" 
 />
    <glyph glyph-name="uni03BC" unicode="&#x3bc;" 
 />
    <glyph glyph-name="nu" unicode="&#x3bd;" 
 />
    <glyph glyph-name="xi" unicode="&#x3be;" 
 />
    <glyph glyph-name="omicron" unicode="&#x3bf;" 
 />
    <glyph glyph-name="pi" unicode="&#x3c0;" 
 />
    <glyph glyph-name="rho" unicode="&#x3c1;" 
 />
    <glyph glyph-name="sigma" unicode="&#x3c3;" 
 />
    <glyph glyph-name="tau" unicode="&#x3c4;" 
 />
    <glyph glyph-name="upsilon" unicode="&#x3c5;" 
 />
    <glyph glyph-name="phi" unicode="&#x3c6;" 
 />
    <glyph glyph-name="chi" unicode="&#x3c7;" 
 />
    <glyph glyph-name="psi" unicode="&#x3c8;" 
 />
    <glyph glyph-name="omega" unicode="&#x3c9;" 
 />
    <glyph glyph-name="uni0401" unicode="&#x401;" 
 />
    <glyph glyph-name="uni0410" unicode="&#x410;" 
 />
    <glyph glyph-name="uni0411" unicode="&#x411;" 
 />
    <glyph glyph-name="uni0412" unicode="&#x412;" 
 />
    <glyph glyph-name="uni0413" unicode="&#x413;" 
 />
    <glyph glyph-name="uni0414" unicode="&#x414;" 
 />
    <glyph glyph-name="uni0415" unicode="&#x415;" 
 />
    <glyph glyph-name="uni0416" unicode="&#x416;" 
 />
    <glyph glyph-name="uni0417" unicode="&#x417;" 
 />
    <glyph glyph-name="uni0418" unicode="&#x418;" 
 />
    <glyph glyph-name="uni0419" unicode="&#x419;" 
 />
    <glyph glyph-name="uni041A" unicode="&#x41a;" 
 />
    <glyph glyph-name="uni041B" unicode="&#x41b;" 
 />
    <glyph glyph-name="uni041C" unicode="&#x41c;" 
 />
    <glyph glyph-name="uni041D" unicode="&#x41d;" 
 />
    <glyph glyph-name="uni041E" unicode="&#x41e;" 
 />
    <glyph glyph-name="uni041F" unicode="&#x41f;" 
 />
    <glyph glyph-name="uni0420" unicode="&#x420;" 
 />
    <glyph glyph-name="uni0421" unicode="&#x421;" 
 />
    <glyph glyph-name="uni0422" unicode="&#x422;" 
 />
    <glyph glyph-name="uni0423" unicode="&#x423;" 
 />
    <glyph glyph-name="uni0424" unicode="&#x424;" 
 />
    <glyph glyph-name="uni0425" unicode="&#x425;" 
 />
    <glyph glyph-name="uni0426" unicode="&#x426;" 
 />
    <glyph glyph-name="uni0427" unicode="&#x427;" 
 />
    <glyph glyph-name="uni0428" unicode="&#x428;" 
 />
    <glyph glyph-name="uni0429" unicode="&#x429;" 
 />
    <glyph glyph-name="uni042A" unicode="&#x42a;" 
 />
    <glyph glyph-name="uni042B" unicode="&#x42b;" 
 />
    <glyph glyph-name="uni042C" unicode="&#x42c;" 
 />
    <glyph glyph-name="uni042D" unicode="&#x42d;" 
 />
    <glyph glyph-name="uni042E" unicode="&#x42e;" 
 />
    <glyph glyph-name="uni042F" unicode="&#x42f;" 
 />
    <glyph glyph-name="uni0430" unicode="&#x430;" 
 />
    <glyph glyph-name="uni0431" unicode="&#x431;" 
 />
    <glyph glyph-name="uni0432" unicode="&#x432;" 
 />
    <glyph glyph-name="uni0433" unicode="&#x433;" 
 />
    <glyph glyph-name="uni0434" unicode="&#x434;" 
 />
    <glyph glyph-name="uni0435" unicode="&#x435;" 
 />
    <glyph glyph-name="uni0436" unicode="&#x436;" 
 />
    <glyph glyph-name="uni0437" unicode="&#x437;" 
 />
    <glyph glyph-name="uni0438" unicode="&#x438;" 
 />
    <glyph glyph-name="uni0439" unicode="&#x439;" 
 />
    <glyph glyph-name="uni043A" unicode="&#x43a;" 
 />
    <glyph glyph-name="uni043B" unicode="&#x43b;" 
 />
    <glyph glyph-name="uni043C" unicode="&#x43c;" 
 />
    <glyph glyph-name="uni043D" unicode="&#x43d;" 
 />
    <glyph glyph-name="uni043E" unicode="&#x43e;" 
 />
    <glyph glyph-name="uni043F" unicode="&#x43f;" 
 />
    <glyph glyph-name="uni0440" unicode="&#x440;" 
 />
    <glyph glyph-name="uni0441" unicode="&#x441;" 
 />
    <glyph glyph-name="uni0442" unicode="&#x442;" 
 />
    <glyph glyph-name="uni0443" unicode="&#x443;" 
 />
    <glyph glyph-name="uni0444" unicode="&#x444;" 
 />
    <glyph glyph-name="uni0445" unicode="&#x445;" 
 />
    <glyph glyph-name="uni0446" unicode="&#x446;" 
 />
    <glyph glyph-name="uni0447" unicode="&#x447;" 
 />
    <glyph glyph-name="uni0448" unicode="&#x448;" 
 />
    <glyph glyph-name="uni0449" unicode="&#x449;" 
 />
    <glyph glyph-name="uni044A" unicode="&#x44a;" 
 />
    <glyph glyph-name="uni044B" unicode="&#x44b;" 
 />
    <glyph glyph-name="uni044C" unicode="&#x44c;" 
 />
    <glyph glyph-name="uni044D" unicode="&#x44d;" 
 />
    <glyph glyph-name="uni044E" unicode="&#x44e;" 
 />
    <glyph glyph-name="uni044F" unicode="&#x44f;" 
 />
    <glyph glyph-name="uni0451" unicode="&#x451;" 
 />
    <glyph glyph-name="uni2005" unicode="&#x2005;" horiz-adv-x="250" 
 />
    <glyph glyph-name="endash" unicode="&#x2013;" horiz-adv-x="516" 
d="M510 414h-507v-68h507v68z" />
    <glyph glyph-name="emdash" unicode="&#x2014;" 
d="M28 420v-53h942v53h-942z" />
    <glyph glyph-name="uni2016" unicode="&#x2016;" horiz-adv-x="864" 
d="M355 868h-35v-967h35v967zM511 868h-34v-967h34v967z" />
    <glyph glyph-name="quoteleft" unicode="&#x2018;" horiz-adv-x="645" 
d="M420 664q14 -20 10 -44q-3 -25 -24 -41q-20 -16 -46 -12q-12 2 -17 5q-44 18 -36 74q20 147 170 160q-76 -39 -95 -117q23 -5 38 -25z" />
    <glyph glyph-name="quoteright" unicode="&#x2019;" horiz-adv-x="649" 
d="M269 732q-21 -147 -169 -159q75 40 94 117q-23 5 -37 25q-14 19 -11 43q4 26 24 41q21 16 46 13q62 -8 53 -80z" />
    <glyph glyph-name="quotedblleft" unicode="&#x201c;" horiz-adv-x="650" 
d="M361 660q14 -20 10 -44q-3 -26 -23 -41q-21 -16 -46 -12l-6 1q-37 8 -46 42q-3 15 -2 26l1 10q19 147 169 160q-75 -41 -94 -117q23 -5 37 -25zM534 616q-4 -26 -24 -41q-21 -16 -46 -12q-3 0 -9 2q-52 13 -44 77q20 147 169 160q-75 -41 -94 -117q55 -14 48 -69z" />
    <glyph glyph-name="quotedblright" unicode="&#x201d;" horiz-adv-x="655" 
d="M219 718q-19 -147 -169 -159q74 39 95 116q-23 5 -37 25q-15 20 -11 44q3 25 23 41t46 13q47 -6 53 -52q2 -10 1 -16q0 -8 -1 -12zM382 718q-20 -147 -170 -159q74 38 95 116q-23 5 -37 25t-11 44q4 26 24 41q21 16 46 13q62 -8 53 -80z" />
    <glyph glyph-name="bullet" unicode="&#x2022;" 
d="M183 403q20 -22 50 -22q33 0 54 21q20 21 20 54q0 27 -22 48q-22 20 -52 20q-28 0 -50 -21q-21 -21 -21 -47q0 -31 21 -53z" />
    <glyph glyph-name="ellipsis" unicode="&#x2026;" horiz-adv-x="902" 
d="M482 417q-15 15 -36 15q-22 0 -36 -14q-15 -15 -15 -36q0 -23 16 -39q15 -15 34 -15q51 0 51 53q0 21 -14 36zM747 417q-14 15 -35 15q-22 0 -37 -14q-14 -15 -14 -36q0 -22 16 -39q14 -15 33 -15q51 0 51 53q0 21 -14 36zM179 427q-49 0 -49 -48q0 -23 15 -40
q15 -16 34 -16q51 0 51 55q0 49 -51 49z" />
    <glyph glyph-name="perthousand" unicode="&#x2030;" horiz-adv-x="819" 
d="M554 696l-44 34l-503 -703l46 -33zM45 673q27 34 88 34t88 -33q30 -37 30 -124q0 -89 -29 -125q-27 -34 -89 -34t-90 36q-28 37 -28 123t30 123zM81 463q13 -19 52 -19q38 0 51 20q15 22 15 86q0 63 -14 84t-52 21q-37 0 -51 -21q-15 -22 -15 -84q0 -66 14 -87zM327 292
q28 34 89 34q60 0 88 -33q30 -37 30 -124q0 -88 -30 -125q-27 -34 -88 -34q-62 0 -90 36q-28 37 -28 123q0 87 29 123zM594 292q28 34 89 34q60 0 87 -33q30 -37 30 -124q0 -88 -29 -125q-27 -34 -88 -34q-63 0 -90 36q-28 37 -28 123q0 87 29 123zM364 82q13 -19 52 -19
q38 0 51 20q15 22 15 86q0 63 -14 84q-14 20 -52 20t-51 -20q-15 -22 -15 -84q0 -66 14 -87zM631 82q13 -19 52 -19q38 0 51 20q15 22 15 86q0 63 -14 84q-14 20 -52 20t-51 -20q-15 -22 -15 -84q0 -66 14 -87z" />
    <glyph glyph-name="minute" unicode="&#x2032;" 
 />
    <glyph glyph-name="second" unicode="&#x2033;" 
 />
    <glyph glyph-name="uni203B" unicode="&#x203b;" 
 />
    <glyph glyph-name="Euro" unicode="&#x20ac;" horiz-adv-x="785" 
d="M751 284q-18 -118 -100 -191q-82 -72 -197 -72q-126 0 -212 76q-84 74 -107 201h-111v61h104v22q0 15 2 41h-106v60h115q27 116 108 184q85 70 207 70q110 0 190 -67q78 -65 100 -170l-74 -17q-21 86 -84 136q-58 45 -132 45q-86 0 -149 -48q-62 -48 -86 -133h372v-60
h-383q-2 -26 -2 -41t1 -22h384v-61h-376q20 -93 84 -146q64 -54 155 -54q78 0 140 52q65 55 82 147z" />
    <glyph glyph-name="uni2103" unicode="&#x2103;" 
 />
    <glyph glyph-name="uni2116" unicode="&#x2116;" 
 />
    <glyph glyph-name="trademark" unicode="&#x2122;" horiz-adv-x="720" 
d="M330 743q-42 1 -104 1v-239h-64v239q-62 0 -105 -1l3 40l-3 21h277zM658 506h-57l-31 211l-54 -184h-41q-8 0 -10 9q-2 14 -51 179l-30 -217l-38 8l-19 -8l41 300h61q10 0 12 -9q20 -60 50 -159l54 167h60q12 0 13 -11q14 -97 40 -286z" />
    <glyph glyph-name="uni2160" unicode="&#x2160;" 
 />
    <glyph glyph-name="uni2161" unicode="&#x2161;" 
 />
    <glyph glyph-name="uni2162" unicode="&#x2162;" 
 />
    <glyph glyph-name="uni2163" unicode="&#x2163;" 
 />
    <glyph glyph-name="uni2164" unicode="&#x2164;" 
 />
    <glyph glyph-name="uni2165" unicode="&#x2165;" 
 />
    <glyph glyph-name="uni2166" unicode="&#x2166;" 
 />
    <glyph glyph-name="uni2167" unicode="&#x2167;" 
 />
    <glyph glyph-name="uni2168" unicode="&#x2168;" 
 />
    <glyph glyph-name="uni2169" unicode="&#x2169;" 
 />
    <glyph glyph-name="uni216A" unicode="&#x216a;" 
 />
    <glyph glyph-name="uni216B" unicode="&#x216b;" 
 />
    <glyph glyph-name="uni2170" unicode="&#x2170;" 
 />
    <glyph glyph-name="uni2171" unicode="&#x2171;" 
 />
    <glyph glyph-name="uni2172" unicode="&#x2172;" 
 />
    <glyph glyph-name="uni2173" unicode="&#x2173;" 
 />
    <glyph glyph-name="uni2174" unicode="&#x2174;" 
 />
    <glyph glyph-name="uni2175" unicode="&#x2175;" 
 />
    <glyph glyph-name="uni2176" unicode="&#x2176;" 
 />
    <glyph glyph-name="uni2177" unicode="&#x2177;" 
 />
    <glyph glyph-name="uni2178" unicode="&#x2178;" 
 />
    <glyph glyph-name="uni2179" unicode="&#x2179;" 
 />
    <glyph glyph-name="arrowleft" unicode="&#x2190;" 
 />
    <glyph glyph-name="arrowup" unicode="&#x2191;" 
 />
    <glyph glyph-name="arrowright" unicode="&#x2192;" 
 />
    <glyph glyph-name="arrowdown" unicode="&#x2193;" 
 />
    <glyph glyph-name="element" unicode="&#x2208;" 
 />
    <glyph glyph-name="product" unicode="&#x220f;" 
 />
    <glyph glyph-name="summation" unicode="&#x2211;" 
 />
    <glyph glyph-name="radical" unicode="&#x221a;" 
 />
    <glyph glyph-name="proportional" unicode="&#x221d;" 
 />
    <glyph glyph-name="infinity" unicode="&#x221e;" horiz-adv-x="906" 
d="M678 202q89 0 142 50q52 50 52 130t-54 128q-53 47 -140 47q-129 0 -221 -122q-107 122 -226 122q-84 0 -140 -53q-54 -51 -54 -122q0 -81 52 -130q53 -50 142 -50q122 0 226 122q96 -122 221 -122zM414 380q-92 -111 -186 -111q-56 0 -91 32q-34 32 -34 80q0 46 37 79
q37 32 88 32q93 0 186 -112zM677 492q57 0 92 -30q36 -30 36 -81q0 -49 -33 -80q-35 -32 -95 -32q-90 0 -180 111q82 112 180 112z" />
    <glyph glyph-name="angle" unicode="&#x2220;" 
 />
    <glyph glyph-name="uni2225" unicode="&#x2225;" 
 />
    <glyph glyph-name="logicaland" unicode="&#x2227;" 
 />
    <glyph glyph-name="logicalor" unicode="&#x2228;" 
 />
    <glyph glyph-name="intersection" unicode="&#x2229;" 
 />
    <glyph glyph-name="union" unicode="&#x222a;" 
 />
    <glyph glyph-name="integral" unicode="&#x222b;" 
 />
    <glyph glyph-name="uni222E" unicode="&#x222e;" 
 />
    <glyph glyph-name="therefore" unicode="&#x2234;" 
 />
    <glyph glyph-name="uni2235" unicode="&#x2235;" 
 />
    <glyph glyph-name="uni2236" unicode="&#x2236;" horiz-adv-x="694" 
d="M270 661q-19 -19 -19 -45q0 -27 19 -46t46 -19q26 0 45 19q18 19 18 46q0 26 -18 45q-19 19 -45 19q-27 0 -46 -19zM270 211q-19 -19 -19 -45q0 -27 19 -46t46 -19q26 0 45 19q18 19 18 46q0 26 -18 45q-19 19 -45 19q-27 0 -46 -19z" />
    <glyph glyph-name="uni2237" unicode="&#x2237;" 
 />
    <glyph glyph-name="uni223D" unicode="&#x223d;" 
 />
    <glyph glyph-name="approxequal" unicode="&#x2248;" horiz-adv-x="640" 
d="M20 422l51 -32q44 95 132 95q36 0 111 -51t127 -51q68 0 109 28q43 30 71 101l-57 29q-23 -55 -52 -75q-26 -18 -72 -18q-34 0 -105 51q-72 50 -132 50q-130 0 -183 -127zM20 240l51 -32q45 96 132 95q35 0 110 -51q76 -51 128 -51q68 0 109 28q43 30 71 101l-57 29
q-24 -55 -52 -75q-26 -18 -72 -18q-34 0 -105 51q-72 50 -132 50q-130 0 -183 -127z" />
    <glyph glyph-name="uni224C" unicode="&#x224c;" 
 />
    <glyph glyph-name="notequal" unicode="&#x2260;" horiz-adv-x="678" 
d="M379 442l-70 -122h342v-69h-381l-111 -193l-65 29l94 164h-164v69h204l70 122h-274v67h312q47 81 109 190l65 -28l-93 -162h234v-67h-272z" />
    <glyph glyph-name="equivalence" unicode="&#x2261;" 
 />
    <glyph glyph-name="lessequal" unicode="&#x2264;" horiz-adv-x="613" 
d="M595 618v65q-373 -114 -554 -174q-32 -11 -33 -37q-1 -27 33 -38q199 -64 554 -174v64l-473 149zM13 304v-62l582 -183v63z" />
    <glyph glyph-name="greaterequal" unicode="&#x2265;" horiz-adv-x="613" 
d="M13 678v-66l473 -145l-473 -148v-64q355 110 554 174q33 11 33 38q-1 26 -33 36q-181 60 -554 175zM595 238v63l-582 -182v-63z" />
    <glyph glyph-name="uni226E" unicode="&#x226e;" horiz-adv-x="875" 
d="M510 468v-163q108 -33 217 -68v-66q-97 30 -217 69v-201h-58v219q-224 72 -277 90q-35 11 -34 39q1 27 34 38q102 34 277 90v217h58v-199l217 69v-68zM452 450l-204 -62l204 -64v126z" />
    <glyph glyph-name="uni226F" unicode="&#x226f;" horiz-adv-x="875" 
d="M722 387q1 -27 -33 -39q-155 -52 -290 -95v-214h-59v195q-114 -36 -202 -63v66l202 64v171l-202 62v68l202 -63v193h59v-212q238 -77 290 -95q33 -11 33 -38zM399 319l217 69l-217 66v-135z" />
    <glyph glyph-name="uni2299" unicode="&#x2299;" 
 />
    <glyph glyph-name="perpendicular" unicode="&#x22a5;" 
 />
    <glyph glyph-name="uni2312" unicode="&#x2312;" 
 />
    <glyph glyph-name="uni2460" unicode="&#x2460;" 
 />
    <glyph glyph-name="uni2461" unicode="&#x2461;" 
 />
    <glyph glyph-name="uni2462" unicode="&#x2462;" 
 />
    <glyph glyph-name="uni2463" unicode="&#x2463;" 
 />
    <glyph glyph-name="uni2464" unicode="&#x2464;" 
 />
    <glyph glyph-name="uni2465" unicode="&#x2465;" 
 />
    <glyph glyph-name="uni2466" unicode="&#x2466;" 
 />
    <glyph glyph-name="uni2467" unicode="&#x2467;" 
 />
    <glyph glyph-name="uni2468" unicode="&#x2468;" 
 />
    <glyph glyph-name="uni2469" unicode="&#x2469;" 
 />
    <glyph glyph-name="uni2474" unicode="&#x2474;" 
 />
    <glyph glyph-name="uni2475" unicode="&#x2475;" 
 />
    <glyph glyph-name="uni2476" unicode="&#x2476;" 
 />
    <glyph glyph-name="uni2477" unicode="&#x2477;" 
 />
    <glyph glyph-name="uni2478" unicode="&#x2478;" 
 />
    <glyph glyph-name="uni2479" unicode="&#x2479;" 
 />
    <glyph glyph-name="uni247A" unicode="&#x247a;" 
 />
    <glyph glyph-name="uni247B" unicode="&#x247b;" 
 />
    <glyph glyph-name="uni247C" unicode="&#x247c;" 
 />
    <glyph glyph-name="uni247D" unicode="&#x247d;" 
 />
    <glyph glyph-name="uni247E" unicode="&#x247e;" 
 />
    <glyph glyph-name="uni247F" unicode="&#x247f;" 
 />
    <glyph glyph-name="uni2480" unicode="&#x2480;" 
 />
    <glyph glyph-name="uni2481" unicode="&#x2481;" 
 />
    <glyph glyph-name="uni2482" unicode="&#x2482;" 
 />
    <glyph glyph-name="uni2483" unicode="&#x2483;" 
 />
    <glyph glyph-name="uni2484" unicode="&#x2484;" 
 />
    <glyph glyph-name="uni2485" unicode="&#x2485;" 
 />
    <glyph glyph-name="uni2486" unicode="&#x2486;" 
 />
    <glyph glyph-name="uni2487" unicode="&#x2487;" 
 />
    <glyph glyph-name="uni2488" unicode="&#x2488;" 
 />
    <glyph glyph-name="uni2489" unicode="&#x2489;" 
 />
    <glyph glyph-name="uni248A" unicode="&#x248a;" 
 />
    <glyph glyph-name="uni248B" unicode="&#x248b;" 
 />
    <glyph glyph-name="uni248C" unicode="&#x248c;" 
 />
    <glyph glyph-name="uni248D" unicode="&#x248d;" 
 />
    <glyph glyph-name="uni248E" unicode="&#x248e;" 
 />
    <glyph glyph-name="uni248F" unicode="&#x248f;" 
 />
    <glyph glyph-name="uni2490" unicode="&#x2490;" 
 />
    <glyph glyph-name="uni2491" unicode="&#x2491;" 
 />
    <glyph glyph-name="uni2492" unicode="&#x2492;" 
 />
    <glyph glyph-name="uni2493" unicode="&#x2493;" 
 />
    <glyph glyph-name="uni2494" unicode="&#x2494;" 
 />
    <glyph glyph-name="uni2495" unicode="&#x2495;" 
 />
    <glyph glyph-name="uni2496" unicode="&#x2496;" 
 />
    <glyph glyph-name="uni2497" unicode="&#x2497;" 
 />
    <glyph glyph-name="uni2498" unicode="&#x2498;" 
 />
    <glyph glyph-name="uni2499" unicode="&#x2499;" 
 />
    <glyph glyph-name="uni249A" unicode="&#x249a;" 
 />
    <glyph glyph-name="uni249B" unicode="&#x249b;" 
 />
    <glyph glyph-name="SF100000" unicode="&#x2500;" 
 />
    <glyph glyph-name="uni2501" unicode="&#x2501;" 
 />
    <glyph glyph-name="SF110000" unicode="&#x2502;" 
 />
    <glyph glyph-name="uni2503" unicode="&#x2503;" 
 />
    <glyph glyph-name="uni2504" unicode="&#x2504;" 
 />
    <glyph glyph-name="uni2505" unicode="&#x2505;" 
 />
    <glyph glyph-name="uni2506" unicode="&#x2506;" 
 />
    <glyph glyph-name="uni2507" unicode="&#x2507;" 
 />
    <glyph glyph-name="uni2508" unicode="&#x2508;" 
 />
    <glyph glyph-name="uni2509" unicode="&#x2509;" 
 />
    <glyph glyph-name="uni250A" unicode="&#x250a;" 
 />
    <glyph glyph-name="uni250B" unicode="&#x250b;" 
 />
    <glyph glyph-name="SF010000" unicode="&#x250c;" 
 />
    <glyph glyph-name="uni250D" unicode="&#x250d;" 
 />
    <glyph glyph-name="uni250E" unicode="&#x250e;" 
 />
    <glyph glyph-name="uni250F" unicode="&#x250f;" 
 />
    <glyph glyph-name="SF030000" unicode="&#x2510;" 
 />
    <glyph glyph-name="uni2511" unicode="&#x2511;" 
 />
    <glyph glyph-name="uni2512" unicode="&#x2512;" 
 />
    <glyph glyph-name="uni2513" unicode="&#x2513;" 
 />
    <glyph glyph-name="SF020000" unicode="&#x2514;" 
 />
    <glyph glyph-name="uni2515" unicode="&#x2515;" 
 />
    <glyph glyph-name="uni2516" unicode="&#x2516;" 
 />
    <glyph glyph-name="uni2517" unicode="&#x2517;" 
 />
    <glyph glyph-name="SF040000" unicode="&#x2518;" 
 />
    <glyph glyph-name="uni2519" unicode="&#x2519;" 
 />
    <glyph glyph-name="uni251A" unicode="&#x251a;" 
 />
    <glyph glyph-name="uni251B" unicode="&#x251b;" 
 />
    <glyph glyph-name="SF080000" unicode="&#x251c;" 
 />
    <glyph glyph-name="uni251D" unicode="&#x251d;" 
 />
    <glyph glyph-name="uni251E" unicode="&#x251e;" 
 />
    <glyph glyph-name="uni251F" unicode="&#x251f;" 
 />
    <glyph glyph-name="uni2520" unicode="&#x2520;" 
 />
    <glyph glyph-name="uni2521" unicode="&#x2521;" 
 />
    <glyph glyph-name="uni2522" unicode="&#x2522;" 
 />
    <glyph glyph-name="uni2523" unicode="&#x2523;" 
 />
    <glyph glyph-name="SF090000" unicode="&#x2524;" 
 />
    <glyph glyph-name="uni2525" unicode="&#x2525;" 
 />
    <glyph glyph-name="uni2526" unicode="&#x2526;" 
 />
    <glyph glyph-name="uni2527" unicode="&#x2527;" 
 />
    <glyph glyph-name="uni2528" unicode="&#x2528;" 
 />
    <glyph glyph-name="uni2529" unicode="&#x2529;" 
 />
    <glyph glyph-name="uni252A" unicode="&#x252a;" 
 />
    <glyph glyph-name="uni252B" unicode="&#x252b;" 
 />
    <glyph glyph-name="SF060000" unicode="&#x252c;" 
 />
    <glyph glyph-name="uni252D" unicode="&#x252d;" 
 />
    <glyph glyph-name="uni252E" unicode="&#x252e;" 
 />
    <glyph glyph-name="uni252F" unicode="&#x252f;" 
 />
    <glyph glyph-name="uni2530" unicode="&#x2530;" 
 />
    <glyph glyph-name="uni2531" unicode="&#x2531;" 
 />
    <glyph glyph-name="uni2532" unicode="&#x2532;" 
 />
    <glyph glyph-name="uni2533" unicode="&#x2533;" 
 />
    <glyph glyph-name="SF070000" unicode="&#x2534;" 
 />
    <glyph glyph-name="uni2535" unicode="&#x2535;" 
 />
    <glyph glyph-name="uni2536" unicode="&#x2536;" 
 />
    <glyph glyph-name="uni2537" unicode="&#x2537;" 
 />
    <glyph glyph-name="uni2538" unicode="&#x2538;" 
 />
    <glyph glyph-name="uni2539" unicode="&#x2539;" 
 />
    <glyph glyph-name="uni253A" unicode="&#x253a;" 
 />
    <glyph glyph-name="uni253B" unicode="&#x253b;" 
 />
    <glyph glyph-name="SF050000" unicode="&#x253c;" 
 />
    <glyph glyph-name="uni253D" unicode="&#x253d;" 
 />
    <glyph glyph-name="uni253E" unicode="&#x253e;" 
 />
    <glyph glyph-name="uni253F" unicode="&#x253f;" 
 />
    <glyph glyph-name="uni2540" unicode="&#x2540;" 
 />
    <glyph glyph-name="uni2541" unicode="&#x2541;" 
 />
    <glyph glyph-name="uni2542" unicode="&#x2542;" 
 />
    <glyph glyph-name="uni2543" unicode="&#x2543;" 
 />
    <glyph glyph-name="uni2544" unicode="&#x2544;" 
 />
    <glyph glyph-name="uni2545" unicode="&#x2545;" 
 />
    <glyph glyph-name="uni2546" unicode="&#x2546;" 
 />
    <glyph glyph-name="uni2547" unicode="&#x2547;" 
 />
    <glyph glyph-name="uni2548" unicode="&#x2548;" 
 />
    <glyph glyph-name="uni2549" unicode="&#x2549;" 
 />
    <glyph glyph-name="uni254A" unicode="&#x254a;" 
 />
    <glyph glyph-name="uni254B" unicode="&#x254b;" 
 />
    <glyph glyph-name="filledbox" unicode="&#x25a0;" 
 />
    <glyph glyph-name="H22073" unicode="&#x25a1;" 
 />
    <glyph glyph-name="triagup" unicode="&#x25b2;" 
 />
    <glyph glyph-name="uni25B3" unicode="&#x25b3;" 
 />
    <glyph glyph-name="uni25C6" unicode="&#x25c6;" 
 />
    <glyph glyph-name="uni25C7" unicode="&#x25c7;" 
 />
    <glyph glyph-name="circle" unicode="&#x25cb;" 
 />
    <glyph glyph-name="uni25CE" unicode="&#x25ce;" 
 />
    <glyph glyph-name="H18533" unicode="&#x25cf;" 
 />
    <glyph glyph-name="uni2605" unicode="&#x2605;" 
 />
    <glyph glyph-name="uni2606" unicode="&#x2606;" 
 />
    <glyph glyph-name="female" unicode="&#x2640;" 
 />
    <glyph glyph-name="male" unicode="&#x2642;" 
 />
    <glyph glyph-name="uni3000" unicode="&#x3000;" horiz-adv-x="500" 
 />
    <glyph glyph-name="uni3001" unicode="&#x3001;" horiz-adv-x="651" 
d="M201 252l-52 -49l191 -206l55 52z" />
    <glyph glyph-name="uni3002" unicode="&#x3002;" horiz-adv-x="653" 
d="M374 233q-40 38 -96 38q-57 0 -95 -37q-39 -38 -39 -94q0 -57 38 -96q38 -40 94 -40q61 0 100 39q38 38 38 96q0 55 -40 94zM341 77q-26 -25 -63 -25q-35 0 -60 24q-27 25 -27 64q0 33 26 58q26 26 61 26q36 0 62 -26t26 -59q0 -37 -25 -62z" />
    <glyph glyph-name="uni3003" unicode="&#x3003;" horiz-adv-x="871" 
d="M485 557l-13 -335h-50l-1 12v-12h-51l-15 335h130z" />
    <glyph glyph-name="uni3005" unicode="&#x3005;" 
 />
    <glyph glyph-name="uni3008" unicode="&#x3008;" horiz-adv-x="641" 
d="M479 -52l58 17l-211 419l209 410l-56 16q-183 -357 -204 -400q-13 -27 -2 -48q17 -36 206 -414z" />
    <glyph glyph-name="uni3009" unicode="&#x3009;" horiz-adv-x="659" 
d="M217 810l-59 -18l212 -418l-209 -410l56 -16q183 357 203 400q13 25 3 47q-17 37 -206 415z" />
    <glyph glyph-name="uni300A" unicode="&#x300a;" horiz-adv-x="682" 
d="M423 -45l59 18l-212 418l209 410l-56 16q-177 -343 -204 -400q-13 -27 -2 -47q18 -40 206 -415zM571 -45l58 18l-212 418l210 410l-56 16q-183 -357 -204 -400q-13 -27 -2 -47q17 -37 206 -415z" />
    <glyph glyph-name="uni300B" unicode="&#x300b;" horiz-adv-x="703" 
d="M153 817l-59 -17l212 -419l-209 -410l56 -16q183 357 203 400q13 26 3 48q-17 36 -206 414zM301 817l-59 -17l212 -419l-210 -410l57 -16q176 344 203 400q12 27 3 48q-18 39 -206 414z" />
    <glyph glyph-name="uni300C" unicode="&#x300c;" horiz-adv-x="649" 
d="M278 841v-750h59v697h240v53h-299z" />
    <glyph glyph-name="uni300D" unicode="&#x300d;" horiz-adv-x="649" 
d="M391 -83v750h-59v-697h-240v-53h299z" />
    <glyph glyph-name="uni300E" unicode="&#x300e;" horiz-adv-x="652" 
d="M228 834h371v-143h-205v-529h-166v672zM570 719v87h-313v-616h107v529h206z" />
    <glyph glyph-name="uni300F" unicode="&#x300f;" horiz-adv-x="655" 
d="M273 610h167v-671h-372v143h205v528zM410 -33v615h-107v-528h-206v-87h313z" />
    <glyph glyph-name="uni3010" unicode="&#x3010;" horiz-adv-x="647" 
d="M577 859h-316v-950h316v8q-211 171 -211 467q0 297 211 466v9z" />
    <glyph glyph-name="uni3011" unicode="&#x3011;" horiz-adv-x="661" 
d="M396 -91v950h-317v-9q212 -169 212 -466t-212 -467v-8h317z" />
    <glyph glyph-name="uni3013" unicode="&#x3013;" 
 />
    <glyph glyph-name="uni3014" unicode="&#x3014;" horiz-adv-x="651" 
d="M323 49l218 -132l23 41l-184 112v618l180 112l-24 41l-213 -132v-660z" />
    <glyph glyph-name="uni3015" unicode="&#x3015;" horiz-adv-x="652" 
d="M192 -83l217 132v660l-213 132l-25 -41l181 -113v-617l-184 -112z" />
    <glyph glyph-name="uni3016" unicode="&#x3016;" horiz-adv-x="644" 
d="M599 818q-123 -55 -193 -165q-73 -115 -73 -267t74 -267q70 -109 192 -165v-16h-350v896h350v-16zM530 -38q-223 138 -223 424q0 156 75 276q58 94 148 147h-255v-847h255z" />
    <glyph glyph-name="uni3017" unicode="&#x3017;" horiz-adv-x="647" 
d="M70 -46q123 56 193 165q73 114 73 267q0 152 -74 267q-70 109 -192 165v16h349v-896h-349v16zM138 809q223 -135 223 -423q0 -156 -75 -276q-58 -94 -148 -148h256v847h-256z" />
    <glyph glyph-name="uni3041" unicode="&#x3041;" 
 />
    <glyph glyph-name="uni3042" unicode="&#x3042;" 
 />
    <glyph glyph-name="uni3043" unicode="&#x3043;" 
 />
    <glyph glyph-name="uni3044" unicode="&#x3044;" 
 />
    <glyph glyph-name="uni3045" unicode="&#x3045;" 
 />
    <glyph glyph-name="uni3046" unicode="&#x3046;" 
 />
    <glyph glyph-name="uni3047" unicode="&#x3047;" 
 />
    <glyph glyph-name="uni3048" unicode="&#x3048;" 
 />
    <glyph glyph-name="uni3049" unicode="&#x3049;" 
 />
    <glyph glyph-name="uni304A" unicode="&#x304a;" 
 />
    <glyph glyph-name="uni304B" unicode="&#x304b;" 
 />
    <glyph glyph-name="uni304C" unicode="&#x304c;" 
 />
    <glyph glyph-name="uni304D" unicode="&#x304d;" 
 />
    <glyph glyph-name="uni304E" unicode="&#x304e;" 
 />
    <glyph glyph-name="uni304F" unicode="&#x304f;" 
 />
    <glyph glyph-name="uni3050" unicode="&#x3050;" 
 />
    <glyph glyph-name="uni3051" unicode="&#x3051;" 
 />
    <glyph glyph-name="uni3052" unicode="&#x3052;" 
 />
    <glyph glyph-name="uni3053" unicode="&#x3053;" 
 />
    <glyph glyph-name="uni3054" unicode="&#x3054;" 
 />
    <glyph glyph-name="uni3055" unicode="&#x3055;" 
 />
    <glyph glyph-name="uni3056" unicode="&#x3056;" 
 />
    <glyph glyph-name="uni3057" unicode="&#x3057;" 
 />
    <glyph glyph-name="uni3058" unicode="&#x3058;" 
 />
    <glyph glyph-name="uni3059" unicode="&#x3059;" 
 />
    <glyph glyph-name="uni305A" unicode="&#x305a;" 
 />
    <glyph glyph-name="uni305B" unicode="&#x305b;" 
 />
    <glyph glyph-name="uni305C" unicode="&#x305c;" 
 />
    <glyph glyph-name="uni305D" unicode="&#x305d;" 
 />
    <glyph glyph-name="uni305E" unicode="&#x305e;" 
 />
    <glyph glyph-name="uni305F" unicode="&#x305f;" 
 />
    <glyph glyph-name="uni3060" unicode="&#x3060;" 
 />
    <glyph glyph-name="uni3061" unicode="&#x3061;" 
 />
    <glyph glyph-name="uni3062" unicode="&#x3062;" 
 />
    <glyph glyph-name="uni3063" unicode="&#x3063;" 
 />
    <glyph glyph-name="uni3064" unicode="&#x3064;" 
 />
    <glyph glyph-name="uni3065" unicode="&#x3065;" 
 />
    <glyph glyph-name="uni3066" unicode="&#x3066;" 
 />
    <glyph glyph-name="uni3067" unicode="&#x3067;" 
 />
    <glyph glyph-name="uni3068" unicode="&#x3068;" 
 />
    <glyph glyph-name="uni3069" unicode="&#x3069;" 
 />
    <glyph glyph-name="uni306A" unicode="&#x306a;" 
 />
    <glyph glyph-name="uni306B" unicode="&#x306b;" 
 />
    <glyph glyph-name="uni306C" unicode="&#x306c;" 
 />
    <glyph glyph-name="uni306D" unicode="&#x306d;" 
 />
    <glyph glyph-name="uni306E" unicode="&#x306e;" 
 />
    <glyph glyph-name="uni306F" unicode="&#x306f;" 
 />
    <glyph glyph-name="uni3070" unicode="&#x3070;" 
 />
    <glyph glyph-name="uni3071" unicode="&#x3071;" 
 />
    <glyph glyph-name="uni3072" unicode="&#x3072;" 
 />
    <glyph glyph-name="uni3073" unicode="&#x3073;" 
 />
    <glyph glyph-name="uni3074" unicode="&#x3074;" 
 />
    <glyph glyph-name="uni3075" unicode="&#x3075;" 
 />
    <glyph glyph-name="uni3076" unicode="&#x3076;" 
 />
    <glyph glyph-name="uni3077" unicode="&#x3077;" 
 />
    <glyph glyph-name="uni3078" unicode="&#x3078;" 
 />
    <glyph glyph-name="uni3079" unicode="&#x3079;" 
 />
    <glyph glyph-name="uni307A" unicode="&#x307a;" 
 />
    <glyph glyph-name="uni307B" unicode="&#x307b;" 
 />
    <glyph glyph-name="uni307C" unicode="&#x307c;" 
 />
    <glyph glyph-name="uni307D" unicode="&#x307d;" 
 />
    <glyph glyph-name="uni307E" unicode="&#x307e;" 
 />
    <glyph glyph-name="uni307F" unicode="&#x307f;" 
 />
    <glyph glyph-name="uni3080" unicode="&#x3080;" 
 />
    <glyph glyph-name="uni3081" unicode="&#x3081;" 
 />
    <glyph glyph-name="uni3082" unicode="&#x3082;" 
 />
    <glyph glyph-name="uni3083" unicode="&#x3083;" 
 />
    <glyph glyph-name="uni3084" unicode="&#x3084;" 
 />
    <glyph glyph-name="uni3085" unicode="&#x3085;" 
 />
    <glyph glyph-name="uni3086" unicode="&#x3086;" 
 />
    <glyph glyph-name="uni3087" unicode="&#x3087;" 
 />
    <glyph glyph-name="uni3088" unicode="&#x3088;" 
 />
    <glyph glyph-name="uni3089" unicode="&#x3089;" 
 />
    <glyph glyph-name="uni308A" unicode="&#x308a;" 
 />
    <glyph glyph-name="uni308B" unicode="&#x308b;" 
 />
    <glyph glyph-name="uni308C" unicode="&#x308c;" 
 />
    <glyph glyph-name="uni308D" unicode="&#x308d;" 
 />
    <glyph glyph-name="uni308E" unicode="&#x308e;" 
 />
    <glyph glyph-name="uni308F" unicode="&#x308f;" 
 />
    <glyph glyph-name="uni3090" unicode="&#x3090;" 
 />
    <glyph glyph-name="uni3091" unicode="&#x3091;" 
 />
    <glyph glyph-name="uni3092" unicode="&#x3092;" 
 />
    <glyph glyph-name="uni3093" unicode="&#x3093;" 
 />
    <glyph glyph-name="uni30A1" unicode="&#x30a1;" 
 />
    <glyph glyph-name="uni30A2" unicode="&#x30a2;" 
 />
    <glyph glyph-name="uni30A3" unicode="&#x30a3;" 
 />
    <glyph glyph-name="uni30A4" unicode="&#x30a4;" 
 />
    <glyph glyph-name="uni30A5" unicode="&#x30a5;" 
 />
    <glyph glyph-name="uni30A6" unicode="&#x30a6;" 
 />
    <glyph glyph-name="uni30A7" unicode="&#x30a7;" 
 />
    <glyph glyph-name="uni30A8" unicode="&#x30a8;" 
 />
    <glyph glyph-name="uni30A9" unicode="&#x30a9;" 
 />
    <glyph glyph-name="uni30AA" unicode="&#x30aa;" 
 />
    <glyph glyph-name="uni30AB" unicode="&#x30ab;" 
 />
    <glyph glyph-name="uni30AC" unicode="&#x30ac;" 
 />
    <glyph glyph-name="uni30AD" unicode="&#x30ad;" 
 />
    <glyph glyph-name="uni30AE" unicode="&#x30ae;" 
 />
    <glyph glyph-name="uni30AF" unicode="&#x30af;" 
 />
    <glyph glyph-name="uni30B0" unicode="&#x30b0;" 
 />
    <glyph glyph-name="uni30B1" unicode="&#x30b1;" 
 />
    <glyph glyph-name="uni30B2" unicode="&#x30b2;" 
 />
    <glyph glyph-name="uni30B3" unicode="&#x30b3;" 
 />
    <glyph glyph-name="uni30B4" unicode="&#x30b4;" 
 />
    <glyph glyph-name="uni30B5" unicode="&#x30b5;" 
 />
    <glyph glyph-name="uni30B6" unicode="&#x30b6;" 
 />
    <glyph glyph-name="uni30B7" unicode="&#x30b7;" 
 />
    <glyph glyph-name="uni30B8" unicode="&#x30b8;" 
 />
    <glyph glyph-name="uni30B9" unicode="&#x30b9;" 
 />
    <glyph glyph-name="uni30BA" unicode="&#x30ba;" 
 />
    <glyph glyph-name="uni30BB" unicode="&#x30bb;" 
 />
    <glyph glyph-name="uni30BC" unicode="&#x30bc;" 
 />
    <glyph glyph-name="uni30BD" unicode="&#x30bd;" 
 />
    <glyph glyph-name="uni30BE" unicode="&#x30be;" 
 />
    <glyph glyph-name="uni30BF" unicode="&#x30bf;" 
 />
    <glyph glyph-name="uni30C0" unicode="&#x30c0;" 
 />
    <glyph glyph-name="uni30C1" unicode="&#x30c1;" 
 />
    <glyph glyph-name="uni30C2" unicode="&#x30c2;" 
 />
    <glyph glyph-name="uni30C3" unicode="&#x30c3;" 
 />
    <glyph glyph-name="uni30C4" unicode="&#x30c4;" 
 />
    <glyph glyph-name="uni30C5" unicode="&#x30c5;" 
 />
    <glyph glyph-name="uni30C6" unicode="&#x30c6;" 
 />
    <glyph glyph-name="uni30C7" unicode="&#x30c7;" 
 />
    <glyph glyph-name="uni30C8" unicode="&#x30c8;" 
 />
    <glyph glyph-name="uni30C9" unicode="&#x30c9;" 
 />
    <glyph glyph-name="uni30CA" unicode="&#x30ca;" 
 />
    <glyph glyph-name="uni30CB" unicode="&#x30cb;" 
 />
    <glyph glyph-name="uni30CC" unicode="&#x30cc;" 
 />
    <glyph glyph-name="uni30CD" unicode="&#x30cd;" 
 />
    <glyph glyph-name="uni30CE" unicode="&#x30ce;" 
 />
    <glyph glyph-name="uni30CF" unicode="&#x30cf;" 
 />
    <glyph glyph-name="uni30D0" unicode="&#x30d0;" 
 />
    <glyph glyph-name="uni30D1" unicode="&#x30d1;" 
 />
    <glyph glyph-name="uni30D2" unicode="&#x30d2;" 
 />
    <glyph glyph-name="uni30D3" unicode="&#x30d3;" 
 />
    <glyph glyph-name="uni30D4" unicode="&#x30d4;" 
 />
    <glyph glyph-name="uni30D5" unicode="&#x30d5;" 
 />
    <glyph glyph-name="uni30D6" unicode="&#x30d6;" 
 />
    <glyph glyph-name="uni30D7" unicode="&#x30d7;" 
 />
    <glyph glyph-name="uni30D8" unicode="&#x30d8;" 
 />
    <glyph glyph-name="uni30D9" unicode="&#x30d9;" 
 />
    <glyph glyph-name="uni30DA" unicode="&#x30da;" 
 />
    <glyph glyph-name="uni30DB" unicode="&#x30db;" 
 />
    <glyph glyph-name="uni30DC" unicode="&#x30dc;" 
 />
    <glyph glyph-name="uni30DD" unicode="&#x30dd;" 
 />
    <glyph glyph-name="uni30DE" unicode="&#x30de;" 
 />
    <glyph glyph-name="uni30DF" unicode="&#x30df;" 
 />
    <glyph glyph-name="uni30E0" unicode="&#x30e0;" 
 />
    <glyph glyph-name="uni30E1" unicode="&#x30e1;" 
 />
    <glyph glyph-name="uni30E2" unicode="&#x30e2;" 
 />
    <glyph glyph-name="uni30E3" unicode="&#x30e3;" 
 />
    <glyph glyph-name="uni30E4" unicode="&#x30e4;" 
 />
    <glyph glyph-name="uni30E5" unicode="&#x30e5;" 
 />
    <glyph glyph-name="uni30E6" unicode="&#x30e6;" 
 />
    <glyph glyph-name="uni30E7" unicode="&#x30e7;" 
 />
    <glyph glyph-name="uni30E8" unicode="&#x30e8;" 
 />
    <glyph glyph-name="uni30E9" unicode="&#x30e9;" 
 />
    <glyph glyph-name="uni30EA" unicode="&#x30ea;" 
 />
    <glyph glyph-name="uni30EB" unicode="&#x30eb;" 
 />
    <glyph glyph-name="uni30EC" unicode="&#x30ec;" 
 />
    <glyph glyph-name="uni30ED" unicode="&#x30ed;" 
 />
    <glyph glyph-name="uni30EE" unicode="&#x30ee;" 
 />
    <glyph glyph-name="uni30EF" unicode="&#x30ef;" 
 />
    <glyph glyph-name="uni30F0" unicode="&#x30f0;" 
 />
    <glyph glyph-name="uni30F1" unicode="&#x30f1;" 
 />
    <glyph glyph-name="uni30F2" unicode="&#x30f2;" 
 />
    <glyph glyph-name="uni30F3" unicode="&#x30f3;" 
 />
    <glyph glyph-name="uni30F4" unicode="&#x30f4;" 
 />
    <glyph glyph-name="uni30F5" unicode="&#x30f5;" 
 />
    <glyph glyph-name="uni30F6" unicode="&#x30f6;" 
 />
    <glyph glyph-name="uni3105" unicode="&#x3105;" 
 />
    <glyph glyph-name="uni3106" unicode="&#x3106;" 
 />
    <glyph glyph-name="uni3107" unicode="&#x3107;" 
 />
    <glyph glyph-name="uni3108" unicode="&#x3108;" 
 />
    <glyph glyph-name="uni3109" unicode="&#x3109;" 
 />
    <glyph glyph-name="uni310A" unicode="&#x310a;" 
 />
    <glyph glyph-name="uni310B" unicode="&#x310b;" 
 />
    <glyph glyph-name="uni310C" unicode="&#x310c;" 
 />
    <glyph glyph-name="uni310D" unicode="&#x310d;" 
 />
    <glyph glyph-name="uni310E" unicode="&#x310e;" 
 />
    <glyph glyph-name="uni310F" unicode="&#x310f;" 
 />
    <glyph glyph-name="uni3110" unicode="&#x3110;" 
 />
    <glyph glyph-name="uni3111" unicode="&#x3111;" 
 />
    <glyph glyph-name="uni3112" unicode="&#x3112;" 
 />
    <glyph glyph-name="uni3113" unicode="&#x3113;" 
 />
    <glyph glyph-name="uni3114" unicode="&#x3114;" 
 />
    <glyph glyph-name="uni3115" unicode="&#x3115;" 
 />
    <glyph glyph-name="uni3116" unicode="&#x3116;" 
 />
    <glyph glyph-name="uni3117" unicode="&#x3117;" 
 />
    <glyph glyph-name="uni3118" unicode="&#x3118;" 
 />
    <glyph glyph-name="uni3119" unicode="&#x3119;" 
 />
    <glyph glyph-name="uni311A" unicode="&#x311a;" 
 />
    <glyph glyph-name="uni311B" unicode="&#x311b;" 
 />
    <glyph glyph-name="uni311C" unicode="&#x311c;" 
 />
    <glyph glyph-name="uni311D" unicode="&#x311d;" 
 />
    <glyph glyph-name="uni311E" unicode="&#x311e;" 
 />
    <glyph glyph-name="uni311F" unicode="&#x311f;" 
 />
    <glyph glyph-name="uni3120" unicode="&#x3120;" 
 />
    <glyph glyph-name="uni3121" unicode="&#x3121;" 
 />
    <glyph glyph-name="uni3122" unicode="&#x3122;" 
 />
    <glyph glyph-name="uni3123" unicode="&#x3123;" 
 />
    <glyph glyph-name="uni3124" unicode="&#x3124;" 
 />
    <glyph glyph-name="uni3125" unicode="&#x3125;" 
 />
    <glyph glyph-name="uni3126" unicode="&#x3126;" 
 />
    <glyph glyph-name="uni3127" unicode="&#x3127;" 
 />
    <glyph glyph-name="uni3128" unicode="&#x3128;" 
 />
    <glyph glyph-name="uni3129" unicode="&#x3129;" 
 />
    <glyph glyph-name="uni3220" unicode="&#x3220;" 
 />
    <glyph glyph-name="uni3221" unicode="&#x3221;" 
 />
    <glyph glyph-name="uni3222" unicode="&#x3222;" 
 />
    <glyph glyph-name="uni3223" unicode="&#x3223;" 
 />
    <glyph glyph-name="uni3224" unicode="&#x3224;" 
 />
    <glyph glyph-name="uni3225" unicode="&#x3225;" 
 />
    <glyph glyph-name="uni3226" unicode="&#x3226;" 
 />
    <glyph glyph-name="uni3227" unicode="&#x3227;" 
 />
    <glyph glyph-name="uni3228" unicode="&#x3228;" 
 />
    <glyph glyph-name="uni3229" unicode="&#x3229;" 
 />
    <glyph glyph-name="uni4E00" unicode="&#x4e00;" 
d="M900 361l14 70h-850v-70h836z" />
    <glyph glyph-name="uni4E01" unicode="&#x4e01;" 
d="M926 738l-13 -66q-234 2 -377 2v-757l-110 52l37 7v698l-393 -3l5 43l-11 24h862z" />
    <glyph glyph-name="uni4E03" unicode="&#x4e03;" 
d="M880 32q39 0 63 16l-18 -85h-482q-80 0 -80 76v335l-283 -62v44l-11 22q157 33 294 61v387q36 -17 72 -14v-358l435 91l-8 -67q-173 -34 -427 -89v-357h445z" />
    <glyph glyph-name="uni4E07" unicode="&#x4e07;" 
d="M891 689q-137 2 -441 2q-22 -62 -66 -182h348q18 0 16 -20q-9 -124 -46 -593l-94 42l24 7l39 498q-104 1 -311 -1q-107 -294 -193 -514l-44 4l-37 -22q146 376 286 780q-107 0 -295 -2l5 43l-11 25h833z" />
    <glyph glyph-name="uni4E08" unicode="&#x4e08;" 
d="M941 -13l-21 -22l-2 -54l-475 348q-88 -145 -216 -339l-45 7l-42 -16q141 217 246 390l-212 155l43 54l206 -149q90 149 138 231q-265 0 -502 -3l5 44l-11 24h546l106 185h83l-106 -185h218l-13 -67q-39 1 -119 1l-124 1q-67 -115 -163 -273z" />
    <glyph glyph-name="uni4E09" unicode="&#x4e09;" 
d="M148 669q400 4 680 1l12 65h-697l9 -23zM202 354q343 4 584 1l10 66h-598l9 -22zM73 15q396 4 840 1l14 66h-860l11 -24z" />
    <glyph glyph-name="uni4E0A" unicode="&#x4e0a;" 
d="M943 67l-14 -66q-378 4 -862 -1l5 43l-10 24h363v688q0 59 -7 90q52 -18 78 -15v-293h349l-8 -68q-143 3 -341 1v-403h447z" />
    <glyph glyph-name="uni4E0B" unicode="&#x4e0b;" 
d="M924 742l-13 -67q-271 2 -425 1v-758h-69v710q0 35 -1 48q-127 0 -347 -2l5 44l-10 24h860zM579 514l330 -266l-47 -55l-330 270z" />
    <glyph glyph-name="uni4E0C" unicode="&#x4e0c;" 
d="M917 663q-70 1 -219 1v-732h-70v695q0 27 -1 37h-233l-70 -348q-49 -245 -76 -376l-44 3l-35 -26q96 461 147 747l-114 -1q-75 0 -112 -1l5 43l-10 24h845z" />
    <glyph glyph-name="uni4E0D" unicode="&#x4e0d;" 
d="M592 698l-83 -95q8 0 11 1v-686h-69v619q-185 -205 -375 -395l-22 34l-27 6q261 269 469 516h-416v66h811l-14 -66h-285zM953 244l-44 -55l-310 264l44 52z" />
    <glyph glyph-name="uni4E0E" unicode="&#x4e0e;" 
d="M856 650q-234 3 -573 -1l-17 -197h540q18 0 16 -19q-8 -119 -41 -522l-90 41l23 7l34 427h-556l33 399q4 34 0 59q47 -12 73 -9l-10 -122h578zM691 218l-10 -61q-333 3 -629 -1l5 41l-9 21h643z" />
    <glyph glyph-name="uni4E10" unicode="&#x4e10;" 
d="M915 716q-126 1 -405 1v-154h338l-7 -63q-159 2 -331 0v-166h351q19 0 16 -21q-12 -80 -52 -405l-89 42l26 8q29 226 41 313h-657v1h-20l38 317q4 31 1 48q46 -10 71 -7q-25 -211 -36 -296h241v383q-139 0 -379 -2l5 40l-10 22h871z" />
    <glyph glyph-name="uni4E11" unicode="&#x4e11;" 
d="M948 68l-14 -65h-879v65h295q1 19 24 297h-215v60h220l17 208q2 24 2 54h-239v60h621q20 0 20 -23v-656h148zM447 425h284v262h-262zM419 68h312v297h-288z" />
    <glyph glyph-name="uni4E13" unicode="&#x4e13;" 
d="M925 435q-162 1 -529 1l-33 -126h418q18 0 23 -13t-7 -24q-95 -92 -253 -229l209 -85l-32 -59l-483 198l33 56l208 -84q120 109 194 180h-326v-1h-70l49 186q-173 0 -255 -1l5 40l-10 22h276q9 37 19 73l16 60q-83 0 -231 -2l5 40l-9 20h250l18 68q13 48 13 73
q43 -15 73 -12l-34 -129h377l-10 -59q-243 2 -382 1q-15 -55 -35 -133h525z" />
    <glyph glyph-name="uni4E14" unicode="&#x4e14;" 
d="M928 63l-13 -64q-377 4 -860 -1l4 41l-10 24h175v634q0 54 -6 85q26 -9 32 -10h476q21 0 21 -25v-684h181zM676 707q-125 2 -383 0v-171h383v171zM293 306h383v169q-188 2 -383 0v-169zM676 63v182q-124 2 -383 0v-182h383z" />
    <glyph glyph-name="uni4E15" unicode="&#x4e15;" 
d="M444 547q-166 -193 -356 -390l-21 35l-28 5q236 254 450 515q-283 0 -413 -2l5 41l-10 23h812l-12 -63q-90 1 -288 1q-64 -78 -97 -116q9 -1 24 -1v-529h-66v481zM639 525l263 -243l-45 -51l-263 246zM71 58h813l-12 -63q-421 3 -796 -1l5 41z" />
    <glyph glyph-name="uni4E16" unicode="&#x4e16;" 
d="M409 190v285q-54 -1 -162 -1v-428h674l-11 -63h-731v490l-144 -1l5 43l-10 25h149v151q0 57 -6 88q47 -17 74 -14v-225h162v217q0 51 -6 71q46 -14 70 -11v-277h204v224q0 51 -5 72q46 -14 70 -11v-285h218l-14 -66l-204 1v-285h-333zM473 475v-223h204v223h-204z" />
    <glyph glyph-name="uni4E18" unicode="&#x4e18;" 
d="M947 66l-13 -65q-364 3 -881 -1l5 42l-11 24h174v571q0 55 -6 78q20 -7 42 -11l514 133l32 -59q-458 -112 -512 -126v-185h577l-10 -64q-65 1 -206 1v-338h295zM291 66h291v318q0 14 -1 20q-104 0 -290 -2v-336z" />
    <glyph glyph-name="uni4E19" unicode="&#x4e19;" 
d="M517 719v-144h318q17 0 17 -19v-637l-89 49l19 7v534h-271q-115 -242 -216 -436l-41 6l-38 -16q134 255 219 446h-254v-582h-68v586q0 47 -6 74q33 -11 51 -12h288v144h-359v64h797l-13 -64h-354zM530 375l200 -235l-52 -43l-199 237z" />
    <glyph glyph-name="uni4E1A" unicode="&#x4e1a;" 
d="M910 44l-13 -64q-371 4 -846 -1l4 41l-10 24h284v673q0 59 -7 88q47 -17 75 -14v-747h156v687q0 64 -6 90q50 -18 75 -15v-762h288zM658 244h-25q131 217 206 357l61 -30q-88 -162 -209 -351zM240 199l-182 369l62 29l183 -365z" />
    <glyph glyph-name="uni4E1B" unicode="&#x4e1b;" 
d="M424 92q134 336 278 742l68 -11q-116 -314 -107 -291l2 1l274 -414l-28 -5l-26 -40q-207 316 -251 382q-81 -218 -161 -404l-27 38zM90 94l-22 2q134 351 263 734l68 -10q-74 -213 -95 -271l14 9l166 -233l-55 -39l-145 205q-83 -232 -167 -435zM950 37l-14 -63
q-360 3 -874 -1l5 41l-10 23h893z" />
    <glyph glyph-name="uni4E1C" unicode="&#x4e1c;" 
d="M555 319v-409l-105 53l35 6v350h-294q-49 0 -26 47q53 112 135 272l-113 -1q-73 0 -110 -1l5 41l-10 23h259q36 71 75 150l72 -11q-33 -69 -68 -139h514l-13 -63q-221 3 -531 1l-130 -255h235v204h70v-204h325l-13 -64h-312zM699 264l222 -246l-46 -52l-222 249zM83 -7
q139 150 232 265l46 -51q-110 -135 -234 -260l-21 36z" />
    <glyph glyph-name="uni4E1D" unicode="&#x4e1d;" 
d="M522 453q-23 0 -29 14q-6 12 5 31q40 68 105 169q80 123 110 172l70 -19q-77 -126 -196 -309h162l99 138l67 -27q-176 -247 -289 -397h296l-13 -62h-353q-25 0 -31 16t8 35l174 239h-185zM122 448q-22 0 -28 13t5 31q40 68 102 168q79 127 106 172l70 -16
q-56 -93 -189 -305h161l110 152l64 -28q-141 -197 -301 -410h256l-12 -63h-314q-25 0 -31 16t8 35q117 157 174 235h-181zM956 43l-13 -62q-469 3 -888 -1l5 40l-10 23h906z" />
    <glyph glyph-name="uni4E1E" unicode="&#x4e1e;" 
d="M480 581q112 79 190 137h-506v60h626q19 0 24 -15q4 -15 -9 -24q-140 -102 -272 -192v-59l24 26l101 -90q130 98 202 159l42 -47q-77 -64 -199 -153l257 -230l-25 -12l-16 -42l-386 350v-406l-93 49l26 4v485h14zM74 128q120 144 276 362h-247l4 39l-4 18h322
q16 0 21 -11t-4 -24q-183 -255 -322 -419l-21 27zM72 38h875l-13 -60h-862v60z" />
    <glyph glyph-name="uni4E22" unicode="&#x4e22;" 
d="M926 283q-315 2 -496 1q-144 -195 -185 -248h458l-126 180l60 30l213 -300l-60 -34l-43 62h-576q-24 0 -30 15q-6 14 7 32q36 50 97 132q68 90 98 131q-105 0 -289 -2l4 41l-10 23h402v148q-114 0 -312 -2l5 41l-10 21h317v157q-163 -21 -275 -31l-3 35l-15 19
q303 33 633 91l16 -61q-160 -27 -288 -44v-166h330l-11 -61q-99 1 -319 1v-148h421z" />
    <glyph glyph-name="uni4E24" unicode="&#x4e24;" 
d="M896 714q-79 1 -249 1v-143h194v-1h12q16 0 16 -17v-641l-84 40l17 8v550q-53 1 -166 1l-47 -189l23 17l160 -201l-49 -38q-117 148 -143 182q-42 -168 -57 -231l-38 4l-32 -21q73 282 115 477h-158l-50 -170l16 10l111 -165l-52 -34l-90 137q-11 -35 -72 -240l-38 4
l-32 -20q74 235 140 477q-113 0 -167 -1v-595h-63v595q0 47 -6 74q32 -11 48 -12h189v143l-135 -1q-88 0 -131 -1l5 39l-10 23h835zM580 572v143h-171v-143h171z" />
    <glyph glyph-name="uni4E25" unicode="&#x4e25;" 
d="M935 399l-12 -61q-297 3 -729 -1l-87 -414l-40 4l-31 -23q56 250 102 496l226 -1v303q-91 0 -253 -2l4 40l-9 20h775l-11 -59q-76 1 -240 1v-303h305zM430 399h135v303h-135v-303zM679 458l115 215l60 -28l-121 -213zM268 432l-112 178l51 39l112 -177z" />
    <glyph glyph-name="uni4E27" unicode="&#x4e27;" 
d="M931 -39l-23 -13l-10 -48l-503 415l30 42q-46 -1 -137 -1v-328q110 48 239 106l12 -59l-367 -173l-1 42l-15 25l64 28v359l-84 -1q-55 0 -82 -1l5 41l-10 23h398v251q-121 0 -331 -2l5 40l-9 22h335v32q0 29 -5 51q46 -12 72 -9v-74h352l-11 -61q-106 1 -341 1v-251h399
l-13 -63l-85 1l33 -50q-86 -69 -178 -131zM801 622q-62 -86 -168 -204l-26 31l-23 7q98 114 167 208zM353 464l-58 -34l-123 175l58 32zM447 357q21 -19 175 -143q102 72 189 142q-116 1 -364 1z" />
    <glyph glyph-name="uni4E28" unicode="&#x4e28;" 
d="M526 -76v896q-24 -5 -74 15q7 -34 7 -99v-812h67z" />
    <glyph glyph-name="uni4E2A" unicode="&#x4e2a;" 
d="M970 403l-24 -13l-14 -45l-452 352q-176 -182 -389 -376l-17 37l-22 12q261 245 477 479l81 -15q-27 -30 -83 -88zM525 534v-613h-69v554q0 45 -6 70q50 -14 75 -11z" />
    <glyph glyph-name="uni4E2B" unicode="&#x4e2b;" 
d="M529 467v-544h-73v539l-306 313l52 46l292 -297q55 55 314 309l60 -41z" />
    <glyph glyph-name="uni4E2C" unicode="&#x4e2c;" 
d="M632 826v-887h-67v437q-67 -65 -309 -296l-2 57l-18 24q307 282 329 303v279q0 65 -7 99q49 -19 74 -16zM470 471l-199 240l58 36l199 -238z" />
    <glyph glyph-name="uni4E2D" unicode="&#x4e2d;" 
d="M837 231h-316v-321h-68v321h-326l13 404l313 -2v104q0 67 -7 102q49 -21 75 -16v-190l293 -1q31 -1 31 -29q-4 -133 -8 -372zM453 296v278h-248v-278h248zM762 574h-241v-278h241v278z" />
    <glyph glyph-name="uni4E30" unicode="&#x4e30;" 
d="M942 231l-14 -65q-244 2 -392 2v-257h-68v257l-417 -3l4 42l-10 24h423v161q-113 0 -309 -2l5 42l-10 22h314v151l-357 -3l5 43l-10 23h362v75q0 67 -7 102q49 -21 75 -16v-161h339l-13 -65q-202 2 -326 2v-151h309l-11 -63q-93 1 -298 1v-161h406z" />
    <glyph glyph-name="uni4E32" unicode="&#x4e32;" 
d="M837 356q24 0 23 -22q-3 -90 -7 -252h-330v-177h-67v177h-328l12 277q152 -1 316 -1v106h-281l11 253q129 0 270 -1v29q0 67 -7 102q50 -21 74 -16v-115q122 -1 274 -1q22 0 22 -20q-4 -83 -7 -231h-289v-106zM456 522v141h-206v-141h206zM523 663v-141h216v141h-216z
M456 142v160h-249v-160h249zM777 302h-254v-160h254v160z" />
    <glyph glyph-name="uni4E34" unicode="&#x4e34;" 
d="M938 689l-7 -60q-191 3 -394 0q-54 -109 -113 -211l-27 27l-22 4q94 171 200 410l67 -11l-38 -81q-22 -48 -37 -78h371zM341 843v-910h-62v826q0 70 -6 99q46 -20 68 -15zM161 742v-658h-59v597q0 51 -5 73q42 -15 64 -12zM769 433l-51 -35l-146 192l51 33zM892 359
q-3 -131 -7 -371h-464l11 400q365 -2 434 -3q26 0 26 -26zM488 52h137v276h-137v-276zM821 328h-140v-276h140v276z" />
    <glyph glyph-name="uni4E36" unicode="&#x4e36;" 
d="M324 528l279 -294l55 49l-279 291z" />
    <glyph glyph-name="uni4E38" unicode="&#x4e38;" 
d="M902 42q42 0 67 13l-23 -80h-258q-50 0 -47 50q6 144 15 539h-223l-65 -250q103 -59 205 -119l-32 -60q-96 56 -190 112l-87 -327l-39 3l-35 -24q70 261 102 383l-164 96l32 57q80 -47 149 -86q30 116 54 214h-251l7 42l-11 22h271q18 70 52 210h73q-19 -70 -55 -210h255
q22 0 22 -23q-6 -108 -16 -562h192z" />
    <glyph glyph-name="uni4E39" unicode="&#x4e39;" 
d="M950 309l-210 1v-393l-93 44l21 8v341q-243 0 -364 -1l-41 -370l-40 1l-32 -27l44 396l-96 -1q-63 0 -94 -1l5 42l-11 24h203l43 412h438q17 0 17 -19v-393h223zM668 373v348q-158 2 -319 0l-38 -348h357zM621 469l-44 -46l-185 193l45 44z" />
    <glyph glyph-name="uni4E3A" unicode="&#x4e3a;" 
d="M809 577q18 0 16 -20q-11 -128 -54 -654l-89 43l24 7q37 458 46 560q-91 2 -288 2q-138 -302 -279 -589l-43 5l-40 -19q158 322 285 603l-296 -3l4 42l-9 23h330l119 271h80l-122 -271h316zM324 596l-149 170l49 45l149 -167zM521 357l156 -156l-47 -51l-156 158z" />
    <glyph glyph-name="uni4E3B" unicode="&#x4e3b;" 
d="M941 54l-13 -64q-383 4 -874 -1l4 42l-10 23h406v251q-111 0 -301 -2l5 43l-10 22h306v209q-124 0 -340 -2l5 41l-10 23h399l-112 172l55 40l113 -171l-54 -41h358l-11 -63q-104 1 -334 1v-209h328l-11 -64q-98 1 -317 1v-251h418z" />
    <glyph glyph-name="uni4E3D" unicode="&#x4e3d;" 
d="M953 772l-13 -59q-364 3 -884 -1l4 38l-9 22h902zM849 613q16 0 16 -17v-684l-82 39l17 8v595q-98 2 -200 0v-631h-61v622q0 48 -6 76l26 -8h290zM425 610q15 0 15 -17v-677l-79 39l17 7v589h-182v-632h-58v623q0 48 -6 76l25 -8h268zM375 251l-43 -43l-133 179l43 41z
M645 422l137 -158l-43 -43l-136 159z" />
    <glyph glyph-name="uni4E3E" unicode="&#x4e3e;" 
d="M501 625l-81 207l59 29l83 -205zM822 810l-150 -206l-57 25l144 207zM297 613l-108 173l56 36l108 -171zM960 277l-21 -14l-10 -45l-373 317l8 11h-141q-154 -165 -344 -337l-16 35l-25 7q147 138 295 294q-170 0 -250 -1l5 38l-10 22h844l-12 -59q-85 1 -269 1zM525 165
h344l-11 -60q-103 1 -333 1v-194h-66v194q-129 0 -351 -2l5 40l-9 21h355v124l-98 -1q-64 0 -95 -1l5 40l-8 19h196v61q0 45 -5 64q43 -13 71 -11v-114h198l-7 -58l-191 1v-124z" />
    <glyph glyph-name="uni4E3F" unicode="&#x4e3f;" 
d="M567 817q-114 -461 -231 -883l37 24l43 -4q51 188 119 446l110 417h-78z" />
    <glyph glyph-name="uni4E43" unicode="&#x4e43;" 
d="M856 455q20 0 17 -22q-12 -118 -49 -515l-94 45l26 8l41 418h-248q26 78 99 314q-75 1 -237 1q-219 -655 -256 -759l-42 4l-36 -23q124 352 259 778l-114 -1q-74 0 -110 -1l5 44l-10 22h610q25 0 18 -27l-93 -286h214z" />
    <glyph glyph-name="uni4E45" unicode="&#x4e45;" 
d="M965 -24l-26 -11l-17 -45q-394 356 -419 378q-168 -194 -367 -397l-19 41l-24 16q261 267 555 629q-191 2 -341 -1q-78 -116 -194 -275l-30 27l-29 -1q177 250 334 509l80 -12q-64 -104 -115 -179h388q20 0 27 -13q7 -14 -5 -29q-120 -151 -216 -264z" />
    <glyph glyph-name="uni4E47" unicode="&#x4e47;" 
d="M896 26q36 0 59 15l-17 -82h-442q-72 0 -72 69v306l-336 -43l1 45l-11 23l346 42v272q-113 -15 -245 -28l-6 39l-17 19q315 37 627 93l21 -66q-158 -27 -310 -48v-273q195 24 390 47l-6 -69q-183 -20 -384 -44v-317h402z" />
    <glyph glyph-name="uni4E48" unicode="&#x4e48;" 
d="M528 788q-209 -243 -446 -473l-30 29l-28 4q253 256 445 481zM843 -82l-51 81h-623q-32 0 -38 22t16 44q208 206 580 610l66 -43q-239 -254 -536 -564h491l-141 224l63 34l238 -370z" />
    <glyph glyph-name="uni4E49" unicode="&#x4e49;" 
d="M508 549l-153 238l58 36l154 -235zM922 -36l-29 -12l-13 -52q-196 195 -392 388q-155 -177 -349 -381l-34 27h-35q183 197 366 407l-304 301l53 44l297 -291q154 178 313 372l63 -40q-161 -199 -322 -385z" />
    <glyph glyph-name="uni4E4B" unicode="&#x4e4b;" 
d="M519 622l-123 175l56 43l123 -173zM978 6l-24 -42v-30q-502 126 -711 185q-63 -63 -145 -155l-61 53q32 34 77 80q56 56 73 74q23 23 61 13l73 -19q220 194 392 377q-326 2 -581 -1l5 43l-10 23h690q21 0 27 -15t-8 -29q-196 -208 -432 -419q270 -68 574 -138z" />
    <glyph glyph-name="uni4E4C" unicode="&#x4e4c;" 
d="M846 365q17 0 15 -19l-35 -428l-86 40l21 6q21 252 29 340h-583l18 372q1 36 -3 56l30 -7h107l52 130l68 -12q-36 -79 -53 -118h281q16 0 16 -17q-7 -85 -24 -314l-79 36l19 6l18 230q-182 2 -368 0q-1 -34 -7 -150l-7 -152h520v1h51zM55 175h667l-9 -59q-270 3 -654 -1
l5 40z" />
    <glyph glyph-name="uni4E4D" unicode="&#x4e4d;" 
d="M921 618q-219 2 -463 0v-156h397l-6 -60q-214 2 -391 -1v-160h424l-7 -61q-228 2 -417 -1v-258h-69v655q0 30 -1 42l-80 -1q-84 -119 -207 -279l-27 31h-27q165 221 331 475l77 -12q-68 -102 -103 -152h579z" />
    <glyph glyph-name="uni4E4E" unicode="&#x4e4e;" 
d="M961 358l-14 -65q-258 2 -416 2v-382l-113 58l44 4v320l-417 -3l5 42l-11 24h423v355q-137 -16 -297 -28l-3 38l-16 20q309 28 642 82l19 -66q-153 -23 -276 -38v-363h430zM794 679l63 -28l-175 -258l-56 26zM381 430l-56 -35l-165 216l56 33z" />
    <glyph glyph-name="uni4E4F" unicode="&#x4e4f;" 
d="M172 707l-15 20q318 26 650 77l17 -64q-317 -48 -649 -70zM942 -41l4 -29q-483 100 -675 143l-159 -127l-39 63q77 62 156 115q19 15 47 11q263 176 404 291h-511l4 41l-4 20h349q-9 18 -82 156l64 21l87 -164q-18 -7 -36 -13h246q20 0 24 -15q5 -15 -9 -26
q-193 -152 -456 -327q327 -67 611 -119z" />
    <glyph glyph-name="uni4E50" unicode="&#x4e50;" 
d="M550 339v-430l-109 54l39 5v371h-312l47 330q5 32 2 50q26 -6 47 -8q53 14 491 124l40 -59q-487 -116 -514 -123q-16 -104 -36 -248h235v235h70v-235h355l-14 -66h-341zM936 -1l-51 -46l-234 290l52 43zM271 235l45 -41l-169 -251l-20 40l-24 14z" />
    <glyph glyph-name="uni4E52" unicode="&#x4e52;" 
d="M944 262l-13 -62q-472 3 -892 -1l4 40l-10 23h185v444q0 43 -5 63l26 -7l501 77l20 -63l-476 -66v-156h588l-9 -61l-218 1v-232h299zM579 262v232q-105 0 -295 -2v-230h295zM87 -36q155 106 311 226l33 -61q-159 -125 -310 -221l-14 41z" />
    <glyph glyph-name="uni4E53" unicode="&#x4e53;" 
d="M939 262l-14 -63q-385 4 -878 -1l5 41l-11 23h181v436q0 36 -5 61q15 -4 26 -6q26 4 482 89l21 -62q-385 -66 -458 -78v-148h578l-10 -62q-66 1 -210 1v-231h293zM578 262v231q-197 0 -290 -1v-230h290zM578 180l280 -213l-43 -55l-281 215z" />
    <glyph glyph-name="uni4E54" unicode="&#x4e54;" 
d="M950 276l-21 -15l-10 -44l-370 286l1 2h-179q-111 -135 -253 -291l-14 39l-19 11q104 119 204 240q-149 0 -219 -1l4 40l-9 23h273q48 59 127 161q-166 -12 -291 -17l-4 35l-14 19q311 18 622 57l16 -61q-164 -18 -238 -25q-44 -57 -134 -169h476l-12 -62q-74 1 -235 1z
M633 357v-434h-66v392q0 31 -5 51q44 -11 71 -9zM201 -81q86 215 157 425h72q-88 -243 -155 -412l-40 5z" />
    <glyph glyph-name="uni4E56" unicode="&#x4e56;" 
d="M535 536v-631h-66v631h-389v60h389v79q0 27 -2 57q-123 -13 -278 -25l-5 34l-14 18q313 28 605 73l15 -59q-124 -19 -255 -33v-144h389l-13 -60h-376zM905 115q28 0 47 12l-14 -68h-244q-56 0 -56 54v406q29 -13 60 -11v-179q103 64 188 121l27 -53q-89 -61 -215 -135
v-147h207zM363 501v-432h-60v83q-51 -19 -235 -90l1 42l-12 24q205 73 246 87v112h-199v60h199v72q0 35 -5 51q41 -11 65 -9z" />
    <glyph glyph-name="uni4E58" unicode="&#x4e58;" 
d="M957 19l-21 -15l-7 -41l-402 243v-300h-66v294q-209 -151 -378 -254l-15 34l-21 11q169 111 322 221h-56v91l-216 -103l-1 35l-13 20q198 90 230 104v72h-199v53h199v34q0 27 -4 40q38 -9 61 -7v-339q55 41 91 66v305h-381v57h381v43q0 50 -2 66q-150 -12 -270 -17l-4 32
l-13 17q300 18 602 57l13 -56q-130 -16 -260 -27v-115h399l-13 -57h-386v-308zM615 558q25 -12 55 -10v-151q97 64 183 127l26 -48q-90 -67 -209 -141v-46h209q26 0 45 12l-13 -64h-244q-52 0 -52 50v271z" />
    <glyph glyph-name="uni4E59" unicode="&#x4e59;" 
d="M856 33q55 0 94 12l-25 -75h-763q-39 0 -48 27q-10 26 15 55q192 226 527 631q-311 2 -553 -1l4 42l-9 22h652q21 0 26 -14q5 -13 -9 -29q-279 -313 -559 -670h648z" />
    <glyph glyph-name="uni4E5C" unicode="&#x4e5c;" 
d="M893 19q39 0 66 17l-18 -81h-587q-79 0 -79 75v553h-190l8 41l-12 23h194v175q34 -16 67 -14v-161h418q16 0 16 -17v-491l-119 40l52 8v396h-367v-564h551z" />
    <glyph glyph-name="uni4E5D" unicode="&#x4e5d;" 
d="M904 46q41 0 69 14l-23 -82h-279q-50 0 -47 51l34 506h-236q-132 -370 -218 -599l-41 4l-37 -21q112 300 223 616h-275l7 41l-11 22h301l82 242h77l-86 -242h269q21 -2 20 -23l-38 -529h209z" />
    <glyph glyph-name="uni4E5E" unicode="&#x4e5e;" 
d="M859 633q-234 3 -572 -1q-94 -131 -166 -224l-28 23h-26q141 191 283 409l71 -11q-29 -45 -89 -133h537zM858 23q44 0 77 11l-23 -73h-645q-34 0 -41 25q-7 24 15 46q160 162 375 393q-220 2 -388 -1l6 43l-9 20h496q18 0 22 -13q4 -12 -9 -25q-238 -235 -405 -426h529z
" />
    <glyph glyph-name="uni4E5F" unicode="&#x4e5f;" 
d="M889 7q40 0 68 17l-17 -79h-684q-76 0 -76 72v551h-93l7 42l-13 24h99v95q33 -15 66 -13v-82h198v115q0 50 -6 80q48 -16 74 -13v-182h257q17 0 17 -17v-454l-114 40l47 8v357h-207v-460h-68v460h-198v-561h643z" />
    <glyph glyph-name="uni4E60" unicode="&#x4e60;" 
d="M797 769q17 0 17 -19v-846l-95 44l22 9v745q-284 3 -601 -2l5 45l-10 24h662zM521 420l-49 -52l-225 218l49 49zM676 432l27 -55l-568 -387l-6 46l-22 20z" />
    <glyph glyph-name="uni4E61" unicode="&#x4e61;" 
d="M941 465q-338 -287 -738 -577l-22 33l-31 8q174 129 388 298h-323q-29 0 -35 21q-5 21 16 39q101 84 196 171h-261q-25 0 -31 17q-6 16 10 33q89 94 291 325l64 -32q-116 -130 -258 -286h247l238 225l61 -40l-443 -409h307q111 89 275 227z" />
    <glyph glyph-name="uni4E66" unicode="&#x4e66;" 
d="M841 370q18 0 16 -18q-6 -110 -18 -362l-83 39l18 6l14 271q-108 2 -344 2v-386h-67v386l-307 -3l4 42l-9 23h312v214q-169 0 -248 -1l5 41l-9 20h252v107q0 66 -7 101q49 -19 74 -16v-192h276q17 0 17 -17v-257h104zM848 613l-180 156l44 46l179 -154zM672 370v213
q-72 1 -228 1v-214h228z" />
    <glyph glyph-name="uni4E69" unicode="&#x4e69;" 
d="M316 639h273l-6 -64q-83 2 -267 0v-208l176 -2q25 0 25 -26q-4 -128 -7 -358h-423l10 387q71 0 153 -1v412q0 40 -5 57q48 -13 71 -10v-187zM916 15q31 0 53 15l-16 -78h-257q-67 0 -67 64v813q34 -16 68 -13v-801h219zM442 312h-285v-272h285v272z" />
    <glyph glyph-name="uni4E70" unicode="&#x4e70;" 
d="M141 732l-9 22h743q13 0 17 -8q5 -8 -1 -18q-44 -74 -141 -225l-64 10q65 103 108 178q-352 3 -657 -1zM447 480l-163 148l46 40l162 -146zM908 299l-13 -63q-141 2 -457 2q-91 -155 -195 -323l-45 7l-40 -15q117 188 201 330q-111 0 -307 -2l5 41l-10 23h348
q109 185 204 362h80q-98 -180 -205 -362h434zM201 516l187 -140l-40 -50l-187 142zM564 201l308 -260l-50 -50l-308 262z" />
    <glyph glyph-name="uni4E71" unicode="&#x4e71;" 
d="M920 18q31 0 53 15l-16 -81h-269q-66 0 -66 64v810q30 -16 66 -14v-794h232zM339 535h218l-8 -64l-210 1v-154l143 -1q22 0 22 -22q-4 -118 -7 -336h-397l10 361q76 0 160 -1v153l-110 -1q-72 0 -107 -1l5 44l-9 21h221v162q-81 -17 -154 -30l-8 37l-17 19q199 39 418 95
l19 -62q-63 -16 -189 -44v-177zM429 262h-259v-241h259v241z" />
    <glyph glyph-name="uni4E73" unicode="&#x4e73;" 
d="M92 728l-14 19q231 35 479 90l16 -59q-274 -57 -474 -83zM912 7q30 0 50 14l-16 -77h-212q-64 0 -64 61v828q32 -15 64 -13v-813h178zM416 500q78 132 123 218l55 -22q-48 -92 -124 -212l-30 18zM288 691l57 21l52 -173l-59 -22zM98 648l54 29l85 -159l-55 -31zM624 212
l-276 -48v-251l-93 46l28 4v190q-116 -21 -239 -42l1 38l-15 23q129 22 253 42v94h14q99 72 151 115q-129 1 -371 -1l5 39l-8 19h487q18 0 23 -14q4 -13 -8 -23q-115 -88 -228 -168v-50l268 45z" />
    <glyph glyph-name="uni4E7E" unicode="&#x4e7e;" 
d="M453 502q87 148 182 346l67 -13q-58 -114 -76 -147h300l-6 -61q-159 3 -327 0q-39 -73 -93 -162l-26 31zM302 151h190l-7 -60q-57 1 -183 1v-179h-63v179q-136 0 -199 -1l5 40l-8 20h202v81h-146l10 347q64 0 135 -1v102q-125 0 -183 -1l5 38l-8 18h186v74q0 24 -4 35
q44 -7 67 -6v-103h181l-6 -56q-54 1 -175 1v-102l115 -1q21 0 21 -22q-3 -116 -6 -323h-129v-81zM157 530v-100h212v100h-212zM884 12q36 0 58 11l-18 -74h-387q-29 0 -37 19q-8 18 7 42q170 252 274 403q-150 2 -264 -1l5 42l-8 19h353q15 0 20 -10q4 -9 -4 -21
q-171 -245 -298 -430h299zM157 285h212v96q-70 1 -212 -1v-95z" />
    <glyph glyph-name="uni4E86" unicode="&#x4e86;" 
d="M833 773q20 0 25 -15t-8 -27q-143 -132 -322 -282v-532l-122 70l52 1v501h16q160 141 246 221q-276 1 -598 -2l5 43l-9 22h715z" />
    <glyph glyph-name="uni4E88" unicode="&#x4e88;" 
d="M866 439q26 0 16 -25q-15 -35 -38 -97l-40 -103l-64 14q23 59 54 149q-87 1 -275 1v-472l-109 49l38 3v420q-139 0 -377 -2l4 41l-9 22h439l-197 152l45 47l128 -97q117 103 189 169q-278 2 -494 -1l5 41l-9 20h605q19 0 24 -14q5 -13 -7 -24q-93 -88 -265 -228l62 -47
l-16 -18h291z" />
    <glyph glyph-name="uni4E89" unicode="&#x4e89;" 
d="M951 411l-4 -61q-41 1 -138 1v-184h-298v-250l-116 70l49 5v175h-290l4 39l-4 18h290v128q-145 0 -393 -2l5 37l-9 20h397v121q-157 0 -230 -1l5 38l-8 19h324q27 37 85 120q-176 2 -315 -1q-94 -113 -189 -215l-16 39l-19 11q138 153 258 314l65 -22q-18 -24 -54 -70
h351q13 0 17 -9t-2 -18q-15 -23 -107 -149h182q18 0 18 -19v-154h142zM511 407h232v120q-73 1 -232 1v-121zM743 224v127q-74 1 -232 1v-128h232z" />
    <glyph glyph-name="uni4E8B" unicode="&#x4e8b;" 
d="M949 274l-3 -57q-60 2 -127 0v-136h-42v-1h-267v-173l-102 46l38 6v121h-322l5 35l-5 17h322v88q-140 1 -396 -1l5 33l-8 18h399v80l-164 -1q-107 0 -159 -1l5 33l-8 17h326v70h-258l10 164h248v69q-130 0 -356 -2l5 34l-9 18h360v87h64v-87h392l-10 -51q-119 1 -382 1
v-70h267q16 0 15 -14q-3 -56 -6 -149h-276v-70h292q17 0 17 -16v-108h130zM446 518v68h-190v-68h190zM510 586v-68h211v68h-211zM510 270h245v79l-245 1v-80zM510 132h245v87q-78 1 -245 1v-88z" />
    <glyph glyph-name="uni4E8C" unicode="&#x4e8c;" 
d="M189 616q302 4 639 1l11 65h-655l10 -23zM74 54q456 5 854 2l14 66h-874l11 -24z" />
    <glyph glyph-name="uni4E8D" unicode="&#x4e8d;" 
d="M174 730l-9 21h662l-10 -61q-318 3 -648 0zM950 489l-14 -64q-126 1 -406 1v-518l-116 48l45 7v463q-144 0 -396 -2l5 41l-10 24h892z" />
    <glyph glyph-name="uni4E8E" unicode="&#x4e8e;" 
d="M938 447l-13 -65q-252 2 -404 2v-464l-117 58l46 6v400l-393 -3l5 42l-10 24h398v270q-105 0 -287 -2l5 42l-9 21h664l-10 -62q-91 1 -292 1v-270h417z" />
    <glyph glyph-name="uni4E8F" unicode="&#x4e8f;" 
d="M170 752l-9 21h625l-10 -60q-338 2 -610 -1zM914 490q-355 2 -558 1l-31 -171h424v-1h7q18 0 16 -18q-9 -84 -39 -385l-87 39l22 7l31 296h-386v-2h-69q42 232 43 235l-114 -1q-73 0 -110 -1l4 41l-10 23h869z" />
    <glyph glyph-name="uni4E91" unicode="&#x4e91;" 
d="M187 737l-9 21h624l-10 -62q-322 3 -610 -1zM941 430q-268 2 -433 2q-93 -130 -249 -338h451l-119 214l62 30l208 -368l-63 -33l-49 88h-558v1h-11q-25 0 -32 16q-6 15 8 35q50 70 129 176q93 126 131 179l-357 -3l4 41l-10 23h901z" />
    <glyph glyph-name="uni4E92" unicode="&#x4e92;" 
d="M957 61l-13 -61q-390 4 -889 -1l5 40l-10 22h598l18 152h-438l67 453q2 11 4 33l-194 -1l5 40l-10 21h807l-12 -60q-160 1 -521 1l-23 -152h404q23 0 20 -26q-8 -67 -25 -223q-16 -152 -27 -238h234zM673 277q17 149 22 208q-114 2 -353 0q-24 -155 -31 -208h362z" />
    <glyph glyph-name="uni4E93" unicode="&#x4e93;" 
d="M196 730l-9 21h618l-10 -62q-249 3 -604 -1zM925 426q-39 1 -117 1l-122 1v-512h-69v512q-144 0 -216 -1l-77 -239l-84 -254l-44 5l-35 -22q97 283 165 510q-94 0 -258 -2l5 43l-11 25h877z" />
    <glyph glyph-name="uni4E94" unicode="&#x4e94;" 
d="M945 66l-13 -62q-462 3 -874 -1l4 40l-10 23h252q11 73 51 357q-138 0 -203 -1l5 41l-9 21h216l23 159q4 21 6 52q-101 0 -279 -2l4 41l-9 22h765l-12 -62q-253 2 -399 1l-30 -211h306q18 0 18 -19v-399h188zM691 66v356q-171 2 -267 1l-51 -357h318z" />
    <glyph glyph-name="uni4E95" unicode="&#x4e95;" 
d="M945 265q-81 1 -254 1v-350h-67v350h-279q-11 -148 -27 -336h-38l-32 -27l29 362l-216 -1l5 41l-11 24h227l18 224l-179 -1l5 41l-10 22h188q12 144 17 215h70l-18 -215h251v134q0 67 -7 102q50 -21 74 -16v-220h202l-12 -62q-60 1 -190 1v-225h268zM624 329v225h-256
l-18 -225h274z" />
    <glyph glyph-name="uni4E98" unicode="&#x4e98;" 
d="M120 758l-10 20h745l-10 -59q-386 3 -730 -1zM194 613l559 -4q32 0 32 -31q-4 -146 -8 -410h-596zM259 553v-133h444v133h-444zM703 230v138q-247 2 -444 -1v-137h444zM911 38l-12 -61q-439 3 -831 -1l5 40l-10 22h848z" />
    <glyph glyph-name="uni4E9A" unicode="&#x4e9a;" 
d="M929 70l-13 -63q-352 3 -852 -1l4 40l-10 24h288v588q0 34 -1 47l-120 -1q-77 0 -115 -1l5 40l-10 23h783l-12 -62q-72 1 -228 1v-635h281zM414 70h165v590q0 33 -1 45h-164v-635zM658 236q121 182 201 323l59 -36q-92 -159 -204 -319l-32 27zM322 232l-62 -33l-162 300
l61 30z" />
    <glyph glyph-name="uni4E9B" unicode="&#x4e9b;" 
d="M923 347q30 0 52 14l-15 -74h-331q-61 0 -61 59v497q31 -14 62 -11v-253q143 103 219 165l35 -55q-113 -91 -254 -185v-157h293zM63 227v40l-15 24l106 31v368q0 28 -5 50q40 -11 65 -9v-392q55 15 110 32v405q0 31 -5 53q42 -11 67 -9v-184h154l-12 -59h-142v-188
q54 15 133 38l9 -58zM225 211h544l-13 -56h-531v56zM87 26h825l-13 -61h-812v61z" />
    <glyph glyph-name="uni4E9F" unicode="&#x4e9f;" 
d="M157 798h548v1h69q19 0 23 -14q5 -15 -8 -24q-150 -112 -269 -191v-500l-93 47l31 2v485h15q159 116 188 138q-283 2 -501 -1l5 38zM364 216h-247l8 367l227 -2q18 -1 18 -21q-3 -122 -6 -344zM599 580h285q14 0 18 -9q4 -8 -3 -20q-100 -156 -140 -216l159 -153l-40 -46
l-153 149q-40 -60 -118 -167l-27 20l-25 3q69 94 129 184l-109 106l40 43l102 -99l50 77q33 51 50 76h-218l3 36zM309 530h-135v-257h135v257zM932 56l-12 -60q-453 3 -856 -1l5 39l-10 22h873z" />
    <glyph glyph-name="uni4EA0" unicode="&#x4ea0;" 
d="M397 769l134 -206l62 35l-134 204zM922 456l14 68h-864v-68h850z" />
    <glyph glyph-name="uni4EA1" unicode="&#x4ea1;" 
d="M602 644l-58 -42l-153 199l58 40zM930 536q-259 3 -621 1v-470h574l-13 -64h-630v534l-94 -1q-61 0 -91 -1l4 42l-10 25h894z" />
    <glyph glyph-name="uni4EA2" unicode="&#x4ea2;" 
d="M495 663l-81 168l68 16l82 -166zM899 597q-430 3 -814 -1l5 41l-10 24h832zM907 33q43 0 72 17l-23 -87h-302q-28 0 -39 12t-11 44v397q-125 2 -254 0q-19 -68 -63 -232q-41 -154 -68 -251l-40 5l-32 -24q84 299 149 569h355q24 0 24 -23v-427h232z" />
    <glyph glyph-name="uni4EA4" unicode="&#x4ea4;" 
d="M90 684h400l-75 150l66 21l87 -171h349l-12 -61q-334 3 -811 -1l5 40zM101 376q150 119 284 240l40 -51q-130 -117 -284 -234l-18 35zM582 568l44 47l271 -212l-44 -49zM945 -29l-23 -14l-8 -46l-408 296q-201 -156 -411 -303l-22 32l-26 8q169 121 403 303l-169 123
l41 47l180 -129q89 70 182 146l46 -49q-95 -78 -171 -137z" />
    <glyph glyph-name="uni4EA5" unicode="&#x4ea5;" 
d="M938 699l-12 -60q-307 2 -485 1q-87 -94 -173 -184h246l210 140l40 -50q-333 -225 -679 -427l-18 31l-24 10q176 105 379 236h-235q-23 0 -29 15q-5 14 9 29q112 119 184 200q-102 0 -282 -2l5 39l-10 22h413q-18 50 -49 132l68 13q39 -104 55 -145h387zM874 393
q-101 -76 -263 -191q26 -19 307 -232l-46 -53l-319 244q-209 -145 -391 -263l-20 32l-28 9q343 227 716 505z" />
    <glyph glyph-name="uni4EA6" unicode="&#x4ea6;" 
d="M942 684l-13 -63q-89 1 -282 1v-709l-105 54l37 6v649h-126l-127 -694l-40 3l-32 -25q79 416 128 716q-115 0 -317 -2l5 41l-10 23h416l-55 146l69 17q56 -147 63 -163h389zM304 445l-217 -297l-24 35l-28 12l219 288zM721 459l203 -262l-51 -47l-203 265z" />
    <glyph glyph-name="uni4EA7" unicode="&#x4ea7;" 
d="M880 640h-751v59h354l-33 129l64 12l37 -141h341zM920 358h-696l-94 -438l-39 4l-31 -24q60 269 108 519l211 -1l-96 184l57 30l97 -183l-54 -31h206q72 122 118 213l62 -24q-47 -91 -107 -189h271z" />
    <glyph glyph-name="uni4EA8" unicode="&#x4ea8;" 
d="M918 731l-11 -56q-339 3 -821 -1l5 37l-9 20h397q-15 31 -50 110l70 10l55 -120h364zM751 606q16 0 16 -15q-3 -67 -6 -181h-535l9 198zM694 561h-399v-101h399v101zM821 320q22 0 26 -18q5 -17 -11 -25q-94 -50 -317 -153v-218l-109 47l40 2v204h15q138 66 218 107
q-267 1 -582 -2l5 37l-9 20h709v-1h15z" />
    <glyph glyph-name="uni4EA9" unicode="&#x4ea9;" 
d="M925 714l-13 -61q-339 3 -820 -1l5 39l-10 23h398l-58 133l68 14l66 -147h364zM788 547q40 -1 39 -39q-4 -182 -8 -508h-648l14 551zM253 490v-177h213v177h-213zM741 490h-208v-177h208v177zM253 63h213v191h-213v-191zM741 63v190q-66 1 -208 1v-191h208z" />
    <glyph glyph-name="uni4EAB" unicode="&#x4eab;" 
d="M93 719h375l-45 95l65 16q46 -96 54 -111h347l-11 -55q-322 3 -780 -1l4 37zM740 596q16 0 16 -15q-4 -64 -7 -170h-535l9 186zM685 553h-404v-94h404v94zM941 147l-11 -56q-129 1 -417 1v-194l-105 45l37 3v146l-391 -3l5 38l-9 20h395v36l-4 4q136 68 192 98
q-168 1 -483 -1l5 36l-8 18h619q20 0 25 -17q5 -16 -11 -25q-78 -44 -267 -136v-13h428z" />
    <glyph glyph-name="uni4EAC" unicode="&#x4eac;" 
d="M938 715l-13 -62q-400 3 -859 -2l5 41l-10 23h411l-41 118l69 14l47 -132h391zM521 284v-374l-111 53l42 6v315h-245l11 283l552 -2q22 0 21 -20q-3 -94 -7 -261h-263zM276 342h442v171h-442v-171zM327 238l35 -51l-254 -230l-12 42l-22 20zM672 236l239 -227l-43 -51
l-239 230z" />
    <glyph glyph-name="uni4EAD" unicode="&#x4ead;" 
d="M115 733h351l-42 86l69 12q35 -70 48 -98h342l-10 -56q-399 3 -754 -1l5 37zM236 611q430 -1 502 -2q15 0 14 -14q-3 -60 -6 -159h-519zM678 568h-381v-85h381v85zM879 364q16 0 16 -15v-187h-65v148q-360 3 -681 -1v-148h-62v181q0 19 -4 28q20 -4 46 -6h750zM210 215
h566l-8 -56q-78 1 -252 1v-257l-110 49l41 6v202q-86 0 -234 -2l5 39z" />
    <glyph glyph-name="uni4EAE" unicode="&#x4eae;" 
d="M119 730h353q-9 29 -33 100l68 11l38 -111h322l-10 -54q-302 3 -734 -1l5 36zM252 604q406 -1 473 -2q15 0 15 -13q-3 -59 -6 -154h-490zM666 560h-353v-77h353v77zM115 192v150q0 17 -4 25q16 -3 40 -5h708v-1h9q17 0 17 -15v-133h-69v93q-314 3 -637 0v-114h-64zM852 2
q43 0 74 16l-20 -73h-268q-42 0 -42 34v194q-138 2 -248 -1q-80 -174 -117 -247l-41 6l-34 -15q66 131 145 314h347q19 0 19 -19v-209h185z" />
    <glyph glyph-name="uni4EB2" unicode="&#x4eb2;" 
d="M941 491l-13 -59q-124 1 -401 1v-135h353l-11 -59q-106 1 -342 1v-325l-107 53l37 6v266q-124 0 -338 -2l5 39l-9 21h342v135q-144 0 -394 -2l5 38l-10 22h292q-16 26 -82 139l56 29l91 -153l-27 -15h175q67 114 99 177q-245 1 -524 -2l4 38l-9 20h338l-36 106l67 17
l42 -123h309l-10 -57q-57 1 -179 1q4 -1 58 -24q-48 -90 -88 -153h307zM344 226l37 -48l-241 -225l-14 41l-22 18zM653 212l232 -202l-43 -49l-232 205z" />
    <glyph glyph-name="uni4EB3" unicode="&#x4eb3;" 
d="M84 746h382l-37 89l68 14l43 -103h344l-11 -54q-324 3 -785 -1l5 36zM743 612q-3 -55 -6 -143h-522l9 158q433 -1 505 -2q15 0 14 -13zM669 585h-384v-71h384v71zM819 242v113q-276 3 -666 -1v-115h-64v149q0 16 -4 24l45 -5h738q16 0 16 -14v-151h-65zM866 -14
q35 0 56 13l-15 -66h-446q-60 0 -60 55v90q-172 -18 -344 -38l2 35l-9 17l351 37v90q-88 -8 -195 -13l-5 29l-13 16q251 16 524 52l12 -52q-131 -15 -256 -27v-88q205 21 411 43l-7 -53q-205 -20 -404 -41v-99h398z" />
    <glyph glyph-name="uni4EB5" unicode="&#x4eb5;" 
d="M75 756h384l-31 79l67 13l38 -92h364l-11 -55q-333 3 -807 -1l5 36zM914 -22l-20 -14l-6 -40l-439 307l-82 -49v-166l176 74l8 -51l-298 -131l-1 35l-13 20q42 18 63 26v154q-126 -73 -237 -133l-9 32l-20 14q285 166 387 234l23 -11q23 74 43 144l-67 40l-116 -30v-186
l-97 53l35 6v111q-83 -21 -166 -43v34l-12 21l178 44v82l-163 -1l5 37l-8 17h166v89h62v-89h116l-5 -54q-35 1 -111 1v-67l116 28l5 -47q6 10 26 38l51 -30q8 26 22 78h-85l6 38l-8 17h102l22 85h64q-4 -16 -12 -43q-10 -30 -13 -42h156q15 0 15 -16v-239h75q27 0 44 8
l-15 -65h-124q-40 0 -40 40v217h-126l-31 -109l137 -81l-31 -45l-122 72l-29 -101l-34 4l-29 -17l21 -10l8 14l167 -116q21 16 127 100l40 -44q-86 -65 -119 -89q111 -78 222 -155z" />
    <glyph glyph-name="uni4EBA" unicode="&#x4eba;" 
d="M962 -2l-29 -8l-22 -46q-419 473 -473 533q-141 -260 -296 -525l-44 6l-40 -17q260 448 483 885h81q-78 -152 -149 -282z" />
    <glyph glyph-name="uni4EBB" unicode="&#x4ebb;" 
d="M540 823q-87 -122 -150 -207l7 1v-705h-67v625q-109 -141 -214 -264l-16 42l-18 13q199 240 392 517z" />
    <glyph glyph-name="uni4EBF" unicode="&#x4ebf;" 
d="M267 558v-637h-65v586q-59 -88 -138 -200l-14 53l-14 15q147 211 298 458l61 -24q-86 -139 -158 -249q15 -4 30 -2zM862 28q49 0 79 13l-20 -74h-525q-32 0 -42 21t8 48q48 75 416 640q-228 2 -407 -1l5 44l-8 20h493q17 0 22 -11q4 -10 -5 -24q-232 -343 -444 -676h428z
" />
    <glyph glyph-name="uni4EC0" unicode="&#x4ec0;" 
d="M932 410q-81 1 -260 1v-495h-69v495q-98 0 -268 -2l5 45l-9 22h272v271q0 67 -7 102q51 -21 76 -16v-357h270zM281 571v-651h-67v589q-73 -100 -157 -209l-12 53l-14 16q167 219 331 472l63 -26q-105 -157 -166 -244q13 -2 22 0z" />
    <glyph glyph-name="uni4EC1" unicode="&#x4ec1;" 
d="M278 585v-666h-64v592q-56 -79 -142 -189l-13 51l-15 15q171 227 323 461l64 -25q-74 -112 -164 -240zM895 600q-203 3 -493 -1l5 43l-8 20h504zM961 95l-9 -63q-296 3 -604 0l5 42l-8 21h616z" />
    <glyph glyph-name="uni4EC2" unicode="&#x4ec2;" 
d="M863 605q16 0 16 -19l-38 -678l-87 41l22 7l33 586q-59 1 -186 1q-118 -493 -147 -608l-37 2l-34 -23q68 271 152 628q-101 0 -148 -1l5 43l-8 21h165q40 171 53 230h70l-28 -115q-18 -76 -28 -115h225zM425 806q-66 -99 -151 -218l10 1v-673h-65v596q-87 -117 -153 -200
l-12 51l-15 15q166 217 323 455z" />
    <glyph glyph-name="uni4EC3" unicode="&#x4ec3;" 
d="M262 607v-683h-65v600q-63 -93 -129 -187l-16 51l-16 14q152 218 292 450l64 -23q-57 -94 -140 -223zM952 735l-10 -66q-85 1 -276 1v-755l-106 54l36 6v695l-120 -1q-77 0 -115 -1l5 45l-9 22h595z" />
    <glyph glyph-name="uni4EC4" unicode="&#x4ec4;" 
d="M912 698q-313 3 -647 0q-16 -96 -58 -365q-38 -241 -64 -398l-39 2l-33 -25q57 339 134 849h718zM677 681q-197 -490 -306 -747l-43 5l-37 -20q182 422 309 762h77zM586 362l336 -394l-27 -9l-21 -42l-339 402z" />
    <glyph glyph-name="uni4EC5" unicode="&#x4ec5;" 
d="M267 619l13 1v-694h-67v615q-70 -100 -156 -214l-13 54l-14 17q150 201 313 453l62 -27zM963 -19l-26 -8l-21 -47q-135 177 -268 353q-106 -175 -223 -348l-38 16h-32q122 180 247 392l-194 256l58 34q95 -123 173 -226l164 280h-377l5 42l-5 21h452q16 0 22 -10
q6 -11 -1 -25q-148 -259 -213 -368q136 -179 277 -362z" />
    <glyph glyph-name="uni4EC6" unicode="&#x4ec6;" 
d="M902 259l-286 236v-577h-70v830q0 67 -7 102q51 -21 77 -16v-322q12 12 37 40l295 -241zM411 824q-68 -105 -145 -220q10 -1 18 0v-670h-66v600q-74 -107 -155 -216l-15 51l-16 15q159 217 315 464z" />
    <glyph glyph-name="uni4EC7" unicode="&#x4ec7;" 
d="M904 32q35 0 61 13l-22 -81h-210q-26 0 -37 11q-10 11 -10 39q1 39 2 233l1 280h-151q-72 -416 -103 -590l-39 1l-34 -25q70 393 107 614h-143l6 41l-9 20h156q31 182 41 247h72l-44 -247h189q22 0 22 -24q-1 -42 -3 -532h148zM260 584v-663h-65v593q-57 -86 -127 -186
l-15 54l-15 15q131 187 284 437l63 -24q-113 -180 -144 -226q10 -1 19 0z" />
    <glyph glyph-name="uni4EC9" unicode="&#x4ec9;" 
d="M272 607v-686h-63v618q-75 -102 -147 -195l-13 49l-14 15q160 212 317 452l62 -25q-82 -123 -157 -229q11 0 15 1zM910 32q37 0 61 15l-20 -82h-191q-28 0 -38 12q-11 12 -11 43v682q-96 2 -192 0q-23 -238 -71 -758l-38 1l-31 -26q54 569 78 850h301q22 -1 22 -25v-712
h130z" />
    <glyph glyph-name="uni4ECA" unicode="&#x4eca;" 
d="M975 398l-22 -15l-11 -48l-462 368q-199 -191 -409 -371l-14 38l-25 12q279 247 492 466l83 -19l-78 -78zM604 394l-50 -49l-147 168l50 46zM773 319q17 0 23 -11q5 -10 -4 -23q-131 -194 -272 -378l-58 32q125 170 222 318q-292 2 -493 -2l5 44l-9 20h586z" />
    <glyph glyph-name="uni4ECB" unicode="&#x4ecb;" 
d="M528 757q52 -39 447 -340l-24 -14l-13 -47q-416 319 -457 351q-180 -192 -391 -389l-20 32l-26 7q262 256 470 489l80 -16zM664 497v-574h-70v518q0 47 -5 67q50 -14 75 -11zM185 -83q88 333 140 574h75q-23 -95 -66 -267l-72 -289l-43 4z" />
    <glyph glyph-name="uni4ECD" unicode="&#x4ecd;" 
d="M269 604v-681h-64v605q-58 -92 -139 -208l-16 53l-14 15q146 214 292 457l61 -23q-107 -174 -136 -219q11 0 16 1zM882 451q18 0 16 -19l-42 -515l-85 40l22 6l35 423h-189q45 127 104 312h-195q-19 -129 -50 -361l-55 -397l-38 2l-32 -25q52 363 107 780q-73 0 -108 -1
l5 44l-8 20h438q24 0 17 -25l-48 -140q-32 -93 -49 -145z" />
    <glyph glyph-name="uni4ECE" unicode="&#x4ece;" 
d="M970 -20l-28 -5l-25 -42l-297 450q-89 -271 -165 -476l-36 20l-26 -1q148 421 299 916l71 -12q-73 -232 -115 -363q17 -27 322 -487zM278 428q-83 -254 -166 -478l-37 18l-27 -3q141 397 283 862l72 -11l-97 -306l176 -277l-54 -45z" />
    <glyph glyph-name="uni4ED1" unicode="&#x4ed1;" 
d="M957 464l-20 -17l-7 -49l-458 319q-187 -190 -400 -382l-13 38l-21 12q267 249 474 475l80 -17q-24 -26 -72 -76zM798 38q37 0 60 15l-16 -78h-500q-66 0 -66 64v462q31 -14 66 -12v-227q190 90 384 194l26 -60q-219 -116 -410 -201v-157h456z" />
    <glyph glyph-name="uni4ED3" unicode="&#x4ed3;" 
d="M944 423l-20 -15l-9 -47q-415 329 -444 353q-178 -179 -398 -376l-15 35l-25 8q271 250 475 465l77 -15q-46 -48 -70 -72q38 -29 429 -336zM829 13q37 0 62 15l-16 -81h-545q-68 0 -68 66v465l22 -8h389q18 0 16 -18q-8 -91 -22 -313l-85 38l19 6q10 149 16 225h-289
v-395h501z" />
    <glyph glyph-name="uni4ED4" unicode="&#x4ed4;" 
d="M272 563v-649h-64v592q-81 -110 -143 -190l-13 50l-14 14q155 207 319 456l62 -25q-90 -135 -170 -248q13 -1 23 0zM963 401l-10 -60q-89 1 -288 1v-437l-105 53l39 3v381l-125 -1q-81 0 -121 -1l5 41l-9 20h250v104h1q115 118 185 199q-131 1 -376 -1l5 40l-8 18h471
q16 0 20 -11q4 -10 -5 -20q-111 -123 -227 -238v-91h298z" />
    <glyph glyph-name="uni4ED5" unicode="&#x4ed5;" 
d="M299 570v-656h-67v588q-92 -128 -168 -227l-10 55l-12 17q170 230 340 495l60 -29q-82 -128 -162 -243q10 -1 19 0zM687 58h269l-9 -63q-280 3 -570 0l5 42l-9 21h245v375q-91 0 -247 -2l5 44l-10 22h252v252q0 57 -6 90q47 -19 75 -15v-327h275l-10 -65q-82 1 -265 1
v-375z" />
    <glyph glyph-name="uni4ED6" unicode="&#x4ed6;" 
d="M252 595v-679h-64v602q-63 -94 -120 -174l-14 50l-14 13q129 186 272 425l60 -25q-59 -95 -134 -213q10 0 14 1zM902 6q37 0 60 15l-16 -75h-490q-67 0 -67 64v553h-79l7 40l-10 21h82v77q29 -15 63 -13v-64h146v115q0 54 -6 77q45 -15 69 -12v-180h181q16 0 16 -16v-468
l-97 42l35 7v374h-135v-460h-63v460h-146v-557h450z" />
    <glyph glyph-name="uni4ED7" unicode="&#x4ed7;" 
d="M301 585v-665h-66v606q-89 -133 -168 -243l-12 54l-13 16q159 230 316 492l62 -27q-77 -128 -146 -232q14 -3 27 -1zM959 -13l-22 -13l-12 -48l-322 314q-36 -98 -108 -285l-41 4l-37 -21q74 190 133 354q-69 68 -164 160l50 41l139 -134q31 83 76 212q-95 0 -259 -2
l5 42l-9 21h285l72 207h76q-37 -105 -75 -207h198l-9 -62q-66 1 -211 1l-96 -264z" />
    <glyph glyph-name="uni4ED8" unicode="&#x4ed8;" 
d="M277 579v-657h-67v584q-54 -82 -126 -185l-19 43l-18 12q149 218 295 472l67 -20q-73 -123 -152 -249q11 -1 20 0zM935 549q-63 1 -200 1v-636l-118 59l48 5v572q-113 0 -303 -2l5 43l-9 21h307v224h70v-224h209zM435 455l176 -230l-53 -38l-176 232z" />
    <glyph glyph-name="uni4ED9" unicode="&#x4ed9;" 
d="M257 581v-657h-65v593q-43 -60 -121 -165l-14 52l-14 14q137 185 295 435l63 -26q-99 -153 -165 -246q13 -1 21 0zM881 624v-612h-503v549q0 44 -6 69q46 -14 69 -11v-542h159v678q0 59 -7 88q50 -17 73 -14v-752h150v488q0 45 -6 70q47 -14 71 -11z" />
    <glyph glyph-name="uni4EDD" unicode="&#x4edd;" 
d="M508 743l441 -341l-23 -13l-12 -45l-451 352q-164 -172 -381 -373l-19 31l-27 6q252 241 465 475l78 -15zM518 17h366l-12 -63q-408 3 -772 -1l5 41l-10 23h354v323q-80 0 -218 -2l5 42l-9 20h529l-8 -61q-72 1 -230 1v-323z" />
    <glyph glyph-name="uni4EDE" unicode="&#x4ede;" 
d="M276 595v-674h-63v600q-65 -100 -138 -205l-16 55l-15 15q151 220 293 458l63 -24q-87 -142 -140 -225q9 -1 16 0zM885 738q18 0 16 -19q-8 -154 -44 -805l-88 56l23 4l39 702q-45 1 -140 1q-146 -653 -163 -726l-39 3l-32 -23q96 412 165 746q-149 0 -217 -1l5 42l-8 20
h483zM516 507l-99 -241l-26 28l-24 6l101 232z" />
    <glyph glyph-name="uni4EDF" unicode="&#x4edf;" 
d="M266 582v-656h-65v579q-51 -74 -128 -181l-17 47l-17 12q154 218 306 465l65 -22q-80 -128 -157 -245q9 0 13 1zM962 409l-10 -63q-85 1 -274 1v-419h-69v419q-100 0 -274 -2l5 43l-9 21h278v247q0 31 -1 43q-128 -27 -213 -40l-7 36l-17 19q228 41 493 106l18 -61
q-68 -16 -204 -46v-304h284z" />
    <glyph glyph-name="uni4EE1" unicode="&#x4ee1;" 
d="M286 610v-685h-65v615q-72 -108 -158 -229l-12 53l-12 16q140 201 300 466l60 -27q-66 -106 -132 -209q10 -1 19 0zM931 628q-211 3 -433 0q-62 -101 -125 -195l-20 40l-19 9q105 163 214 363l66 -18q-27 -48 -79 -138h403zM874 23q36 0 64 11l-21 -73h-480q-31 0 -39 21
q-7 20 12 43q191 231 315 378q-176 2 -311 -1l5 43l-8 19h410q16 0 21 -11q4 -10 -6 -22q-199 -230 -345 -408h383z" />
    <glyph glyph-name="uni4EE3" unicode="&#x4ee3;" 
d="M894 -29q28 0 50 13l-25 -63h-236q-30 0 -42 10q-10 10 -15 39q-39 283 -62 462q-137 -23 -222 -39l2 46l-12 21l224 37l-46 348h55q22 0 26 -22l45 -312l267 44l-2 -68q-116 -17 -256 -41q50 -357 64 -475h185zM409 823q-58 -92 -143 -223l9 1v-684h-67v596
q-50 -74 -139 -196l-18 42l-18 11q160 227 311 473zM802 586l-144 173l57 30l144 -172z" />
    <glyph glyph-name="uni4EE4" unicode="&#x4ee4;" 
d="M971 414l-23 -13l-13 -46l-458 378q-189 -180 -415 -374l-13 37l-24 9q278 244 483 449l77 -16l-61 -60zM592 424l-50 -43l-153 164l50 42zM759 359q17 0 22 -12q5 -11 -5 -22q-108 -127 -252 -282l143 -82l-33 -57l-379 220l34 54l183 -105q129 147 197 228
q-232 1 -509 -2l5 41l-9 19h603z" />
    <glyph glyph-name="uni4EE5" unicode="&#x4ee5;" 
d="M903 -55l-270 312q-65 -145 -146 -320l-44 5l-39 -19q201 430 393 893h79q-171 -396 -215 -494q1 0 4 2l297 -341zM433 220l-352 -247l-8 46l-21 24q56 37 91 61v596q0 48 -6 76q49 -16 72 -13v-615l196 130zM499 507l-164 207l52 42l164 -204z" />
    <glyph glyph-name="uni4EE8" unicode="&#x4ee8;" 
d="M255 574v-654h-65v582q-44 -62 -121 -168l-14 53l-14 15q138 189 295 442l63 -26q-84 -132 -160 -244h16zM876 645q-205 3 -495 -1l5 42l-9 20h507zM856 350q-256 2 -464 -1l5 41l-9 20h476zM936 73l-10 -61q-247 3 -598 -1l5 41l-9 21h612z" />
    <glyph glyph-name="uni4EEA" unicode="&#x4eea;" 
d="M263 578v-661h-62v608q-64 -86 -151 -195l-10 54l-11 16q146 187 311 432l60 -29q-78 -113 -159 -225q12 -1 22 0zM621 567l-101 220l58 26l103 -218zM940 -51l-27 -5l-21 -41q-133 184 -265 368q-125 -187 -237 -344l-32 18l-29 -4q128 184 259 384q-112 154 -228 315
l53 30l211 -289q75 115 221 348l57 -26q-118 -193 -238 -376z" />
    <glyph glyph-name="uni4EEB" unicode="&#x4eeb;" 
d="M273 597v-676h-66v610q-67 -87 -150 -190l-12 50l-14 14q154 196 321 440l63 -28q-89 -127 -158 -220q9 -1 16 0zM709 804q-149 -234 -338 -485l-33 24h-27q203 281 337 493zM877 -66l-36 65h-450q-27 0 -33 17q-7 16 9 38q68 93 205 275q132 174 209 280l66 -31
q-132 -181 -385 -514h343l-98 176l58 29l172 -304z" />
    <glyph glyph-name="uni4EEC" unicode="&#x4eec;" 
d="M387 820q-110 -163 -147 -215l8 1v-684h-63v606q-56 -78 -128 -171l-10 51l-13 14q135 182 294 426zM442 817l147 -165l-42 -43l-147 167zM870 762q15 0 15 -18v-833l-82 41l18 7v744q-130 2 -230 -1l5 42l-8 18h282zM442 638v-710h-64v643q0 56 -6 79q46 -15 70 -12z
" />
    <glyph glyph-name="uni4EF0" unicode="&#x4ef0;" 
d="M222 564v-642h-61v584q-40 -57 -107 -148l-13 53l-13 14q119 164 272 403l60 -27q-82 -126 -158 -237q11 -1 20 0zM408 190l117 88l30 -50l-233 -185l-11 39l-21 19l56 42v485q0 43 -5 62q14 -5 23 -6q23 15 200 135l52 -42l-208 -135v-452zM859 730q14 0 14 -16v-649
l-76 37l16 7v562q-110 0 -164 -1v-756h-62v736q0 62 -6 88l28 -9q-1 0 -1 1h251z" />
    <glyph glyph-name="uni4EF2" unicode="&#x4ef2;" 
d="M277 575v-662h-65v598q-65 -94 -142 -194l-13 52l-14 14q155 213 310 458l63 -26q-81 -127 -159 -240q11 -2 20 0zM881 630q29 0 28 -28q-3 -136 -7 -382h-216v-305h-70v305h-222l11 413q101 -1 211 -1v174q0 21 -4 32q48 -9 74 -7v-200zM465 282h154v292h-154v-292z
M834 574h-150v-292h150v292z" />
    <glyph glyph-name="uni4EF3" unicode="&#x4ef3;" 
d="M238 568v-663h-61v597q-22 -34 -105 -156l-15 47l-14 13q127 187 268 428l59 -22q-91 -151 -151 -244q10 -1 19 0zM920 -3q31 0 53 15l-17 -75h-264q-64 0 -64 61v829q34 -16 66 -13v-368q100 95 194 202l41 -50q-97 -108 -235 -235v-366h226zM443 46q71 38 143 75
l24 -55l-273 -150l-8 40l-19 21l67 35v788h66v-319h155l-3 -62q-63 3 -152 1v-374z" />
    <glyph glyph-name="uni4EF5" unicode="&#x4ef5;" 
d="M259 604v-673h-63v613q-41 -62 -136 -195l-14 55l-14 15q142 200 287 436l62 -26q-85 -135 -145 -225q13 -1 23 0zM960 356l-9 -62q-84 1 -270 1v-367h-68v367q-103 0 -279 -2l5 42l-9 21h283v225q0 24 -2 50q-66 0 -97 -1q-57 -103 -106 -190l-29 26l-24 -3
q105 189 200 390l68 -9q-43 -88 -77 -152h365l-7 -62q-142 2 -223 1v-275h279z" />
    <glyph glyph-name="uni4EF6" unicode="&#x4ef6;" 
d="M250 592v-676h-65v600q-46 -71 -122 -179l-14 55l-13 15q128 187 277 436l62 -26q-88 -144 -141 -226q11 0 16 1zM958 294l-11 -64q-78 1 -251 1v-312h-68v312q-115 0 -313 -2l5 43l-9 22h317v240l-88 -1q-58 0 -86 -1q-45 -99 -90 -191l-32 26l-24 -5q94 201 175 401
l68 -8l-67 -157h144v144q0 66 -7 101q49 -21 75 -16v-229h211l-8 -65q-63 1 -203 1v-240h262z" />
    <glyph glyph-name="uni4EF7" unicode="&#x4ef7;" 
d="M256 579v-664h-65v587l-126 -175l-15 50l-15 14q147 204 302 452l63 -25q-97 -152 -157 -240q9 0 13 1zM968 446l-24 -12l-16 -45l-328 304q-115 -158 -261 -339l-25 29l-25 2q189 244 334 457l75 -12q-27 -40 -59 -83zM775 469v-542h-66v490q0 44 -5 63q43 -13 71 -11z
M364 -91q76 319 128 570h69l-60 -264q-38 -171 -65 -287l-40 4z" />
    <glyph glyph-name="uni4EFB" unicode="&#x4efb;" 
d="M261 561v-645h-65v570q-80 -114 -123 -172l-15 51l-14 15q154 217 307 466l63 -25q-93 -150 -168 -261q10 0 15 1zM936 355l-277 1v-310h257l-9 -60q-233 3 -565 -1l4 41l-8 20h255v310l-137 -1q-89 0 -132 -1l5 41l-9 20h273v230q0 24 -1 34q-110 -22 -209 -38l-7 37
l-16 20q247 43 508 107l18 -63q-75 -18 -227 -50v-277h286z" />
    <glyph glyph-name="uni4EFD" unicode="&#x4efd;" 
d="M264 586v-662h-63v593q-57 -88 -132 -197l-14 52l-14 15q144 213 291 465l61 -24q-103 -171 -148 -242q10 -1 19 0zM966 406l-28 -2l-25 -34l-292 418l54 26zM616 772q-147 -248 -277 -434l-18 42l-16 11q115 170 250 401zM789 414q17 0 15 -17q-8 -125 -32 -476l-79 39
l20 5l26 390q-44 1 -140 1q-90 -245 -150 -398l-36 5l-32 -17q83 206 153 410l-121 -1l5 40l-8 19h379z" />
    <glyph glyph-name="uni4EFF" unicode="&#x4eff;" 
d="M283 578v-658h-62v612q-54 -80 -148 -212l-13 54l-13 15q147 210 301 457l60 -25q-94 -149 -155 -242q16 -3 30 -1zM956 578q-112 1 -365 1l-33 -161h276q17 0 15 -17q-7 -129 -30 -486l-82 38l20 7q20 312 25 400q-131 2 -236 -1q-52 -258 -89 -430l-37 3l-31 -24
q82 383 135 670q-119 0 -175 -1l5 40l-9 20h303l-75 179l62 22l80 -186l-39 -15h289z" />
    <glyph glyph-name="uni4F01" unicode="&#x4f01;" 
d="M959 464l-22 -15l-8 -46l-459 312q-189 -177 -393 -347l-18 32l-27 8q284 248 478 439l79 -19q-34 -34 -70 -67q66 -44 440 -297zM531 33h370l-12 -62q-351 4 -798 -1l4 41l-9 22h149v355q0 35 -5 50q48 -11 68 -8v-397h167v474q0 45 -5 65q47 -14 71 -11v-219h245
l-5 -61q-114 2 -240 0v-248z" />
    <glyph glyph-name="uni4F09" unicode="&#x4f09;" 
d="M272 593v-676h-65v597q-76 -107 -140 -191l-13 51l-15 15q151 205 317 468l63 -26q-102 -158 -158 -239zM896 606q-288 3 -544 -1l4 43l-8 20h250l-75 170l66 17l80 -180l-24 -7h260zM908 13q35 0 62 16l-21 -83h-201q-28 0 -38 12q-11 12 -11 42v426q-85 2 -174 0
l-85 -488l-38 3l-30 -24q50 272 97 571h270v-1h5q22 0 22 -22v-452h142z" />
    <glyph glyph-name="uni4F0A" unicode="&#x4f0a;" 
d="M257 591v-674h-64v608q-70 -105 -138 -201l-14 53l-14 15q151 217 297 458l61 -24q-100 -161 -148 -235q11 -2 20 0zM941 531l-3 -61q-27 1 -91 1v-228h-313l-56 -304l-39 2l-32 -24l62 326h-131l4 39l-4 20h142l16 87q13 71 15 85q-129 0 -189 -1l5 39l-8 19h202l29 166
q-117 0 -172 -1l5 42l-8 19h454q18 0 18 -20v-206h94zM588 531h193v166q-51 1 -162 1zM781 302v171q-64 1 -204 1l-32 -172h236z" />
    <glyph glyph-name="uni4F0D" unicode="&#x4f0d;" 
d="M249 588v-655h-62v593l-126 -175l-13 52l-14 15q145 197 296 434l59 -24q-103 -157 -160 -240q11 -1 20 0zM949 64l-9 -60q-352 2 -637 -1l5 41l-9 20h166l27 334q-101 0 -149 -1l5 42l-8 19h157l15 186q3 29 3 45q-112 0 -165 -1l5 40l-8 20h557l-8 -59q-97 1 -315 1
l-19 -232h253q17 0 17 -18v-376h117zM768 64v334q-66 1 -211 1l-27 -335h238z" />
    <glyph glyph-name="uni4F0E" unicode="&#x4f0e;" 
d="M939 -20l-23 -14l-9 -48l-282 233q-92 -101 -221 -232l-26 25l-30 6q127 129 228 241l-171 141l44 47l171 -139q94 108 143 166h-411l4 41l-4 20h237v169q-149 0 -218 -1l5 41l-9 21h222v105q0 32 -4 48q43 -11 69 -9v-144h221l-8 -62q-66 1 -213 1v-169h193q18 0 23 -12
q6 -12 -5 -26q-93 -113 -196 -229zM269 599v-670h-67v590q-77 -121 -133 -203l-15 54l-14 15q148 223 286 462l60 -24q-78 -133 -135 -224q11 -1 18 0z" />
    <glyph glyph-name="uni4F0F" unicode="&#x4f0f;" 
d="M269 577v-657h-62v592q-69 -96 -137 -182l-14 50l-14 14q137 179 305 434l62 -25q-113 -167 -156 -226q9 -1 16 0zM920 474q-101 1 -328 1q-82 -339 -131 -537l-41 3l-35 -24q69 273 137 557q-113 0 -166 -1l5 41l-8 20h183l68 294h74l-72 -294h323zM849 573l-147 162
l53 33l147 -161zM968 -37l-27 -3l-27 -38l-334 464l56 35z" />
    <glyph glyph-name="uni4F10" unicode="&#x4f10;" 
d="M929 -40q30 0 53 13l-25 -61h-246q-29 0 -41 9q-11 10 -15 36l-32 185q-114 -104 -233 -201l-16 35l-24 9q119 103 261 233q-33 193 -43 255q-130 -22 -191 -33l2 43l-11 19q104 17 190 30l-50 304h53q21 0 24 -18q32 -151 54 -273l273 44l-3 -63q-109 -15 -259 -40
q21 -112 36 -198q58 55 173 168l42 -51q-98 -98 -203 -194q30 -182 34 -251h197zM296 579v-661h-63v592q-65 -94 -151 -210l-14 51l-15 14q140 193 309 462l63 -25q-95 -149 -145 -224q11 0 16 1zM802 608l-157 137l50 43l156 -135z" />
    <glyph glyph-name="uni4F11" unicode="&#x4f11;" 
d="M974 123l-28 -4l-27 -38l-263 380v-545h-68v556q-112 -205 -243 -416l-29 27l-26 -2q138 232 263 473l-111 -1q-72 0 -108 -1l5 43l-9 21h258v138q0 67 -7 102q49 -19 75 -16v-224h276l-9 -63q-78 1 -251 1zM407 822q-102 -153 -152 -225l9 1v-682h-65v601
q-52 -75 -138 -189l-13 54l-13 15q157 213 311 451z" />
    <glyph glyph-name="uni4F17" unicode="&#x4f17;" 
d="M71 421l-23 12q273 231 467 421l76 -23q-46 -44 -70 -66l424 -273l-23 -17l-6 -47l-444 292q-185 -169 -389 -334zM287 273q-81 -168 -174 -342l-31 21l-24 -1q133 258 270 566l69 -10q-51 -113 -96 -206l29 21l140 -185l-51 -39zM719 495q-40 -96 -84 -195l303 -332
l-23 -12l-17 -45q-250 278 -292 324q-67 -152 -152 -324l-30 26h-22q143 306 247 568z" />
    <glyph glyph-name="uni4F18" unicode="&#x4f18;" 
d="M256 589v-668h-67v591q-52 -77 -131 -187l-14 54l-14 16q144 202 296 448l62 -26q-79 -125 -147 -228q8 -1 15 0zM914 25q31 0 50 13l-16 -79h-265q-64 0 -64 61v490h-83q-75 -384 -113 -572l-40 2l-34 -25q79 395 116 595l-75 -1q-49 0 -73 -1l4 44l-9 21h165
q17 88 49 260h73l-51 -260h366l-9 -64q-77 1 -248 1q16 -1 31 0v-485h226zM785 604l-131 169l53 32l132 -167z" />
    <glyph glyph-name="uni4F19" unicode="&#x4f19;" 
d="M268 587v-658h-63v593q-79 -109 -140 -187l-12 54l-13 15q146 194 311 444l60 -27q-112 -166 -160 -234q9 -2 17 0zM959 -29l-25 -4l-25 -38l-322 451q-69 -241 -129 -439l-38 3l-35 -22q139 462 264 921h71q-45 -155 -120 -418l21 15zM691 416q113 146 194 266l48 -40
q-89 -131 -197 -264l-23 32zM466 377l-137 239l51 33l137 -237z" />
    <glyph glyph-name="uni4F1A" unicode="&#x4f1a;" 
d="M980 431l-20 -14l-9 -46l-464 355q-182 -171 -413 -364l-10 38l-23 13q280 242 474 436l79 -20q-20 -20 -60 -58q45 -35 446 -340zM703 429q-139 2 -428 0l5 41l-8 19h438zM86 296h821l-12 -63q-137 2 -443 2q-46 -60 -164 -207h440l-121 142l53 36l219 -254l-54 -38
l-46 54h-568q-22 0 -28 13t6 29q12 17 175 224q-98 0 -272 -2l4 41z" />
    <glyph glyph-name="uni4F1B" unicode="&#x4f1b;" 
d="M258 608v-692h-61v615q-60 -89 -136 -195l-13 52l-14 14q135 190 293 443l59 -24q-34 -54 -138 -214zM919 699q-254 2 -466 -1v-659h465l-12 -60h-516v704q0 56 -6 87q26 -10 42 -13h501zM488 82q83 133 171 281q-77 114 -155 231l50 32l139 -205q70 119 140 246l51 -33
q-59 -107 -154 -267l174 -255l-52 -37l-157 234q-74 -124 -159 -254l-25 27h-23z" />
    <glyph glyph-name="uni4F1E" unicode="&#x4f1e;" 
d="M964 492l-20 -16l-7 -45q-422 282 -450 300q-181 -163 -403 -341l-13 35l-24 10q283 235 476 419l77 -20q-21 -20 -63 -58q48 -33 427 -284zM528 213h395l-13 -61q-119 1 -382 1v-230h-66v230q-139 0 -377 -2l5 40l-10 22h382v323q0 49 -6 77q46 -16 72 -13v-387z
M775 449q-46 -68 -150 -196l-31 23l-25 2q106 137 150 201zM412 285l-52 -41l-151 192l52 38z" />
    <glyph glyph-name="uni4F1F" unicode="&#x4f1f;" 
d="M871 340q17 0 17 -19l-13 -339l-84 36l18 8l10 253q-61 1 -193 1v-379h-68v379q-85 0 -233 -2l5 42l-8 19h236v125l-100 -1q-64 0 -96 -1l5 41l-8 19h199v117l-105 -1q-68 0 -101 -1l5 41l-8 21h209v51q0 68 -7 103q49 -21 75 -16v-138h255l-8 -61q-77 1 -247 1v-117h223
l-7 -59l-216 1v-125zM266 581v-660h-66v572q-42 -68 -122 -189l-18 49l-17 13q138 210 283 467l65 -21q-59 -101 -137 -232z" />
    <glyph glyph-name="uni4F20" unicode="&#x4f20;" 
d="M940 427q-120 1 -392 1l-29 -122h353q16 0 20 -11q5 -10 -4 -21q-98 -122 -203 -237l137 -77l-34 -57l-367 210l35 54l175 -99q105 124 149 179h-338q23 99 43 180q-114 0 -168 -1l5 41l-9 20h186l29 125q-117 0 -172 -1l5 40l-8 20h189l23 96q11 47 10 72q42 -14 68 -11
q-23 -95 -37 -157h286l-8 -59q-90 1 -292 1l-30 -126h387zM265 552v-640h-64v586q-70 -99 -132 -183l-15 48l-16 14q153 211 303 454l65 -24q-90 -142 -167 -254q14 -3 26 -1z" />
    <glyph glyph-name="uni4F22" unicode="&#x4f22;" 
d="M270 600v-679h-65v601q-65 -100 -129 -192l-16 50l-15 15q144 212 287 459l63 -24q-77 -129 -141 -231q11 0 16 1zM958 377h-156v-460l-107 50l39 7v368q-170 -170 -388 -351l-18 34l-24 11q210 181 369 341h-264q-33 0 -22 35q15 54 42 129q34 98 44 129l66 -10
q-29 -90 -73 -217h268v262q-130 0 -350 -2l5 44l-9 21h565l-9 -64q-43 1 -134 1v-262h169z" />
    <glyph glyph-name="uni4F24" unicode="&#x4f24;" 
d="M270 591v-665h-63v601q-60 -90 -133 -195l-14 53l-13 16q137 200 284 448l62 -26q-72 -119 -144 -232q12 -1 21 0zM943 691l-7 -59q-202 3 -416 0q-42 -72 -102 -165l-25 32l-21 7q97 153 196 343l66 -14q-42 -79 -80 -144h389zM868 434q15 0 15 -17l-35 -502l-82 40
l21 6l29 414q-65 1 -207 1q-98 -266 -157 -419l-40 4l-34 -20q92 232 164 434q-113 0 -165 -1l5 41l-8 19h189l26 75q17 48 26 76h71l-55 -151h237z" />
    <glyph glyph-name="uni4F25" unicode="&#x4f25;" 
d="M272 576v-661h-61v597q-65 -92 -143 -199l-13 49l-14 13q161 225 312 467l60 -24q-109 -170 -159 -242q11 -1 18 0zM683 105l14 -56l-296 -149l-2 42l-14 24l54 25v370h-108v62h108v404h65v-404h427l-13 -62h-414v-339zM570 489l-22 10q180 164 301 291l42 -53
q-144 -150 -303 -286zM953 -16l-27 -5l-25 -38l-297 383l53 36z" />
    <glyph glyph-name="uni4F26" unicode="&#x4f26;" 
d="M967 473l-25 -12l-13 -40l-333 291q-114 -160 -248 -324l-22 29l-25 3q166 213 318 438l73 -11l-60 -85zM265 594v-673h-63v597q-56 -87 -129 -194l-16 49l-15 13q137 206 289 469l62 -22q-80 -136 -144 -240q11 0 16 1zM884 20q34 0 56 14l-16 -71h-408q-61 0 -61 59
v477q30 -14 63 -12v-229q133 89 271 191l34 -54q-157 -117 -305 -208v-167h366z" />
    <glyph glyph-name="uni4F27" unicode="&#x4f27;" 
d="M886 13q34 0 58 14l-16 -78h-449q-65 0 -65 64v463q-13 -16 -45 -53q-29 -35 -46 -54l-14 42l-21 7q187 228 332 430l75 -12q-22 -31 -68 -91q52 -45 333 -294l-23 -12l-15 -44l-334 299q-77 -101 -173 -216q7 -4 21 -8h324q16 0 16 -17q-6 -104 -13 -314l-80 38l17 6
l9 225h-231v-395h408zM386 825q-83 -141 -141 -230l9 1v-675h-65v590q-68 -100 -123 -176l-17 42l-17 13q143 202 289 455z" />
    <glyph glyph-name="uni4F2A" unicode="&#x4f2a;" 
d="M871 562q16 0 16 -18l-37 -641l-88 41l22 7l32 548q-66 1 -208 1l-145 -573l-41 4l-34 -23q89 334 148 592l-89 -1q-58 0 -86 -1l5 43l-9 21h198l59 242q7 30 6 41q45 -9 74 -6l-68 -277h245zM392 811q-83 -138 -132 -214l11 1v-688h-66v601q-49 -75 -143 -210l-16 48
l-15 13q149 217 300 470zM366 738l53 33l108 -151l-54 -35zM781 202l-57 -34l-133 188l56 31z" />
    <glyph glyph-name="uni4F2B" unicode="&#x4f2b;" 
d="M267 565v-654h-65v593q-65 -97 -129 -186l-12 55l-13 16q142 207 287 447l62 -27q-93 -149 -155 -244q15 -1 25 0zM621 636l-88 181l62 19l89 -178zM418 631h413v1h51q16 0 16 -16v-192h-62v148q-219 2 -398 -1v-162h-60v199q0 20 -4 29q18 -4 44 -6zM942 72l-10 -65
q-316 3 -599 -1l5 44l-9 22h613z" />
    <glyph glyph-name="uni4F2F" unicode="&#x4f2f;" 
d="M415 841q-71 -104 -158 -225l10 1v-690h-66v614q-52 -70 -150 -193l-11 51l-14 15q163 211 327 454zM868 655q9 -9 9 -35q-4 -221 -9 -627h-460l14 678q57 -1 130 -1q17 41 73 181l71 -13q-52 -119 -73 -169q174 -2 210 -3q25 -1 35 -11zM485 605v-230h309v230h-309z
M794 61v251q-152 2 -309 0v-251h309z" />
    <glyph glyph-name="uni4F30" unicode="&#x4f30;" 
d="M278 619v-704h-66v624q-59 -82 -151 -202l-12 54l-13 17q154 204 311 443l61 -28q-75 -112 -140 -205zM934 582q-81 1 -261 1v-212q73 -1 166 -1q27 -1 26 -27q-3 -130 -7 -369h-447l11 399q85 -1 180 -1v211q-89 0 -245 -2l5 42l-9 21h249v146q0 41 -5 58q47 -12 76 -10
v-194h270zM788 312h-304v-273h304v273z" />
    <glyph glyph-name="uni4F32" unicode="&#x4f32;" 
d="M260 605v-689h-64v616q-69 -96 -143 -192l-13 55l-13 15q151 200 305 434l61 -27q-74 -110 -145 -213q8 0 12 1zM461 486l-48 -554l-38 1l-31 -27q48 542 75 881h422q17 0 17 -17v-284h-397zM795 726q-173 2 -313 -1l-16 -178h329v179zM916 14q33 0 52 13l-15 -76h-339
q-62 0 -62 59v422q31 -14 65 -11v-188q170 124 246 185l35 -55q-115 -93 -281 -204v-145h299z" />
    <glyph glyph-name="uni4F34" unicode="&#x4f34;" 
d="M951 193q-89 1 -285 1v-275h-66v275q-109 0 -299 -2l5 42l-8 21h302v182l-130 -1q-84 0 -125 -1l5 40l-9 20h259v251q0 66 -7 100q48 -20 73 -15v-336h263l-9 -59l-254 1v-182h295zM258 579v-648h-64v576q-71 -102 -122 -173l-16 51l-15 14q142 199 292 443l64 -24
q-81 -129 -155 -240q11 0 16 1zM745 545l-22 4q78 124 143 239l50 -36q-59 -108 -145 -237zM370 737l58 31l132 -206l-58 -32z" />
    <glyph glyph-name="uni4F36" unicode="&#x4f36;" 
d="M259 588v-672h-63v602q-64 -97 -127 -184l-15 47l-15 13q137 200 287 453l63 -23q-83 -137 -147 -236q9 -2 17 0zM958 460l-24 -12l-15 -41l-338 296q-121 -153 -255 -303l-22 31l-26 4q185 217 328 410l75 -13q-31 -42 -61 -79zM697 402l-54 -40l-141 160l53 38z
M835 349q16 0 21 -11q4 -11 -5 -23q-113 -139 -223 -259l146 -84l-35 -56l-354 205l36 53l151 -86q102 116 168 200q-234 2 -416 -1l5 42l-8 19h447v1h67z" />
    <glyph glyph-name="uni4F38" unicode="&#x4f38;" 
d="M902 623q-3 -162 -7 -453h-225v-258h-67v258h-225l12 490l214 -2v158q0 19 -4 27q42 -7 70 -5v-180q86 -1 199 -1q34 -1 33 -34zM266 591v-676h-66v600q-75 -112 -137 -200l-15 55l-14 15q150 215 294 452l62 -24q-66 -108 -140 -222q9 -1 16 0zM449 604v-151h156v151
h-156zM825 604h-157v-151h157v151zM825 229v167q-50 1 -157 1v-168h157zM449 229h156v168l-79 -1q-52 0 -77 -1v-166z" />
    <glyph glyph-name="uni4F3A" unicode="&#x4f3a;" 
d="M866 779q16 0 16 -17l-5 -855l-84 41l20 6l5 766q-223 3 -449 0l5 40l-4 11q-78 -118 -128 -192q18 -3 27 -2v-661h-62v612q-53 -77 -124 -173l-14 50l-15 13q138 190 292 437l62 -25l-33 -51h491zM352 595h421l-6 -58q-134 2 -412 0l5 40zM684 429q18 0 18 -19
q-3 -102 -6 -283h-311l8 304zM636 379h-189v-195h189v195z" />
    <glyph glyph-name="uni4F3C" unicode="&#x4f3c;" 
d="M249 585v-667h-63v593q-63 -103 -118 -187l-15 54l-13 14q123 194 260 439l61 -24q-111 -191 -130 -222q11 -1 18 0zM887 -64q-158 209 -188 247q-45 -157 -76 -259l-38 3l-34 -22q130 430 248 871h71l-78 -273q-52 -183 -80 -278l25 16l206 -268zM633 509l-152 224
l51 38l152 -222zM604 219l-278 -194l-7 42l-18 21l74 49v491q0 40 -6 64q41 -13 68 -11v-504q70 47 141 93z" />
    <glyph glyph-name="uni4F3D" unicode="&#x4f3d;" 
d="M229 595v-664h-58v591q-59 -101 -101 -169l-17 45l-15 11q115 193 242 441l60 -20q-74 -139 -128 -235q10 -1 17 0zM580 635q15 0 15 -16l-22 -696l-75 38l18 5l19 612h-101l-70 -639h-32l-29 -24q43 382 72 663q-57 0 -83 -1l5 40l-8 18h92l21 203h61l-23 -203h140z
M869 696q20 -1 26 -9q5 -7 4 -27q-3 -209 -6 -601h-230l10 640zM837 641h-117v-522h117v522z" />
    <glyph glyph-name="uni4F43" unicode="&#x4f43;" 
d="M255 602v-671h-62v601q-56 -82 -120 -169l-14 48l-15 13q136 191 289 438l60 -23q-109 -171 -153 -238q10 0 15 1zM838 742q44 -1 44 -46q-4 -237 -9 -670h-498l14 721zM447 685v-262h153v226q0 26 -1 36h-152zM805 685h-143v-262h143v262zM805 89v275q-46 1 -143 1v-276
h143zM447 89h153v276q-52 -1 -153 -1v-275z" />
    <glyph glyph-name="uni4F46" unicode="&#x4f46;" 
d="M255 617v-696h-64v622q-52 -76 -135 -189l-13 55l-13 15q131 182 283 423l62 -26q-80 -124 -134 -204q8 -2 14 0zM849 195h-440l12 568q325 -2 401 -3q35 -1 34 -36q-3 -187 -7 -529zM479 699v-188h302v188h-302zM781 262v190q-101 1 -302 -1v-189h302zM959 61l-11 -65
q-339 3 -643 -1l5 44l-10 22h659z" />
    <glyph glyph-name="uni4F4D" unicode="&#x4f4d;" 
d="M261 577v-661h-66v584q-74 -102 -138 -185l-10 55l-12 16q154 209 312 457l61 -30q-65 -100 -159 -237zM627 614l-97 198l61 29l98 -196zM931 547q-245 3 -594 -1l5 44l-9 22h608zM971 74l-10 -67q-351 3 -664 -1l5 45l-10 23h343q103 241 174 439l63 -27
q-76 -205 -167 -412h266zM381 464l61 29l150 -360l-63 -33z" />
    <glyph glyph-name="uni4F4E" unicode="&#x4f4e;" 
d="M252 594v-672h-64v590q-54 -84 -126 -188l-13 53l-14 15q142 210 284 454l61 -25q-63 -104 -140 -228zM923 -3q23 0 42 11l-22 -61h-178q-25 0 -35 9t-13 34l-56 436q-140 0 -206 -1v-326q77 47 154 95l22 -49l-299 -197l-5 41l-17 20l80 49v694h54l390 87l43 -62
l-184 -37l35 -252h194l-8 -63q-56 1 -178 1q43 -323 54 -429h133zM653 488q-25 204 -30 237q-152 -30 -168 -34v-203h198zM579 67l90 -113l-44 -38l-90 114z" />
    <glyph glyph-name="uni4F4F" unicode="&#x4f4f;" 
d="M266 589v-663h-65v596q-65 -94 -139 -194l-12 53l-13 16q153 214 303 453l60 -26q-118 -183 -153 -235q10 -1 19 0zM620 647l-75 181l65 22l75 -179zM953 48l-10 -63q-304 3 -620 0l5 42l-9 21h274v262l-110 -1q-72 0 -107 -1l5 41l-9 20h221v185q0 21 -1 29
q-85 0 -231 -2l5 42l-8 20h554l-9 -61q-76 1 -245 1v-214h218l-8 -60l-210 1v-262h295z" />
    <glyph glyph-name="uni4F50" unicode="&#x4f50;" 
d="M249 574v-660h-63v595q-29 -42 -118 -164l-12 53l-13 15q144 202 286 427l60 -26q-89 -139 -159 -240q10 -1 19 0zM945 42l-9 -58q-311 2 -561 -1l5 40l-9 19h256v286q-103 0 -151 -1l6 40l-3 7q-61 -119 -138 -262l-29 26l-24 -1q111 212 226 451q-69 0 -189 -2l5 41
l-9 21h222l88 187l67 -12l-42 -87q-25 -54 -42 -88h314l-9 -61q-212 2 -334 1q-21 -45 -100 -202h411l-6 -59q-62 1 -200 1v-286h255z" />
    <glyph glyph-name="uni4F51" unicode="&#x4f51;" 
d="M955 596q-228 2 -359 1q-68 -124 -104 -187l182 -1q144 -1 172 -2q28 0 27 -28q-3 -146 -7 -413h-403q9 352 10 410q-63 -111 -124 -211l-29 30l-25 1q119 208 222 401q-76 0 -212 -2l5 44l-9 21h249q22 41 98 188l74 -13q-30 -59 -92 -175h335zM248 596v-677h-66v604
q-72 -93 -134 -169l-9 56l-12 16q137 173 307 420l60 -31q-89 -127 -158 -220q8 0 12 1zM534 32h263v316h-263v-316z" />
    <glyph glyph-name="uni4F53" unicode="&#x4f53;" 
d="M674 570q34 -52 284 -427l-22 -6l-23 -40l-292 442v-354h171l-6 -56l-165 1v-224h-63v223q-102 0 -149 -1l5 39l-7 18h151v338q-113 -195 -269 -431l-31 18l-27 -2q137 211 280 461q-147 0 -215 -1l5 40l-8 20h265v123q0 67 -7 102q47 -21 70 -16v-209h303l-10 -59z
M227 575v-668h-62v602q-43 -65 -110 -160l-14 49l-14 13q127 185 271 427l61 -24q-98 -158 -151 -239q10 -1 19 0z" />
    <glyph glyph-name="uni4F55" unicode="&#x4f55;" 
d="M386 828q-49 -78 -139 -218l9 1v-695h-64v613q-69 -102 -134 -191l-15 50l-15 14q142 199 296 449zM939 694l-96 1v-784l-102 52l34 7v725q-200 1 -428 -2l5 43l-9 21h605zM658 529q-3 -124 -6 -350h-276l9 374q211 -1 253 -2q20 0 20 -22zM593 498h-156v-259h156v259z
" />
    <glyph glyph-name="uni4F57" unicode="&#x4f57;" 
d="M924 32q36 0 58 14l-16 -77h-462q-63 0 -63 62v487h-66v157q0 18 -4 26q15 -3 41 -5h193q-9 39 -41 163l67 12l47 -175h218q17 0 17 -15v-156h-65v113q-173 3 -406 1v-119q30 -14 61 -12v-228q168 92 336 196l30 -57q-192 -118 -366 -208v-179h421zM272 586v-657h-65v598
q-52 -79 -128 -187l-13 54l-14 15q137 200 284 449l63 -26q-93 -153 -153 -245q11 -1 26 -1z" />
    <glyph glyph-name="uni4F58" unicode="&#x4f58;" 
d="M529 767q48 -34 425 -308l-20 -17l-6 -47q-420 307 -448 328q-185 -168 -400 -340l-16 31l-26 9q293 247 478 426l77 -22q-10 -10 -32 -30zM705 468q-218 3 -443 0l5 41l-8 19h453zM889 277q-111 1 -358 1v-374l-114 55l43 6v313q-134 0 -366 -2l5 41l-10 22h812z
M326 254l47 -43l-253 -279l-21 39l-27 15zM661 249l258 -246l-52 -47l-258 249z" />
    <glyph glyph-name="uni4F59" unicode="&#x4f59;" 
d="M953 439l-23 -12l-11 -43l-428 336q-106 -97 -216 -192h447l-7 -60q-58 1 -185 1v-145h386l-12 -60q-232 2 -374 2v-364l-101 43l33 8v313l-370 -3l5 40l-10 21h375v145q-128 0 -187 -1l5 41l-7 17q-128 -108 -195 -163l-14 33l-24 10q288 244 493 444l75 -21
q-46 -44 -69 -65q50 -40 414 -325zM339 234l37 -47l-256 -258l-12 44l-21 17zM662 232l256 -228l-44 -48l-256 231z" />
    <glyph glyph-name="uni4F5A" unicode="&#x4f5a;" 
d="M270 601v-684h-67v602q-73 -119 -134 -212l-14 53l-14 15q143 225 280 472l61 -24q-86 -151 -129 -222q9 -2 17 0zM945 319q-106 1 -344 1q-62 -210 -119 -394l-39 3l-35 -23q62 202 125 413q-139 0 -204 -1l5 41l-9 20h225l52 177q-106 0 -156 -1q-30 -67 -66 -141
l-29 23l-22 3q64 136 133 329l66 -8q-40 -105 -57 -146h148l61 216h72q-22 -72 -64 -216h214l-7 -59l-224 1l-26 -89q-17 -56 -26 -89h336zM964 -41l-27 -7l-24 -38l-301 345l52 37z" />
    <glyph glyph-name="uni4F5B" unicode="&#x4f5b;" 
d="M906 308q17 0 15 -16l-13 -300l-73 34l16 6l9 216h-139v-332h-59v332h-119q-87 -236 -122 -324l-34 4l-32 -16q72 180 125 336l-162 -1l11 225q1 23 -2 36l33 -5h132v139q-92 0 -136 -1l5 40l-8 20h139v80q0 42 -5 61q41 -13 62 -10v-131h113v50q0 65 -7 99
q42 -18 66 -15v-134h147q15 0 15 -15v-239h-162v-139h185zM365 813q-56 -90 -140 -217l8 1v-677h-61v597q-60 -87 -114 -162l-12 52l-12 14q135 196 272 419zM549 503h113v139q-56 2 -113 0v-139zM826 641q-34 1 -105 1v-139h105v138zM387 447q-3 -73 -7 -139h112v139h-105z
M662 308v139h-113v-139h113z" />
    <glyph glyph-name="uni4F5C" unicode="&#x4f5c;" 
d="M620 206h328l-6 -60q-155 2 -322 0v-237h-66v698l-36 -1q-61 -108 -138 -230l-21 40l-19 10q114 187 235 430l68 -17q-37 -74 -90 -170h397l-7 -63q-206 2 -323 1v-161h301l-5 -61q-94 2 -296 0v-179zM391 820q-77 -129 -116 -190h3v-711h-65v612q-68 -105 -135 -201
l-15 52l-15 15q78 114 159 245l1 1q64 104 120 201z" />
    <glyph glyph-name="uni4F5D" unicode="&#x4f5d;" 
d="M886 696q18 0 16 -20q-7 -158 -37 -770l-90 65l23 3l32 660q-119 1 -350 -1q-70 -124 -129 -219l-19 48l-17 12q97 163 208 378l65 -21l-73 -135h371zM264 620v-700h-66v614q-61 -99 -129 -202l-16 53l-15 14q141 218 270 447l62 -22q-56 -97 -120 -204q8 -2 14 0z
M702 460q-3 -122 -6 -338h-289l9 364q220 -1 264 -2q23 0 22 -24zM636 436h-167v-260h167v260z" />
    <glyph glyph-name="uni4F5E" unicode="&#x4f5e;" 
d="M231 586q10 0 14 1v-668h-62v592q-54 -85 -123 -188l-16 53l-13 14q132 200 287 465l60 -24zM369 777h479l-7 -57q-260 2 -469 -1l5 39zM930 517q-258 3 -624 -1l5 40l-9 20h637zM932 296l-114 1q-105 -120 -186 -206l257 -125l-33 -56q-137 67 -270 133
q-66 -67 -137 -137l-39 12l-39 -5q84 84 156 159l-160 79q2 3 2 4q38 74 72 142l-77 -1q-50 0 -75 -1l5 40l-8 20h184l81 161l60 -21q-39 -73 -73 -140h403zM733 297h-226l-60 -115q29 -15 126 -62q74 79 160 177z" />
    <glyph glyph-name="uni4F5F" unicode="&#x4f5f;" 
d="M261 618v-691h-65v608q-66 -100 -139 -203l-14 51l-15 14q146 214 289 455l63 -25q-52 -86 -130 -210zM961 280l-23 -14l-8 -46q-170 123 -317 228q-116 -94 -280 -219l-20 31l-26 12q166 126 274 214l-129 93l37 51l143 -102q92 77 170 150h-286q-76 -111 -154 -213
l-22 34l-24 2q128 177 237 351l72 -12q-37 -57 -68 -103l348 1q19 0 25 -14q5 -15 -8 -27q-102 -93 -237 -206zM747 178l-38 -48l-208 140l38 46zM408 120l418 -142l-26 -61l-420 145z" />
    <glyph glyph-name="uni4F60" unicode="&#x4f60;" 
d="M745 457q30 58 74 155q-190 2 -341 -1q-52 -92 -132 -219l-24 37h-23q116 195 232 418l72 -10q-43 -82 -90 -165h376q25 0 15 -24l-49 -98q-31 -63 -52 -104zM242 587v-669h-65v600q-60 -85 -120 -165l-13 52l-14 15q127 174 287 423l62 -27q-81 -125 -154 -229
q9 -2 17 0zM556 534h66v-623l-109 54l43 6v563zM910 95l-54 -41l-185 283l54 38zM459 372l50 -34l-170 -313l-24 35l-27 10z" />
    <glyph glyph-name="uni4F63" unicode="&#x4f63;" 
d="M248 599v-682h-62v614q-57 -89 -124 -189l-17 50l-15 13q135 203 273 442l62 -22q-121 -202 -136 -226q10 -1 19 0zM871 779q16 0 16 -17v-845l-86 41l20 7v276q-51 1 -159 1v-283h-61v283l-94 -1q-61 0 -91 -1l-17 -296h-36l-30 -26q31 520 49 862h485v-1h4zM444 719
l-11 -183h169v183h-158zM665 536h156v182q-50 1 -156 1v-183zM425 389l-5 -90h182v179q-117 0 -172 -1q-1 -26 -5 -88zM821 299v179h-156v-179h156z" />
    <glyph glyph-name="uni4F64" unicode="&#x4f64;" 
d="M261 602v-689h-61v616q-67 -101 -137 -198l-17 49l-15 13q135 192 288 444l63 -22q-84 -135 -135 -214q10 0 14 1zM917 8q34 0 57 11l-20 -74h-189q-25 0 -35 10q-9 11 -8 37q3 89 10 479h-240q-30 -347 -37 -437l180 80l16 -55l-309 -148l-2 41l-15 24l65 29l55 673
l-97 -1l5 42l-9 21h578l-9 -62q-191 2 -404 0q0 -6 -5 -59q-5 -57 -7 -90h281q20 0 19 -21q-4 -92 -10 -500h130zM561 378l147 -174l-54 -29l-146 176z" />
    <glyph glyph-name="uni4F65" unicode="&#x4f65;" 
d="M528 758q63 -46 415 -299l-22 -14l-11 -44q-389 280 -431 311q-198 -184 -409 -359l-14 36l-25 10q286 246 495 452l78 -20zM707 462q-210 3 -428 0l5 41l-9 19h439zM468 416l86 -284l-65 -23l-84 287zM815 372q-72 -145 -183 -332h285l-13 -63q-335 3 -812 -1l5 41
l-10 23h472q113 199 194 359zM219 370l149 -279l-61 -30l-148 282z" />
    <glyph glyph-name="uni4F67" unicode="&#x4f67;" 
d="M606 409v-493h-65v446q0 32 -5 54q-142 0 -208 -1l5 41l-9 21h218v330q0 29 -5 49q43 -11 70 -9v-152h260l-5 -59q-123 2 -255 0v-159h329l-9 -62q-242 2 -382 1q37 -9 61 -7zM275 598v-670h-64v602q-72 -106 -144 -205l-14 47l-15 13q153 215 303 460l59 -23
q-80 -128 -144 -224q10 -1 19 0zM657 324l278 -195l-42 -52l-278 197z" />
    <glyph glyph-name="uni4F69" unicode="&#x4f69;" 
d="M217 575v-655h-55v580q-42 -75 -94 -164l-19 44l-15 11q113 195 237 445l59 -17q-82 -160 -127 -244h14zM919 -18q18 0 32 9l-20 -56h-78q-24 0 -33 9q-8 9 -9 34q-3 102 -28 739q-226 2 -409 -1q1 12 -34 -767h-30l-27 -24q20 446 37 846h496v-1h8q17 0 18 -17
q20 -596 32 -771h45zM428 618h323l-5 -53l-138 1v-108h125v-388l-72 41l27 5v291q-27 1 -84 1v-470h-48v470q-51 0 -76 -1v-355h-46v368q0 30 -4 45q21 -5 35 -7h85v108l-120 -1l5 36z" />
    <glyph glyph-name="uni4F6C" unicode="&#x4f6c;" 
d="M892 -5q34 0 55 13l-15 -74h-417q-60 0 -60 58v255q-69 -61 -138 -120l-21 31l-25 5q144 127 282 261l-128 -1q-83 0 -124 -1l5 41l-9 20h226v155l-85 -1q-55 0 -82 -1l6 40l-8 19h169v108q0 30 -4 45q42 -10 67 -8v-145h178l-7 -58l-171 1v-155h38q146 149 249 269
l47 -41q-106 -122 -215 -228h222l-9 -60q-85 1 -275 1q-53 -53 -125 -120v-138q150 79 298 166l31 -52q-143 -85 -329 -178v-107h374zM254 575v-661h-63v585q-61 -94 -123 -187l-16 47l-15 13q140 210 285 461l60 -21q-60 -103 -143 -238q10 0 15 1z" />
    <glyph glyph-name="uni4F6F" unicode="&#x4f6f;" 
d="M935 147q-89 1 -287 1v-234h-67v234q-195 0 -285 -1l5 42l-9 21h289v160q-165 0 -242 -1l5 40l-8 20h245v97q0 33 -1 45q-164 0 -240 -1l5 39l-9 20h181q-3 4 -100 164l58 28l102 -164q-48 -25 -55 -28h118q10 16 116 201l66 -18l-112 -183h183l-9 -59q-73 1 -236 1v-142
h227l-8 -60q-68 1 -219 1v-160h297zM253 554v-633h-64v582q-47 -74 -122 -182l-14 53l-13 15q133 200 275 440l61 -24q-89 -149 -153 -250q16 -3 30 -1z" />
    <glyph glyph-name="uni4F70" unicode="&#x4f70;" 
d="M943 700q-85 1 -276 1l-58 -160l223 -2q36 0 35 -36q-3 -182 -7 -513h-477l12 553q65 -1 145 -1q25 73 52 159q-173 0 -254 -1l5 40l-8 19l-102 -154q11 0 16 1v-672h-64v601q-74 -107 -133 -186l-13 53l-14 15q141 197 288 433l63 -27l-41 -63h617zM792 481h-338v-173
h338v173zM792 54v195q-166 2 -338 0v-195h338z" />
    <glyph glyph-name="uni4F73" unicode="&#x4f73;" 
d="M250 579v-658h-64v593q-63 -93 -120 -171l-14 55l-14 15q132 186 290 439l62 -26q-69 -109 -160 -247h20zM581 800q0 33 -5 48q45 -11 72 -9v-158h215l-7 -58l-208 1v-154h281l-9 -61q-247 3 -596 -1l5 42l-9 20h261v154l-106 -1q-68 0 -101 -1l5 40l-8 19h210v119z
M938 37l-10 -62q-304 3 -619 0l5 41l-9 21h278v175q-160 0 -234 -1l5 40l-8 20h237v84q0 28 -5 46q49 -11 71 -8v-122h216l-8 -60q-65 1 -208 1v-175h289z" />
    <glyph glyph-name="uni4F74" unicode="&#x4f74;" 
d="M942 116l-127 -13v-189h-62v183q-203 -21 -430 -48l1 41l-10 20q79 8 112 12v539q0 28 -1 38l-77 -1l5 39q-3 5 -5 11q-46 -71 -92 -138l8 1v-700h-64v618q-65 -91 -131 -179l-13 50l-14 15q146 199 292 430l61 -25l-42 -64h551l-8 -57h-81v-536l132 14zM486 699v-146
h267v94q0 39 -1 53q-178 0 -266 -1zM486 358h267v140q-148 2 -267 -1v-139zM753 156v145q-132 2 -267 0v-173z" />
    <glyph glyph-name="uni4F76" unicode="&#x4f76;" 
d="M883 615q-75 1 -244 1v-148h241l-8 -58q-168 2 -516 0l5 39l-9 19h222v148q-83 0 -225 -2l5 40l-8 20h228v127q0 30 -5 48q43 -10 70 -8v-167h253zM262 588v-650h-63v590q-73 -99 -143 -188l-12 49l-14 14q150 195 316 444l60 -25q-90 -132 -163 -234q10 -1 19 0z
M807 304q22 0 21 -22q-3 -108 -6 -304h-431l10 328zM755 250h-295v-211h295v211z" />
    <glyph glyph-name="uni4F7B" unicode="&#x4f7b;" 
d="M261 596l8 1v-682h-65v590q-75 -117 -137 -209l-14 53l-15 16q145 218 297 480l61 -24zM911 14q29 0 49 14l-15 -73h-209q-61 0 -61 58v825q30 -14 61 -12v-309q85 109 145 197l47 -38q-68 -101 -151 -199l-23 29l-18 4v-100l212 -164l-35 -54l-177 139v-317h175z
M515 833h66l-26 -884h-36l-30 -28q12 400 11 380l-153 -160l-12 42l-22 17l189 188l2 59q2 40 2 59l-47 -37l-127 202l47 35l127 -197z" />
    <glyph glyph-name="uni4F7C" unicode="&#x4f7c;" 
d="M601 690l-45 144l66 17l52 -161h240l-8 -59q-300 2 -541 -1l5 40l-9 20h240zM400 813q-99 -155 -152 -233q3 1 7 1v-665h-65v579q-51 -73 -131 -181l-14 48l-15 14q148 205 308 461zM671 583l41 41l192 -198l-41 -43zM320 335l-19 9q151 165 242 279l39 -47
q-110 -137 -245 -275zM948 -36l-24 -10l-15 -41l-291 268q-134 -151 -254 -273l-25 29l-27 4q118 125 258 285l-140 129l46 39l134 -122q53 60 129 153l53 -40q-83 -101 -133 -158z" />
    <glyph glyph-name="uni4F7E" unicode="&#x4f7e;" 
d="M259 596v-678h-62v610q-72 -105 -133 -190l-15 46l-14 13q141 203 286 447l62 -24q-79 -130 -141 -224q9 -2 17 0zM949 466l-24 -8l-20 -39l-259 369l47 40zM808 538q16 0 16 -17v-608l-79 38l16 7v176q-143 2 -289 0v-218h-61v562q0 22 -1 31q-33 -51 -86 -126l-14 46
l-15 12q105 155 231 374l61 -25q-75 -127 -156 -249l13 -3h364zM761 480q-125 3 -289 1v-115h289v114zM761 188v124q-142 2 -289 0v-124h289z" />
    <glyph glyph-name="uni4F7F" unicode="&#x4f7f;" 
d="M950 -80l-433 196q-59 -88 -133 -188l-41 7l-39 -11q96 130 155 218l-181 82l28 51l187 -83l68 107h-223l10 280q114 -1 237 -1v94l-134 -1q-86 0 -128 -1l5 39l-9 19h266v63q0 41 -5 60q48 -13 70 -10v-113h272l-9 -57l-263 1v-94q99 -1 220 -1q21 0 20 -19
q-3 -92 -6 -259h-248l-85 -133l411 -182l-16 -21zM360 818q-94 -156 -126 -207l7 1v-689h-65v597q-68 -105 -127 -190l-12 55l-13 15q133 201 274 446zM406 360h179v162h-179v-162zM650 522v-162h167v162h-167z" />
    <glyph glyph-name="uni4F83" unicode="&#x4f83;" 
d="M265 590v-673h-65v599q-69 -103 -124 -180l-16 47l-16 12q139 199 291 448l61 -21q-63 -101 -147 -233q11 0 16 1zM388 438l10 328q369 -2 436 -3q22 0 22 -22q-3 -108 -7 -303h-461zM459 496h322v216h-322v-216zM637 381v-403h-60v364q0 33 -5 48q41 -11 65 -9zM940 9
q26 0 44 13l-14 -71h-156q-58 0 -58 54v382q30 -14 63 -11v-367h121zM336 -81q44 248 77 462h65q2 9 -76 -443l-36 3z" />
    <glyph glyph-name="uni4F84" unicode="&#x4f84;" 
d="M239 599l11 1v-682h-65v594q-62 -97 -121 -185l-15 53l-14 16q145 219 280 453l61 -23l-33 -56h580l-9 -63l-276 1q-80 -116 -165 -231h303q-34 59 -67 119l53 31l136 -236l-55 -34l-33 58h-346v-1h-67q-22 0 -28 13t6 30l178 250q-148 0 -217 -1l5 42q-2 6 -5 11
q-69 -116 -97 -160zM950 39l-10 -63q-340 3 -645 -1l5 42l-9 22h295v161q-89 0 -243 -2l5 43l-9 20h247v91q0 33 -5 47q52 -11 75 -8v-130h216l-8 -62q-65 1 -208 1v-161h294z" />
    <glyph glyph-name="uni4F88" unicode="&#x4f88;" 
d="M262 586v-675h-62v612q-79 -120 -141 -206l-14 48l-14 14q148 216 299 471l61 -23q-71 -118 -149 -240q7 -1 20 -1zM342 550l-18 11q129 130 256 283l59 -24q-17 -21 -62 -72h285q18 0 22 -13q5 -13 -7 -25q-213 -195 -490 -409l-22 22l-26 9q128 98 238 191l-77 64
l40 41l82 -67q63 54 145 131h-240q-79 -86 -171 -177zM916 370q18 0 23 -13q5 -14 -7 -26q-204 -203 -453 -410l-26 22l-30 6q114 96 192 165l-79 72l43 38l79 -70q68 62 167 161h-226q-99 -99 -222 -211l-18 27l-24 6q198 189 336 339l68 -17q-56 -60 -85 -89h262z" />
    <glyph glyph-name="uni4F89" unicode="&#x4f89;" 
d="M238 585v-662h-61v589q-58 -97 -106 -173l-17 46l-16 13q126 201 260 451l60 -19q-84 -152 -138 -245q11 -1 18 0zM698 677q58 -50 265 -226l-22 -13l-10 -39l-306 264l10 14h-78q-120 -154 -241 -294l-18 34l-20 5q124 151 203 254q-111 0 -163 -1l5 38l-8 19h209
q56 74 83 112l69 -11l-76 -101h314l-8 -56zM744 459q-144 3 -294 0l5 37l-7 16h301zM311 364h610l-9 -55q-124 1 -406 1l-23 -118h318q18 0 15 -19q-9 -66 -30 -256l-82 37l22 6q13 110 20 175h-275v-1h-63l35 175l-129 -1l5 38z" />
    <glyph glyph-name="uni4F8B" unicode="&#x4f8b;" 
d="M235 610v-689h-62v601q-43 -77 -106 -180l-16 49l-14 14q116 196 242 438l59 -21q-73 -136 -115 -212q6 -1 12 0zM899 834v-927l-101 54l39 5v868h62zM684 708l-181 1q-36 -98 -55 -147h190q24 0 16 -25q-136 -413 -207 -603l-34 12l-27 -2q40 107 104 294l-96 75l31 52
q52 -41 85 -66l70 208h-154q-58 -147 -110 -265l-28 29l-22 -2q88 208 170 439q-82 0 -120 -1l5 41l-7 18h376zM752 638v-500h-59v453q0 40 -5 57q42 -11 64 -10z" />
    <glyph glyph-name="uni4F8D" unicode="&#x4f8d;" 
d="M953 459q-58 1 -184 1v-131h182l-9 -59l-173 1v-354l-114 56l48 6v292q-132 0 -356 -2l5 40l-9 20h360v131q-136 0 -368 -2l5 40l-9 20h274v140l-203 -1l5 39l-8 19h206v99q0 28 -4 43q43 -10 70 -8v-134h227l-8 -58q-68 1 -219 1v-140h292zM270 574v-654h-65v597
q-40 -59 -139 -194l-12 54l-13 15q148 204 309 462l60 -27q-78 -123 -166 -252q13 -3 26 -1zM447 232l176 -132l-43 -46l-176 134z" />
    <glyph glyph-name="uni4F8F" unicode="&#x4f8f;" 
d="M251 568v-659h-63v592q-47 -77 -118 -186l-17 46l-15 12q123 193 266 457l62 -20q-79 -142 -138 -242q13 -1 23 0zM967 10l-21 -10l-15 -38q-253 316 -278 348v-400h-64v390q-126 -170 -277 -345l-19 31l-22 7q159 192 276 350q-160 0 -235 -1l5 39l-9 19h281v170
q-104 0 -153 -1q-32 -79 -63 -145l-30 14h-22q56 122 120 315l62 -5l-44 -120h130v97q0 65 -7 99q46 -19 71 -16v-180h227l-6 -58l-221 1v-171h277l-9 -58q-70 1 -223 1q37 -45 269 -333zM653 343z" />
    <glyph glyph-name="uni4F91" unicode="&#x4f91;" 
d="M926 647q-112 1 -362 1l-71 -117h342q16 0 16 -18v-612l-84 39l17 8v173q-139 2 -283 0v-194h-63v516q-59 -93 -123 -187l-22 34l-21 9q105 156 218 348q-118 0 -173 -1l5 41l-9 20h212l84 148l66 -15q-11 -20 -77 -133h337zM245 578v-652h-63v598q-68 -105 -127 -190
l-14 54l-13 15q135 200 278 444l61 -25q-98 -160 -150 -243q15 -3 28 -1zM784 473q-139 2 -283 0v-111h283v111zM784 176v131q-139 2 -283 0v-131h283z" />
    <glyph glyph-name="uni4F94" unicode="&#x4f94;" 
d="M251 586v-667h-63v598q-56 -86 -125 -183l-15 49l-15 14q134 195 287 452l63 -23q-95 -155 -150 -240q11 -1 18 0zM386 543q-21 0 -27 13q-5 12 6 28q35 50 92 128q65 90 96 134l69 -16q-93 -129 -167 -229h329l-98 133l54 29l179 -241l-54 -31q-25 35 -38 52h-441z
M945 197l-9 -60q-84 1 -271 1v-222h-67v222q-108 0 -292 -2l5 40l-9 21h296v152l-92 -1q-59 0 -88 -1q-26 -51 -68 -126l-31 20l-23 -3q70 131 137 275l63 -8l-47 -98h149v60q0 44 -6 69q49 -14 73 -11v-118h223l-8 -59l-215 1v-152h280z" />
    <glyph glyph-name="uni4F97" unicode="&#x4f97;" 
d="M230 603q9 0 13 1v-687h-62v610q-78 -117 -124 -183l-16 47l-15 13q129 187 280 437l59 -21zM874 765q15 0 15 -17v-848l-83 41l19 7v757q-165 3 -401 -1v-793h-61v774q0 59 -6 93q24 -10 41 -13h476zM484 592h300l-4 -54q-145 2 -294 0l5 37zM724 431q15 0 14 -17
l-5 -289h-232l8 308zM682 377h-128v-192h128v192z" />
    <glyph glyph-name="uni4F9B" unicode="&#x4f9b;" 
d="M938 310l-9 -59q-337 3 -637 -1l5 40l-9 20h169v248l-135 -1l5 40l-9 20h139v159q0 37 -5 62q47 -13 69 -10v-211h172v164q0 37 -5 64q46 -14 69 -11v-217h144l-8 -60l-136 1v-248h181zM225 593q12 -1 19 0v-670h-64v603q-69 -100 -124 -174l-13 52l-13 14
q129 180 282 422l59 -26zM693 310v248q-86 2 -172 0v-248h172zM736 229l185 -272l-51 -42l-185 275zM316 -53q86 144 153 279l55 -35q-75 -147 -155 -274l-30 27z" />
    <glyph glyph-name="uni4F9D" unicode="&#x4f9d;" 
d="M926 466q-65 -70 -188 -182q94 -155 190 -315l-26 -4l-25 -39l-331 550l-68 -92h18v-347l154 92l20 -54l-268 -169l-5 40l-17 21l51 31v324q-63 -81 -133 -166l-18 39l-20 10q153 191 305 417l-126 -1q-81 0 -121 -1l5 42l-9 21h283l-68 139l68 16l77 -155h262l-9 -62
q-87 1 -279 1l-64 -93l4 3l117 -193q125 119 177 177zM245 565v-653h-65v581q-49 -76 -119 -178l-15 55l-13 15q132 196 282 452l62 -26q-100 -165 -151 -246q10 -1 19 0z" />
    <glyph glyph-name="uni4FA0" unicode="&#x4fa0;" 
d="M262 599v-670h-62v600q-53 -82 -136 -201l-15 48l-14 13q145 215 293 469l61 -23q-83 -139 -144 -236h17zM937 292q-112 1 -364 1q-20 -72 -99 -347l-39 3l-34 -22l106 365q-127 0 -187 -1l5 40l-9 20h207q45 158 79 287l-117 -1q-75 0 -112 -1l5 38l-8 19h247
q7 25 20 76q14 50 20 75h71l-43 -151h225l-8 -56l-232 1l-81 -287h357zM683 399q93 114 159 205l47 -37q-61 -85 -161 -204l-24 30zM538 414l-54 -33l-120 181l53 31zM952 -31l-26 -11l-18 -40l-304 319l46 44z" />
    <glyph glyph-name="uni4FA3" unicode="&#x4fa3;" 
d="M394 832q-96 -150 -149 -228q3 1 7 1v-678h-63v595q-64 -93 -132 -183l-14 50l-14 14q149 206 303 454zM829 450h-427l10 329q343 -2 403 -3q21 0 20 -21q-3 -108 -6 -305zM763 721h-293v-209h293v209zM876 327q-4 -119 -7 -335h-508l11 362q405 -2 479 -3q25 0 25 -24z
M797 297h-361v-244h361v244z" />
    <glyph glyph-name="uni4FA5" unicode="&#x4fa5;" 
d="M236 576v-660h-64v590q-62 -93 -117 -171l-15 50l-14 13q132 192 278 438l62 -24q-77 -126 -148 -236q11 -1 18 0zM511 685q-39 97 -58 146h69q16 0 21 -11l55 -122l266 38l-2 -57q-75 -10 -241 -34l37 -92q84 42 165 84l26 -55l-169 -85q27 -71 33 -98h153q28 0 49 12
l-21 -64h-211q-30 0 -42 25q-38 92 -37 88q-153 -74 -284 -129l-9 34l-19 14q132 59 289 136q-12 27 -49 117q-30 -4 -189 -28l2 39l-10 17zM909 10q29 0 48 13l-14 -73h-274q-58 0 -58 56v233h-78q-85 -166 -175 -316l-38 7l-36 -14q86 146 177 322q-118 0 -173 -1l4 39
l-8 20h601l-9 -58l-201 1v-229h234z" />
    <glyph glyph-name="uni4FA6" unicode="&#x4fa6;" 
d="M263 602v-678h-65v606q-88 -126 -137 -192l-13 54l-12 15q150 210 295 442l60 -27q-93 -144 -144 -220q9 -1 16 0zM919 746l-6 -58q-132 2 -276 0v-111h203q17 0 17 -18v-399h-63v358q-195 2 -354 -1v-375h-63v393q0 35 -5 51q27 -7 50 -9h149v236q0 24 -4 36
q44 -9 70 -7v-96h282zM695 461q-129 -301 -238 -537l-41 5l-35 -17q146 310 242 549h72zM657 209l250 -246l-47 -49l-250 250z" />
    <glyph glyph-name="uni4FA7" unicode="&#x4fa7;" 
d="M241 612v-688h-59v617q-38 -70 -106 -184l-19 42l-16 11q109 186 236 442l60 -17q-75 -146 -116 -223q11 -1 20 0zM907 832v-911l-90 38l36 6v867h54zM350 721q0 42 -5 61q27 -9 41 -10h240q16 0 16 -18v-536h-54v499q-92 2 -187 0v-502h-51v506zM775 735v-591h-52v537
q0 44 -5 64q38 -13 57 -10zM571 637l-87 -333q-53 -206 -95 -362l-31 3l-29 -20q100 366 184 712h58zM517 217l164 -213l-46 -36l-164 214z" />
    <glyph glyph-name="uni4FA8" unicode="&#x4fa8;" 
d="M276 593v-663h-65v609q-56 -83 -149 -209l-14 48l-14 14q141 194 304 455l60 -24q-81 -127 -149 -229q14 -3 27 -1zM964 313l-20 -13l-11 -42l-270 259l6 8h-89q-94 -147 -207 -310l-18 41l-19 5q64 94 170 263q-103 0 -152 -1l5 40l-9 21h193l88 148q-116 -20 -209 -32
l-6 35l-15 19q220 33 447 82l16 -60q-39 -8 -145 -28q-46 -76 -101 -164h318l-9 -60q-59 1 -187 1zM788 339v-418h-65v377q0 34 -4 50q43 -11 69 -9zM432 -87q47 200 92 429h67q-17 -76 -43 -198q-34 -157 -47 -214l-38 4z" />
    <glyph glyph-name="uni4FA9" unicode="&#x4fa9;" 
d="M236 592q9 0 14 1v-670h-65v590q-50 -76 -118 -176l-16 47l-15 13q139 207 283 452l61 -22zM964 450l-21 -15l-11 -45l-346 310q-115 -149 -253 -312l-23 27l-24 3q172 210 326 424l71 -12q-38 -52 -58 -78q26 -24 339 -302zM767 418q-157 3 -323 0l5 40l-7 18h331z
M733 183l169 -234l-54 -31l-28 40h-410v1h-28q-21 0 -27 12q-5 12 5 28l173 247q-136 0 -200 -1l5 40l-8 20h553l-9 -59l-261 1q-43 -64 -161 -229h325l-97 136z" />
    <glyph glyph-name="uni4FAA" unicode="&#x4faa;" 
d="M248 591v-665h-64v597q-46 -65 -123 -168l-13 50l-14 14q139 190 287 424l62 -25q-92 -142 -152 -227q10 -1 17 0zM939 342l-18 -17l-2 -44q-163 91 -316 175q-142 -105 -264 -189l-19 30l-25 9q116 83 249 183l-160 89l34 48l178 -97q90 69 160 125q-147 1 -421 -1l5 40
l-9 20h272q-17 35 -52 112l66 16l60 -128h235l-9 -60q-39 0 -59 1q1 -2 5 -6q-78 -63 -193 -152zM370 -63q68 214 115 395h70l-114 -381l-38 4zM776 301v-373h-65v336q0 30 -4 45q43 -10 69 -8z" />
    <glyph glyph-name="uni4FAC" unicode="&#x4fac;" 
d="M930 -6l-25 -4l-23 -36q-308 479 -332 518q-19 -29 -40 -64v-369q70 43 143 89l20 -49l-249 -163l-5 37l-16 19l52 32v318q-76 -119 -140 -211l-23 30l-22 2q163 250 308 499h-167v-146h-59v181q0 19 -4 27q18 -3 42 -5h199v121q0 17 -4 25q42 -7 70 -5v-141l220 1
q15 0 15 -15v-173h-60v129q-56 1 -178 1q-34 -60 -72 -120q1 0 5 3q70 -107 132 -204q86 83 145 147l44 -46q-59 -65 -155 -152q89 -138 179 -276zM239 583v-661h-61v593q-59 -93 -120 -184l-14 52l-13 14q127 199 268 447l61 -24q-68 -120 -140 -237h19z" />
    <glyph glyph-name="uni4FAE" unicode="&#x4fae;" 
d="M305 555q89 129 187 294l59 -23l-53 -86h431l-7 -58q-254 2 -462 -1q-57 -88 -124 -184l-16 46zM251 594v-678h-64v609q-63 -101 -118 -184l-16 49l-15 13q127 199 262 443l63 -22q-96 -168 -134 -230q12 -1 22 0zM956 297l-111 1l-9 -192h101l-12 -56h-92l-7 -143
l-81 39l20 6l5 98h-327v-1h-59l20 249l-104 -1l5 38l-9 19h113q6 82 14 177q3 40 0 67q12 -4 18 -5h403q15 0 15 -17q-4 -90 -11 -222h117zM468 354h317l6 115q3 56 3 70q-151 2 -311 0q-4 -39 -15 -185zM711 397l-38 -33l-123 115l38 32zM773 106q1 31 4 87q3 54 5 105
q-158 2 -319 0l-15 -192h325zM571 278l122 -119l-38 -32l-122 119z" />
    <glyph glyph-name="uni4FAF" unicode="&#x4faf;" 
d="M261 587v-674h-64v599q-44 -66 -132 -187l-19 37l-20 10q144 201 310 477l65 -18q-90 -148 -154 -245q10 0 14 1zM710 787v1h55q20 0 15 -21l-44 -162h188l-8 -57q-325 2 -588 -1l5 39l-8 19h348q19 70 32 126q-176 2 -313 -1l5 39l-7 18h320zM944 -27l-23 -14l-11 -41
l-298 244l26 35q-26 2 -52 0q-68 -132 -144 -272l-40 5l-37 -14q87 156 151 281q-136 0 -200 -1l5 37l-9 19h231q46 92 68 139q-109 0 -160 -1q-47 -77 -82 -129l-26 25l-21 5q64 96 146 250l62 -12l-46 -82h410l-7 -56l-204 1l-70 -140h316l-9 -56q-79 1 -255 1z" />
    <glyph glyph-name="uni4FB5" unicode="&#x4fb5;" 
d="M240 591v-670h-64v592q-32 -50 -115 -168l-14 49l-15 13q129 187 279 438l60 -23l-13 -22h450q16 0 16 -16v-265h-471l4 33l-4 15h409v66q-211 2 -374 -1l5 32l-7 14h376v72q-235 2 -420 -1q4 30 5 33q-51 -83 -120 -192q9 0 13 1zM294 295v136q0 15 -4 23q16 -3 43 -5
h550q15 0 15 -14v-166h-61v130q-266 2 -483 -1v-103h-60zM937 -30l-18 -16l-1 -41l-318 171q-94 -73 -228 -157l-13 31l-18 12q128 86 203 145q-59 31 -146 78l28 48l162 -86q78 80 115 120h-313l3 34l-3 17h391q17 0 21 -11q3 -11 -6 -23q-74 -85 -154 -165z" />
    <glyph glyph-name="uni4FBF" unicode="&#x4fbf;" 
d="M936 -62l-415 169q-67 -89 -138 -174l-38 8l-38 -9q82 100 157 199q-48 19 -138 56l23 55l152 -61q26 35 59 82h-206l11 401q106 -1 220 -1v89h-245v52l-102 -173q10 -1 19 0v-693h-62v623q-74 -119 -135 -210l-17 48l-15 13q136 209 266 438l61 -20l-12 -20h579l-12 -58
h-262v-90l201 -1q25 0 25 -26q-4 -133 -7 -372h-234q-37 -54 -75 -105l393 -159l-17 -19zM420 612v-116h166v116h-166zM804 612h-159v-116h159v116zM420 318h166v127h-166v-127zM804 318v127h-159v-127h159z" />
    <glyph glyph-name="uni4FC3" unicode="&#x4fc3;" 
d="M259 563v-650h-63v594q-63 -94 -128 -185l-12 54l-12 15q138 200 287 448l60 -27q-81 -131 -157 -248q13 -3 25 -1zM950 -71q-485 171 -529 187q-38 -109 -74 -201l-32 22l-23 -6q81 221 148 442l64 -7q-16 -52 -64 -196q4 -2 170 -59v310q0 13 -1 18h-201l10 329l408 -2
q21 0 21 -21q-4 -109 -7 -306h-170v-128h226l-4 -55q-106 2 -222 0v-165l295 -102l-17 -18zM474 499h303v213h-303v-213z" />
    <glyph glyph-name="uni4FC4" unicode="&#x4fc4;" 
d="M235 592v-676h-63v594q-34 -55 -109 -170l-16 48l-14 13q120 187 261 440l61 -21q-109 -189 -134 -229q10 0 14 1zM877 -35q20 0 39 11l-22 -59h-131q-28 0 -38 10q-11 10 -13 37l-16 179q-85 -85 -152 -148l-16 32l-22 9q108 106 183 185l-21 248q-118 0 -177 -1v-157
l126 51l14 -54l-140 -60v-348l-101 53l38 5v262q-60 -25 -127 -54l-2 39l-15 23l144 58q-1 89 -1 182l-146 -1l5 39l-9 20h150v145q-29 -7 -116 -25l-7 35l-14 17q158 36 315 80l18 -57q-44 -12 -132 -34v-161h172l-25 307h49q20 0 21 -18q19 -175 30 -289h174l-10 -58
q-104 0 -159 1l17 -173q41 44 109 120l40 -47q-67 -76 -142 -154q15 -184 17 -250h93zM866 589l-136 153l49 36l136 -150z" />
    <glyph glyph-name="uni4FC5" unicode="&#x4fc5;" 
d="M240 598v-669h-65v597q-82 -120 -119 -171l-12 54l-12 15q127 182 269 416l60 -27q-89 -140 -138 -215q9 -2 17 0zM957 93l-21 -13l-12 -43l-294 269v-374l-100 53l34 6v282l-268 -223l-9 43l-20 18l297 236v252q-162 0 -238 -1l5 40l-8 20h241v181h66v-181h269l-9 -60
q-81 1 -260 1v-209q19 -19 31 -28q103 93 184 179l45 -42q-72 -77 -186 -177q99 -89 253 -229zM810 662l-111 120l48 36l110 -118zM518 359l-50 -39l-139 174l50 38z" />
    <glyph glyph-name="uni4FCA" unicode="&#x4fca;" 
d="M370 566q-20 0 -26 13q-5 12 7 27q80 98 193 245l57 -26q-134 -167 -163 -204h324l-95 106l43 37l199 -219l-43 -39q-33 36 -54 60h-442zM234 561v-641h-61v566q-75 -110 -117 -169l-12 53l-12 15q143 205 295 459l59 -26q-87 -140 -164 -258zM934 -35l-20 -14l-6 -40
q-165 113 -306 211q-92 -86 -241 -215l-23 24l-26 8q158 138 240 216q-47 33 -123 85l24 42q-60 -79 -126 -162l-18 29l-22 3q146 192 258 359l65 -12l-84 -119h285q9 0 16 -5l-136 149l42 39l195 -212l-41 -41l-55 60q8 -14 -5 -27q-81 -83 -182 -181zM493 502
q-83 -72 -191 -150l-16 33l-18 10q114 87 190 154zM459 289q80 -54 136 -93q65 64 132 132h-239z" />
    <glyph glyph-name="uni4FCE" unicode="&#x4fce;" 
d="M67 432l-25 -1q127 196 245 407l70 -10q-27 -47 -83 -141l183 -191l-53 -42q-128 135 -165 175q-71 -114 -144 -223zM966 38l-9 -63q-304 3 -575 -1l5 42l-9 22h124v678q0 56 -6 87q24 -9 40 -12h316q20 0 20 -24v-729h94zM804 729q-117 2 -237 0v-190h237v190zM567 294
h237v186q-117 2 -237 0v-186zM372 67q-105 121 -144 165q-63 -119 -141 -253l-29 27l-23 1q110 197 221 423l70 -9q-10 -21 -65 -128l161 -184zM804 38v197q-116 2 -237 0v-197h237z" />
    <glyph glyph-name="uni4FCF" unicode="&#x4fcf;" 
d="M259 598v-681h-66v603q-40 -63 -122 -183l-14 53l-14 15q135 200 278 444l61 -25q-82 -135 -139 -226q9 -1 16 0zM871 542q16 0 16 -18v-623l-84 40l18 8v180q-201 2 -363 -1v-219h-64v572q0 50 -5 72q20 -7 40 -11h189v265q0 24 -5 39q44 -9 69 -7v-297h189zM738 606
l-22 6q101 128 150 201l47 -42q-61 -89 -152 -197zM507 577l-135 191l56 28l137 -189zM821 486q-201 2 -363 -1v-115h363v116zM821 186v128q-179 3 -363 0v-128h363z" />
    <glyph glyph-name="uni4FD0" unicode="&#x4fd0;" 
d="M235 590v-672h-62v591q-28 -45 -105 -163l-15 46l-15 13q118 184 262 441l59 -22q-99 -172 -137 -234q7 -1 13 0zM900 835v-920l-98 49l38 6v865h60zM549 387l140 -178l-49 -36q-102 133 -125 162v-412h-61v475q-82 -175 -158 -320l-22 40l-17 8q82 161 167 352
q-89 0 -130 -1l5 42l-8 18h163v112q0 26 -2 54l-120 -25l-8 34l-13 17q179 39 326 81l18 -57q-9 -3 -140 -36v-180h162l-6 -59l-156 1v-116zM758 628v-522h-56v473q0 40 -5 59q36 -12 61 -10z" />
    <glyph glyph-name="uni4FD1" unicode="&#x4fd1;" 
d="M243 600v-680h-62v605q-40 -61 -125 -183l-14 49l-14 13q130 189 283 445l60 -23q-70 -116 -141 -226h13zM873 555q16 0 16 -18v-628l-82 39l17 8v192q-54 1 -169 1v-207h-63v207q-122 0 -180 -1v-225h-61v571q0 50 -5 71q31 -9 40 -10h196l-134 106l44 39l113 -88
q85 74 141 130q-132 1 -379 -1l5 39l-8 19h483q16 0 20 -11q4 -12 -6 -21q-87 -84 -212 -189q4 -4 21 -17l-6 -6h209zM412 382h180v117q-123 0 -180 -1v-116zM824 498q-54 1 -169 1v-117h169v116zM824 204v123q-54 1 -169 1v-124h169zM592 204v124l-91 -1q-60 0 -89 -1v-122
h180z" />
    <glyph glyph-name="uni4FD7" unicode="&#x4fd7;" 
d="M252 594v-672h-63v603q-76 -114 -121 -180l-14 53l-13 14q135 202 274 438l60 -25q-87 -144 -142 -231q10 -1 19 0zM328 600q114 111 216 224l42 -41q-107 -118 -216 -217l-19 29zM885 597l-222 184l44 42l222 -183zM961 311l-18 -15l-8 -42q-292 238 -335 272
q-117 -144 -262 -303l-13 36l-21 8q177 201 327 398l70 -13q-42 -54 -64 -80q45 -37 324 -261zM809 303q22 -1 21 -22q-3 -111 -6 -313h-405l10 337zM758 249h-271v-221h271v221z" />
    <glyph glyph-name="uni4FD8" unicode="&#x4fd8;" 
d="M378 737q207 42 463 111l17 -58q-266 -70 -459 -105l-7 34zM271 589v-671h-63v599q-56 -86 -136 -199l-14 52l-14 15q136 194 293 450l59 -24q-77 -124 -141 -222q9 -1 16 0zM715 496q90 147 130 225l54 -22q-56 -103 -131 -220l-30 18zM569 686l55 22l55 -184l-56 -24z
M370 629l50 30l82 -152l-51 -32zM962 232l-9 -59q-94 1 -302 1v-270l-94 46l28 4v220q-101 0 -277 -2l5 40l-9 20h281v47h12q109 88 163 135q-226 2 -398 -1l5 40l-8 19h482v-1h28q19 0 23 -14q5 -13 -8 -23q-162 -134 -233 -188v-14h311z" />
    <glyph glyph-name="uni4FDA" unicode="&#x4fda;" 
d="M251 590v-673h-64v607q-84 -120 -130 -182l-13 51l-14 14q148 208 293 440l62 -25q-74 -114 -153 -232q10 -1 19 0zM955 19l-9 -59q-312 3 -636 0l5 39l-9 20h297v142q-85 0 -229 -2l5 40l-9 19h233v111h-213l11 450l454 -4q29 0 28 -29q-3 -149 -7 -417h-208v-111h239
l-8 -58q-72 1 -231 1v-142h287zM457 725v-142h148v142h-148zM812 725h-147v-142h147v142zM812 385v142q-47 1 -147 1v-143h147zM457 385h148v143l-75 -1q-49 0 -73 -1v-141z" />
    <glyph glyph-name="uni4FDC" unicode="&#x4fdc;" 
d="M255 589v-662h-61v597q-70 -108 -130 -196l-14 52l-13 15q139 207 283 452l60 -24q-82 -135 -144 -234q10 -1 19 0zM580 796q0 33 -4 49q39 -11 63 -9v-86l192 -1q23 0 22 -23q-3 -115 -6 -318h-478l10 344q96 -1 201 -1v45zM431 704v-94h149v94h-149zM639 704v-94h148
v94h-148zM431 458h149v107q-101 0 -149 -1v-106zM787 458v106q-47 1 -148 1v-107h148zM928 285q-204 2 -431 0l-2 -86h307q17 0 15 -16q-7 -71 -25 -272l-78 34l19 7l17 194h-318l4 139l-128 -1l5 36l-8 18h632z" />
    <glyph glyph-name="uni4FDD" unicode="&#x4fdd;" 
d="M381 820q-84 -139 -132 -213h1v-686h-64v588q-78 -117 -116 -170l-15 52l-14 15q71 104 139 212v2h1q33 51 137 225zM964 2l-25 -9l-17 -37l-279 321l31 29h-37v-391h-63v360q-130 -168 -258 -310l-28 21l-24 5q145 171 255 315l-108 -1q-69 0 -104 -1l5 41l-9 20h271v87
q0 23 -1 32h-190l10 307l419 -2q20 0 19 -20q-3 -101 -6 -285h-188v-119h294l-10 -60q-71 1 -225 1zM449 545h312v189h-312v-189z" />
    <glyph glyph-name="uni4FDE" unicode="&#x4fde;" 
d="M523 792l426 -235l-20 -17l-2 -42l-456 252q-189 -148 -396 -295l-12 33l-23 12q293 219 445 349l73 -29q-6 -4 -17 -14zM640 559q-174 2 -315 -1l5 37l-7 17h322zM770 520h66v-603l-105 52l39 6v545zM476 480q15 0 15 -17v-542l-78 37l15 8v150q-102 2 -208 0v-176h-61
v487q0 36 -5 61q22 -7 33 -8h289zM659 473v-395h-58v357q0 26 -5 46q44 -11 63 -8zM428 426q-102 2 -208 0v-101h208v101zM428 168v106q-69 1 -208 -1v-105h208z" />
    <glyph glyph-name="uni4FDF" unicode="&#x4fdf;" 
d="M229 568v-647h-62v583q-44 -66 -113 -163l-14 50l-14 14q138 199 278 434l62 -25q-97 -156 -156 -246q10 -1 19 0zM384 539q-21 0 -27 14q-6 12 6 28q164 214 190 249l60 -27l-160 -208h310l-95 124l51 32l177 -228l-52 -34l-38 50h-422zM667 177q54 -44 273 -219
l-22 -14l-9 -41l-308 251l14 23h-52q-50 -99 -129 -245l-40 6l-37 -15q96 176 136 253q-138 0 -203 -1l5 39l-8 20h235q31 61 71 146q-119 0 -175 -1q-37 -59 -83 -123l-23 29l-21 6q70 102 143 234l62 -15l-43 -74h402l-7 -57q-57 1 -183 1q-24 -50 -72 -146h325l-9 -58z
" />
    <glyph glyph-name="uni4FE1" unicode="&#x4fe1;" 
d="M246 578v-665h-64v597q-45 -61 -134 -173l-10 55l-13 15q146 188 305 424l62 -29q-109 -156 -160 -225q10 0 14 1zM944 676l-9 -55q-258 3 -627 -1l5 38l-8 18h283q-10 41 -36 140l66 13l41 -153h285zM845 472q-267 2 -482 -1l5 37l-8 18h492zM336 381h553l-8 -55
q-300 2 -542 -1l5 37zM824 231q19 0 18 -19q-3 -95 -6 -267h-461l10 288zM765 179h-317v-175h317v175z" />
    <glyph glyph-name="uni4FE3" unicode="&#x4fe3;" 
d="M259 592v-656h-61v589q-65 -91 -144 -193l-13 53l-13 15q153 202 315 449l61 -26q-104 -155 -159 -232q10 0 14 1zM836 531h-428l9 268l408 -1q18 -1 17 -18q-3 -90 -6 -249zM772 748h-298v-161h298v161zM917 217q-106 1 -343 1q-61 -149 -116 -277l-40 5l-33 -18
q69 159 121 289q-122 0 -179 -1l5 38l-9 19h206l47 123q-141 0 -206 -1l5 38l-8 18h538l-7 -55l-253 1q-9 -25 -24 -63l-25 -61h330zM975 -23l-22 -14l-10 -40l-316 246l34 48z" />
    <glyph glyph-name="uni4FE6" unicode="&#x4fe6;" 
d="M237 584v-671h-62v593q-50 -80 -114 -176l-17 48l-16 13q130 197 279 458l61 -21q-106 -181 -145 -245q10 0 14 1zM935 376q-135 1 -440 1l-39 -106h260v89h66v-89h138l-7 -57q-41 1 -131 1v-306l-105 53l39 5v248q-100 1 -282 -1q-48 -129 -99 -251l-30 29l-23 1
q85 219 144 383l-152 -1l5 39l-9 19h177q24 66 35 99l-144 -1l5 38l-9 18h168l37 105l-108 -1q-70 0 -105 -1l5 39l-8 19h235q12 33 34 97l66 -11l-30 -86h273l-9 -57q-88 1 -284 1l-37 -105h304l-8 -56q-97 1 -316 1l-36 -99h430zM545 181l120 -123l-44 -39l-119 124z" />
    <glyph glyph-name="uni4FE8" unicode="&#x4fe8;" 
d="M944 383l-9 -60q-255 3 -527 0l-44 -387l-36 3l-29 -24q28 233 51 468h157v315l-93 -1q-59 0 -89 -1l4 29q-63 -109 -106 -179q9 -1 16 0v-632h-60v560q-38 -61 -118 -184l-16 49l-15 14q146 228 287 484l63 -22q-22 -40 -34 -59h565l-8 -59q-52 1 -164 1v-315h205z
M566 383h113v315h-113v-315zM867 640l51 -28l-109 -181l-45 26zM435 429l-108 174l53 27l109 -173z" />
    <glyph glyph-name="uni4FE9" unicode="&#x4fe9;" 
d="M931 720q-62 1 -199 1v-137h155q15 0 15 -17v-654l-79 38l16 7v236q-2 -1 -42 -32q-73 101 -102 140l-41 -237l-31 3l-27 -21l40 227l-32 -21l-72 97q-18 -87 -47 -239l-31 3l-27 -19q50 248 82 433q-72 0 -107 -1v-607h-56v603q0 45 -6 72q29 -10 42 -11h128v137
q-121 0 -178 -1l5 40q-4 10 -7 15q-65 -109 -114 -187q11 -1 20 0v-673h-61v608q-58 -91 -111 -168l-16 48l-15 13q125 188 264 428l61 -22l-25 -42h608zM675 721q-53 1 -107 0v-137h107v137zM678 528q-56 2 -112 0l-27 -139l19 12l82 -109zM839 527q-33 1 -104 1l-31 -177
l14 10l121 -165v331z" />
    <glyph glyph-name="uni4FEA" unicode="&#x4fea;" 
d="M951 774l-9 -59q-263 3 -636 -1l5 36q-71 -123 -97 -166q9 0 13 1v-665h-61v584q-52 -85 -101 -161l-17 48l-15 13q115 180 260 444l61 -21l-30 -53h627zM556 615q14 0 14 -16v-680l-74 37l15 6v597q-73 2 -146 0v-635h-55v627q0 53 -5 75q28 -10 48 -12zM894 613
q14 0 14 -16v-682l-76 38l16 6v598q-73 2 -149 0v-628h-57v621q0 52 -5 74q30 -10 42 -11h215zM845 239l-48 -28l-93 206l47 26zM503 225l-48 -26l-79 209l47 24z" />
    <glyph glyph-name="uni4FED" unicode="&#x4fed;" 
d="M250 582v-656h-65v591q-56 -81 -132 -182l-11 54l-13 15q149 205 299 441l60 -27q-107 -163 -158 -236q11 -1 20 0zM646 750q29 -25 316 -279l-22 -14l-11 -44l-322 287q-107 -139 -261 -314l-14 37l-22 6q166 199 319 409l74 -12zM772 443q-102 2 -314 0l5 39l-7 18h322
zM604 381l78 -236l-59 -16l-76 237zM876 351q-63 -144 -156 -317h215l-9 -62q-296 3 -603 0l5 41l-9 21h336q95 183 166 344zM424 332l116 -238l-56 -25l-115 241z" />
    <glyph glyph-name="uni4FEE" unicode="&#x4fee;" 
d="M947 391l-19 -15l-5 -42l-270 168q-78 -59 -219 -161l-17 29l-24 12q134 95 207 152q-31 20 -91 57l35 46q65 -40 106 -64q56 44 126 104h-230q-39 -64 -104 -153l-24 24l-22 4q95 136 181 293l64 -12q-38 -65 -62 -104h293q18 0 23 -14q4 -14 -8 -25q-98 -83 -184 -150z
M232 599v-677h-61v593q-47 -84 -98 -171l-19 45l-16 11q113 195 233 436l60 -17q-56 -113 -115 -221q11 0 16 1zM378 639v-559h-58v506q0 38 -5 63q42 -13 63 -10zM421 255q171 88 309 169l26 -45q-172 -98 -308 -164l-11 29zM429 118q179 87 375 197l26 -45
q-205 -113 -373 -192l-11 29zM390 -54q193 86 471 228l29 -50q-269 -137 -470 -222l-10 31z" />
    <glyph glyph-name="uni4FEF" unicode="&#x4fef;" 
d="M597 467v-543h-58v483q-45 -66 -85 -120l-18 36l-14 6l-22 -391l-36 1l-29 -26q15 253 46 808h284l-46 113l63 18l55 -131h219l-9 -59q-276 2 -506 -1q-13 -233 -19 -324q99 139 198 304l60 -17q-55 -88 -101 -157h18zM262 605v-687h-61v604q-69 -110 -128 -197l-16 46
l-15 13q132 200 281 462l59 -20l-130 -222zM963 402q-31 1 -99 1v-498l-99 47l37 6v446l-83 -1q-54 0 -80 -1l5 40l-7 18h165v167h62v-167h104zM782 163l-52 -25l-107 192l52 24z" />
    <glyph glyph-name="uni4FF1" unicode="&#x4ff1;" 
d="M252 587v-664h-62v609q-55 -80 -136 -189l-13 49l-14 13q146 204 294 440l60 -24q-79 -125 -153 -234q14 -1 24 0zM961 223l-9 -57q-272 3 -659 -1l5 39l-8 19h116v508q0 42 -6 67q33 -10 44 -11h312v1h50q18 0 18 -20v-545h137zM761 733q-145 2 -296 0v-91h296v91z
M761 594q-145 2 -296 0v-93h296v93zM465 365h296v87q-127 3 -296 1v-88zM761 223v94q-145 2 -296 0v-94h296zM312 -40q127 110 214 196l35 -50q-102 -100 -215 -192l-15 35zM714 154l202 -189l-42 -46l-203 191z" />
    <glyph glyph-name="uni4FF3" unicode="&#x4ff3;" 
d="M943 204l-5 -58q-99 2 -208 0v-234h-61v833q0 65 -7 100q45 -19 68 -16v-182h194l-4 -58q-91 2 -190 0v-152h188l-4 -57q-87 2 -184 0v-176h213zM259 577v-667h-62v594q-77 -118 -124 -185l-15 48l-14 14q141 209 288 460l60 -23q-81 -135 -148 -242q10 0 15 1zM549 822
v-901h-62v230q-97 2 -193 0l5 41l-7 17h195v167q-87 2 -173 0l5 40l-7 17h175v155q-84 2 -165 0l5 40l-7 17h167v95q0 63 -7 97q45 -18 69 -15z" />
    <glyph glyph-name="uni4FF8" unicode="&#x4ff8;" 
d="M247 579v-663h-63v586q-60 -87 -126 -178l-14 48l-15 14q146 206 302 459l61 -23q-68 -109 -157 -244zM957 220l-20 -13l-12 -40l-247 235l6 7q-140 0 -209 -1q-54 -104 -137 -250l-21 38l-18 5q63 116 109 207l-105 -1l5 38l-8 19h137l41 80l-109 -1l5 35l-7 17h136
l44 87q-137 0 -200 -1l5 36l-8 18h229l51 106l65 -11l-47 -95h254l-8 -54q-173 2 -272 1q-30 -58 -44 -87h301l-6 -52q-204 2 -321 1l-42 -80h430l-8 -56q-55 1 -172 1q55 -52 203 -189zM637 117h246l-8 -56q-74 1 -238 1v-155h-62v155q-158 0 -231 -1l5 37l-8 19h234v104
q-86 0 -126 -1l5 38l-7 17h128v34q0 30 -5 52q42 -11 67 -9v-77h147l-5 -54l-142 1v-105z" />
    <glyph glyph-name="uni4FFA" unicode="&#x4ffa;" 
d="M906 -15q31 0 52 14l-15 -70h-332q-60 0 -60 57v100h-192l9 356l-63 -73l-14 37l-20 6q100 120 183 226l-128 -1l5 39l-9 19h176l104 139l69 -11q-22 -30 -97 -128h336l-8 -57l-210 1l244 -211l-16 -16l-7 -43l-289 254l15 16q-73 0 -110 -1q-68 -86 -156 -190l178 -1
v115q30 -14 60 -11v-104l185 -2q22 0 21 -22q-3 -121 -6 -337h-200v-101h295zM247 565v-652h-63v588q-82 -130 -123 -191l-18 50l-15 13q144 222 276 456l63 -21q-64 -111 -144 -243q14 -1 24 0zM419 397v-98h132v98h-132zM611 397v-98h142v98h-142zM753 140v112
q-45 1 -142 1v-113h142zM551 140v112q-90 0 -132 -1v-111h132z" />
    <glyph glyph-name="uni4FFE" unicode="&#x4ffe;" 
d="M258 579v-670h-62v604q-81 -124 -131 -195l-15 48l-15 14q140 208 292 466l61 -22q-71 -121 -150 -245q11 -1 20 0zM948 163l-9 -59q-74 1 -237 1v-202h-66v202q-120 0 -324 -2l5 40l-9 20h99q52 67 107 148h-140l11 423q62 0 141 -1q10 26 40 109l65 -10l-41 -99l249 -2
q27 0 27 -27q-4 -141 -7 -393h-276q-61 -90 -107 -148h160v75q0 29 -4 44q43 -10 70 -8v-111h246zM440 679v-121h151v121h-151zM795 679h-143v-121h143v121zM795 370v134h-143v-134h143zM440 370h151v134q-102 0 -151 -1v-133z" />
    <glyph glyph-name="uni500C" unicode="&#x500c;" 
d="M250 598v-673h-62v612q-58 -83 -133 -186l-14 51l-14 14q140 194 292 436l61 -25q-94 -148 -150 -229q11 -1 20 0zM836 548v106q-179 3 -434 -1v-98q23 -5 39 -7h368q14 0 14 -14v-203h-21v-1h-346v-97h388q17 0 17 -17v-244h-26v-2h-446v522q0 38 -3 59h-47v142
q0 15 -3 24q17 -3 44 -5h203l-37 127l65 13l42 -140h233q16 0 16 -16v-148h-66zM764 498q-172 2 -308 -1v-114h308v115zM794 178q-167 3 -338 0v-150h338v150z" />
    <glyph glyph-name="uni500D" unicode="&#x500d;" 
d="M233 583v-661h-62v592q-84 -118 -119 -165l-15 48l-15 12q130 180 294 440l63 -23q-134 -204 -161 -244q10 0 15 1zM578 703q-15 41 -48 127l66 15l56 -142h249l-8 -58q-274 3 -559 0l5 39l-9 19h248zM953 435l-9 -60q-281 3 -679 -1l5 40l-9 21h221l-84 162l60 20
l86 -161l-58 -21h151q64 93 128 197l55 -30q-37 -63 -109 -167h242zM809 280q21 0 21 -21q-4 -105 -7 -300h-457l10 323zM754 225h-316v-203h316v203z" />
    <glyph glyph-name="uni500F" unicode="&#x500f;" 
d="M350 829q-78 -150 -121 -228l10 1v-681h-60v590q-66 -115 -100 -171l-17 45l-15 12q124 212 245 450zM401 385q125 93 210 162q-90 55 -101 60l-63 -88l-23 24l-22 4q98 139 183 293l65 -12l-53 -88h255v-1h16q18 0 23 -13q4 -13 -8 -25q-91 -80 -170 -145l242 -141
l-19 -16l-3 -41q-142 84 -269 158q-103 -81 -228 -175l-14 31zM659 587q50 40 118 101h-213l-22 -33zM384 641v-555h-56v503q0 39 -6 63q40 -13 62 -11zM731 387l49 25l97 -130l-50 -27zM926 198q-147 2 -313 0q-40 -94 -120 -273l-39 5l-34 -16q68 147 127 284
q-92 0 -136 -1l5 39l-8 18h162q35 82 63 157h70l-66 -157h296zM683 182l255 -207l-46 -45l-256 210z" />
    <glyph glyph-name="uni5012" unicode="&#x5012;" 
d="M224 609v-678h-59v604q-52 -93 -105 -181l-16 50l-14 13q113 196 234 431l59 -20q-73 -139 -117 -219q11 -1 18 0zM887 834v-921l-94 51l34 6v864h60zM286 758h389l-6 -58q-59 1 -191 1q-47 -112 -94 -214h182l-53 123l51 16l98 -223l-52 -19l-21 49q-97 2 -202 0v-4h-59
q-35 0 -22 35t104 236q-82 0 -121 -1l5 40zM747 611v-471h-56v426q0 38 -5 54q41 -10 61 -9zM654 128l3 -55l-358 -98l1 36l-12 23l144 37v163l-146 -1l5 40l-8 18h149v87q0 29 -5 43q42 -10 66 -8v-122h145l-5 -58q-44 1 -140 1v-147z" />
    <glyph glyph-name="uni5014" unicode="&#x5014;" 
d="M245 589v-661h-62v592q-91 -143 -113 -176l-16 50l-13 14q127 195 264 434l58 -21q-110 -187 -138 -232q11 -1 20 0zM429 564l-48 -598h-35l-29 -26q36 437 67 854h473q13 -1 13 -15v-215h-441zM809 739q-202 2 -366 -1l-9 -117h375v118zM904 220v-228h-57v1h-377v182
q0 20 -6 34q46 -8 62 -5v-157h131v243h-174v155q0 18 -6 32q42 -8 61 -5v-128h119v137q0 34 -5 59q41 -11 63 -10v-186h113v113q0 18 -4 26q40 -6 59 -5v-188h-168v-243h132v150q0 20 -4 29q40 -7 61 -6z" />
    <glyph glyph-name="uni5018" unicode="&#x5018;" 
d="M871 549q15 0 15 -17v-623l-80 45l17 5v534q-228 2 -414 -1v-571h-60v569q0 49 -5 71q32 -11 47 -12h204v264q0 27 -4 40q42 -9 65 -7v-297h215zM244 586v-662h-62v596q-65 -104 -107 -169l-15 51l-14 14q123 193 257 433l59 -23q-80 -141 -140 -240q13 -1 22 0zM728 599
l-22 5q84 116 143 209l47 -38q-67 -105 -145 -206zM473 569l-140 205l57 27l140 -203zM738 381q-3 -99 -5 -270h-243l8 288q191 -1 225 -2q15 0 15 -16zM682 352h-139v-190h139v190z" />
    <glyph glyph-name="uni5019" unicode="&#x5019;" 
d="M30 422q127 180 278 424l59 -27q-65 -103 -151 -232l12 1v-662h-60v591q-53 -77 -114 -160l-11 51zM714 612q12 54 25 130q-91 1 -261 -1l5 40l-8 18h321q19 0 16 -20l-34 -167h163l-8 -58q-219 3 -533 -1l5 40l-8 19h317zM367 642v-565h-58v512q0 41 -6 63
q43 -13 64 -10zM957 -40l-24 -12l-14 -39l-282 268l14 15h-14q-57 -125 -124 -260l-40 5l-37 -16q74 146 132 270q-125 0 -184 -1l5 39l-9 20h215q32 69 64 143q-96 0 -141 -1q-37 -61 -68 -110l-25 28l-20 6q54 87 124 220l61 -13l-41 -75h371l-6 -56q-57 1 -184 1
q-22 -49 -66 -143h281l-9 -58l-227 1z" />
    <glyph glyph-name="uni501A" unicode="&#x501a;" 
d="M265 590v-664h-64v597q-70 -102 -138 -195l-14 48l-15 14q151 212 297 450l61 -23q-74 -117 -146 -227q10 -1 19 0zM553 726q39 67 63 113h70l-64 -113h280l-8 -57q-94 1 -304 1q-39 -68 -119 -194l-37 6l-36 -12q64 101 123 199q-112 0 -165 -1l5 39l-8 19h200zM651 664
l216 -154l-40 -44l-217 156zM938 398h-101v-482l-107 53l41 5v425q-167 0 -447 -2l5 38l-9 20h627zM644 308q-3 -91 -5 -254h-264l8 271q212 -1 247 -2q15 0 14 -15zM581 274h-146v-164h146v164z" />
    <glyph glyph-name="uni501C" unicode="&#x501c;" 
d="M251 576v-663h-61v604q-32 -48 -121 -175l-16 48l-15 13q130 184 278 427l61 -22q-83 -133 -148 -232q12 -1 22 0zM877 767q15 0 15 -17l-5 -843l-78 40l18 5l5 756q-225 2 -408 -1l-34 -773h-34l-28 -26q19 429 37 858h467v1h45zM661 438h146l-6 -55q-191 2 -344 -1
l5 39l-8 17h152v101q-91 0 -133 -1l5 37l-7 17h135v63q0 22 -4 31q31 -6 59 -6v-88h117l-4 -54q-35 1 -113 1v-101zM743 315q13 0 13 -14q-3 -86 -5 -239h-253l8 255zM697 265h-144v-147h144v147z" />
    <glyph glyph-name="uni501F" unicode="&#x501f;" 
d="M955 495l-10 -58q-264 3 -640 -1l5 39l-9 20h170v133l-135 -1l5 37l-8 19h138v98q0 25 -5 42q48 -10 68 -7v-133h176v112q0 29 -4 44q48 -11 69 -8v-148h131l-8 -55q-81 0 -123 1v-134h180zM254 591v-667h-62v601q-66 -93 -137 -186l-14 47l-14 13q143 191 299 432
l59 -23q-91 -136 -147 -217q9 -1 16 0zM710 495v134q-117 0 -176 -1v-133h176zM831 359q25 -1 25 -26q-3 -130 -7 -363h-466l10 391zM452 307v-110h331v110h-331zM783 27v121q-110 1 -331 -1v-120h331z" />
    <glyph glyph-name="uni5021" unicode="&#x5021;" 
d="M255 578v-672h-64v608q-88 -121 -133 -179l-14 49l-15 14q146 196 306 442l62 -24q-95 -144 -161 -238q10 -1 19 0zM836 410h-436l10 376l408 -2q25 -1 24 -26q-3 -125 -6 -348zM468 734v-106h302v106h-302zM770 465v114h-302v-114h302zM891 315q-3 -130 -7 -363h-528
l12 392q415 -2 497 -3q27 0 26 -26zM426 291v-109h391v109h-391zM817 9v122h-391v-122h391z" />
    <glyph glyph-name="uni5025" unicode="&#x5025;" 
d="M248 586v-669h-62v598q-34 -51 -121 -178l-13 52l-13 15q140 204 290 456l59 -26q-100 -162 -156 -248q9 -1 16 0zM602 693q-16 42 -56 143l61 18l65 -161h202v-1h2q15 0 15 -15v-157h-62v113q-202 3 -411 0v-117h-59v156q0 17 -4 25l30 -4h217zM325 381q137 114 238 208
l34 -48q-100 -94 -239 -204l-15 34zM711 577l178 -184l-42 -42l-179 186zM943 34l-9 -60q-264 3 -638 -1l5 40l-9 21h297v242l-122 -1q-79 0 -118 -1l5 40l-9 19h513l-8 -58l-195 1v-242h288z" />
    <glyph glyph-name="uni5026" unicode="&#x5026;" 
d="M240 582v-658h-61v579q-51 -84 -107 -174l-14 50l-13 13q122 198 258 453l58 -23q-82 -148 -136 -241q10 0 15 1zM957 236l-19 -15l-8 -39l-266 214l8 11q-55 2 -111 0q-56 -68 -86 -101q2 -1 5 -1h244q17 0 15 -15l-12 -202l-68 32l16 5q4 73 6 126q-87 2 -178 0v-249
h371q31 0 54 12l-15 -67h-411q-55 0 -55 54v272q-39 -44 -119 -130l-15 38l-17 9q88 96 187 217q-131 0 -193 -1l5 36l-8 19h299v102q-173 0 -253 -1l5 36l-8 18h256v170q0 28 -5 46q42 -10 68 -8v-208h73l-20 16l-23 2q84 107 130 174l51 -29q-59 -84 -126 -163h155l-8 -54
q-72 1 -232 1v-102h275l-8 -55q-56 1 -176 1zM481 627l-100 147l48 30l100 -146z" />
    <glyph glyph-name="uni5028" unicode="&#x5028;" 
d="M255 594v-673h-64v601q-71 -103 -127 -180l-16 50l-15 14q147 206 291 443l64 -23q-86 -137 -149 -233q11 0 16 1zM955 355l-230 1v-114q70 -1 157 -1q17 0 16 -17q-3 -90 -6 -249h-395l9 268q75 0 158 -1v114l-119 -1q-76 0 -114 -1l5 40l-6 14q-17 -241 -34 -460h-34
l-30 -25q30 401 61 861h474v-1h9q16 0 16 -15v-221h-452q-6 -92 -10 -134h234v82q0 26 -4 39q46 -10 65 -7v-114h237zM831 728q-209 2 -377 -1q-1 -20 -5 -61l-5 -62h387v124zM832 193h-273v-164h273v164z" />
    <glyph glyph-name="uni5029" unicode="&#x5029;" 
d="M253 605v-680h-63v604q-84 -125 -134 -195l-14 51l-14 15q142 204 291 447l59 -24q-83 -133 -139 -219q10 0 14 1zM948 507l-9 -52q-348 2 -629 -1l5 35l-8 18h279v76l-109 -1q-70 0 -105 -1l5 34l-8 17h217v76q-89 0 -243 -2l5 35l-8 17h246v45q0 29 -4 44q44 -10 70 -8
v-81h252l-7 -51q-76 1 -245 1v-76h215l-7 -50l-208 1v-76h296zM831 395q16 0 16 -17v-459l-79 36l14 9v120q-157 2 -321 0v-160h-65v425q0 33 -5 56q33 -9 52 -10h388zM782 344q-157 2 -321 0v-81h321v81zM782 130v85q-157 2 -321 0v-85h321z" />
    <glyph glyph-name="uni502A" unicode="&#x502a;" 
d="M251 605v-680h-62v606q-51 -77 -129 -186l-16 49l-15 14q126 178 279 429l62 -22q-108 -173 -133 -211q10 0 14 1zM920 14q29 0 47 13l-14 -74h-251q-59 0 -59 57v277h-76q-102 -182 -214 -352l-40 6l-36 -13q115 177 218 359l-140 -1v380q0 35 -5 51l20 -5l189 121
l47 -41l-189 -116v-116h173l-4 -56q-80 2 -169 0v-159h376v160q-94 2 -164 -1l5 40l-7 16h166v148q-102 2 -178 -1l5 41l-7 17h226q18 0 18 -19v-459h-148l-1 -273h212z" />
    <glyph glyph-name="uni502C" unicode="&#x502c;" 
d="M952 151l-9 -57q-90 1 -291 1v-180h-67v180q-107 0 -291 -2l5 39l-8 19h294v74q0 16 -1 22h-203l11 355q84 0 181 -1v210q0 22 -4 33q45 -7 69 -6v-98h283l-5 -54q-133 2 -278 0v-85q90 -1 209 -1q24 -1 24 -24q-3 -119 -7 -329h-212v-96h300zM266 578v-662h-64v608
q-53 -76 -128 -175l-13 50l-14 14q139 190 287 424l62 -26q-61 -94 -155 -232q10 -1 25 -1zM447 551v-90h354v90h-354zM447 302h354v108q-195 2 -354 -1v-107z" />
    <glyph glyph-name="uni502D" unicode="&#x502d;" 
d="M233 574v-664h-62v584q-36 -58 -115 -179l-15 46l-14 13q138 217 281 474l59 -21q-76 -136 -147 -253q7 -1 13 0zM264 364q125 95 245 195q-132 0 -193 -1l5 37l-9 19h267v111q-91 -13 -213 -25l-6 34l-15 19q246 28 488 71l15 -58q-100 -18 -206 -33v-119h273l-9 -56
q-62 1 -197 1l224 -177l-19 -14l-8 -40l-264 212v-182h-63v187q-117 -101 -275 -217l-19 26zM642 559v-7q5 10 4 7h-4zM936 242l-148 1q-112 -107 -173 -161l274 -133l-43 -52l-282 139l-143 -122l-37 13l-41 -1q94 81 161 140l-134 66q34 56 66 111l-160 -1l5 38l-8 19h197
l50 84l58 -23l-38 -61h405zM555 112q60 53 140 131q-95 2 -191 0q-42 -68 -51 -81z" />
    <glyph glyph-name="uni502E" unicode="&#x502e;" 
d="M249 598v-671h-61v597q-60 -87 -132 -184l-14 50l-14 14q138 193 299 448l62 -25q-104 -161 -150 -229h10zM951 16l-24 -11l-13 -38l-263 272v-323h-64v344h-13q5 -6 13 -14q-116 -143 -260 -294l-19 32l-22 8q126 137 233 268l-103 -1q-67 0 -100 -1l5 39l-9 19h275v60
q0 21 -1 29h-211l11 401q377 -2 452 -3q26 0 26 -26q-4 -133 -7 -372h-206v-89h281l-9 -57q-66 1 -212 1q53 -53 240 -244zM440 753v-122h148v122h-148zM794 753h-147v-122h147v122zM440 462h148v120q-100 0 -148 -1v-119zM794 462v119q-47 1 -147 1v-120h147z" />
    <glyph glyph-name="uni503A" unicode="&#x503a;" 
d="M246 573v-655h-61v596q-50 -83 -111 -179l-18 46l-16 11q114 182 261 454l62 -18q-82 -151 -143 -254q15 -3 26 -1zM950 509l-9 -52q-265 3 -642 -1l5 35l-8 18h290v80l-212 -1l5 34l-8 16h215v74l-246 -1l5 34l-8 17h249v39q0 30 -4 43q42 -10 67 -8v-74h246l-7 -51
q-74 1 -239 1v-74h219l-7 -50q-66 1 -212 1v-80h301zM773 117v219q-157 2 -321 0v-227h-59v250q0 23 -4 35q22 -5 34 -6h395q16 0 16 -16v-255h-61zM682 294q-116 -202 -227 -371l-38 6l-39 -11q127 190 231 376h73zM668 145l234 -190l-39 -49l-234 193z" />
    <glyph glyph-name="uni503C" unicode="&#x503c;" 
d="M233 605q8 -1 15 0v-681h-61v612q-58 -87 -128 -186l-15 46l-15 13q144 207 283 437l60 -22zM957 12l-10 -57q-272 3 -660 -1l5 39l-9 19h99v501q0 46 -5 66q34 -9 54 -11h134q2 15 9 94q-94 0 -256 -2l5 39l-8 19h264l11 127l67 -4l-14 -123h282l-8 -57q-87 1 -280 1
l-10 -94h205q18 0 18 -21v-535h107zM786 512q-146 3 -341 1v-81h341v80zM786 385q-167 2 -341 0v-89h341v89zM445 155h341v94q-167 2 -341 0v-94zM786 12v96q-168 2 -341 0v-96h341z" />
    <glyph glyph-name="uni503E" unicode="&#x503e;" 
d="M353 823q-98 -160 -138 -224l9 1v-674h-59v596q-40 -63 -101 -151l-14 50l-13 13q111 166 258 413zM795 508q-123 -309 -234 -574l-38 5l-33 -18q59 134 103 243h-52v394q0 34 -5 50q26 -7 30 -7h85l32 134q-133 0 -194 -1l5 39l-8 19h447l-8 -58q-55 1 -177 1l-37 -134
h164q12 -1 12 -18v-435h-59v399q-113 2 -230 0v-370q65 157 129 331h68zM528 211l-230 -166l-9 38l-18 19l56 38v602h62v-253h128l-4 -58q-37 1 -124 1v-249l112 76zM748 196l181 -222l-48 -40l-180 224z" />
    <glyph glyph-name="uni5043" unicode="&#x5043;" 
d="M231 572v-656h-60v593q-51 -79 -110 -168l-16 48l-14 12q121 184 264 428l59 -21q-57 -98 -143 -236q11 -2 20 0zM948 -7l-10 -55h-564v1h-24v752q0 64 -6 90q21 -9 31 -11h538l-8 -54q-271 2 -496 -1v-722h539zM929 264l-84 1q-57 -50 -132 -112l183 -88l-39 -42
l-191 93q-115 -88 -150 -114l-12 26l-17 10l131 102l-113 56q24 38 42 69l-102 -1l5 34l-8 16h135l47 76h-136l8 268q285 -1 335 -2q16 0 16 -16q-3 -92 -6 -250h-170l12 -5l-46 -71h298zM544 614v-66h243v66h-243zM544 437h243v71q-119 2 -243 0v-71zM664 177q49 39 104 88
q-80 2 -162 0l-30 -45z" />
    <glyph glyph-name="uni5047" unicode="&#x5047;" 
d="M231 601v-673h-59v587q-44 -76 -107 -181l-16 49l-14 13q116 193 248 451l59 -21q-52 -100 -121 -225h10zM578 137q-86 2 -180 0v-219h-59v794q0 66 -6 94q20 -9 33 -12h225q15 0 15 -15v-273h-208v-129h173l-3 -54q-81 2 -170 0v-133h184zM634 508l4 36l-4 17h198v178
q-111 2 -196 -1l5 38l-7 17h242q15 0 15 -16v-269h-257zM551 740q-74 2 -153 0v-178h153v178zM970 -44l-22 -9l-15 -36l-186 204q-64 -94 -141 -194l-23 23l-23 5q68 89 149 207q-59 66 -128 141l38 40l122 -133l101 151h-231l3 37l-3 18h300q13 0 18 -8q4 -9 -3 -20
q-116 -177 -146 -220z" />
    <glyph glyph-name="uni5048" unicode="&#x5048;" 
d="M252 593v-675h-63v594q-76 -120 -124 -192l-15 50l-14 14q134 204 281 461l58 -22q-64 -109 -137 -231q10 0 14 1zM894 397q17 0 15 -18q-7 -129 -28 -471l-81 39l19 6q18 303 24 388q-138 2 -214 1q10 -3 47 -19l-39 -56l141 -133l-35 -39l-137 129q-49 -67 -104 -135
l-13 37l-15 10q74 96 147 206q-127 0 -187 -1q-36 -49 -63 -83q37 -6 55 -3v-176h353v-53h-413v199q0 15 -2 23l-47 -57l-17 40l-17 11q83 103 164 222h-79l10 332q377 -1 447 -2q22 0 21 -22q-3 -111 -6 -308h-328l8 -3l-45 -64h419zM433 745v-86h344v86h-344zM433 519h344
v95q-169 2 -344 0v-95z" />
    <glyph glyph-name="uni504C" unicode="&#x504c;" 
d="M450 697q-7 66 -13 134l64 7l14 -141h209q6 72 13 145l64 -6l-16 -139h142l-9 -57l-139 1l-15 -127l-57 5l11 122h-197l11 -111l-66 -9l-11 120l-69 -1q-45 0 -67 -1l5 39l-8 19h134zM251 587v-671h-62v600q-57 -89 -124 -189l-14 51l-14 15q126 189 273 441l60 -23
q-48 -80 -136 -224q9 -2 17 0zM931 403q-250 2 -393 1q-50 -72 -87 -122l387 -2q21 0 21 -21q-3 -108 -6 -305h-419q9 298 10 317q-68 -92 -104 -139l-24 30l-24 2q87 119 168 240q-121 0 -179 -1l5 39l-9 20h222q36 53 81 125l72 -11l-75 -114h364zM502 15h285v211h-285
v-211z" />
    <glyph glyph-name="uni504E" unicode="&#x504e;" 
d="M247 585v-674h-65v599q-57 -89 -117 -178l-16 48l-15 13q125 188 277 449l61 -21q-99 -167 -143 -236h18zM367 426l10 359l452 -2q23 -1 23 -24q-4 -120 -7 -333h-478zM431 738v-102h149v102h-149zM783 738h-146v-102h146v102zM783 477v109q-46 1 -146 1v-110h146z
M431 477h149v110q-101 0 -149 -1v-109zM956 -46l-22 -12l-12 -41l-406 358q31 41 34 46q-32 -1 -96 -1v-281q74 38 151 76l13 -55l-266 -141l-2 39l-14 22l53 27v313l-89 -1l5 37l-8 18h630l-9 -54q-111 1 -363 1l145 -127q80 62 148 121l34 -49q-67 -59 -138 -111z" />
    <glyph glyph-name="uni504F" unicode="&#x504f;" 
d="M246 581v-663h-62v592q-51 -84 -107 -174l-19 46l-16 11q132 213 263 457l62 -19q-75 -137 -141 -250q11 -1 20 0zM415 525l-46 -584h-34l-29 -25q24 290 66 838h225l-25 88l65 8l28 -96h199q15 0 15 -15v-214h-464zM429 699l-9 -119h400v119h-391zM898 438q15 0 15 -16
v-495l-76 36l14 7v211h-84v-203h-47v203h-80v-195h-46v195h-81v-253h-51v464q0 37 -4 56q23 -7 36 -9h388v-1h16zM594 236v146h-81v-146h81zM720 236v146h-80v-146h80zM851 236v146h-84v-146h84z" />
    <glyph glyph-name="uni5055" unicode="&#x5055;" 
d="M250 598v-685h-65v611q-60 -88 -123 -178l-16 50l-15 13q140 201 280 433l63 -23q-79 -127 -141 -221q10 -1 17 0zM916 461q30 0 48 13l-15 -71h-244q-60 0 -60 57v375q31 -14 65 -11v-170q109 75 165 118l33 -51q-83 -63 -198 -135v-125h206zM603 490l-231 -122l-7 35
l-18 20l32 16v394h59v-146h171l-4 -58q-79 2 -167 0v-160q68 33 143 71zM848 302q-4 -129 -7 -360h-455l10 389q51 0 119 -1l34 114l68 -9q-22 -64 -35 -105l144 -1q77 0 97 -1q25 -1 25 -26zM454 280v-112h322v112h-322zM776 -4v119q-105 2 -322 0v-119h322z" />
    <glyph glyph-name="uni505A" unicode="&#x505a;" 
d="M782 262l191 -304l-25 -3l-24 -35q-86 137 -169 271l-96 -249l-37 4l-32 -18q92 231 127 324l-95 153l50 33l72 -115q52 139 98 270q-108 0 -159 -1q-43 -122 -88 -232l-27 36l-19 6q74 187 154 437l62 -9q-41 -123 -62 -182h257l-5 -56h-48zM535 396q18 0 18 -20
q-3 -119 -5 -330h-241l8 352q40 0 87 -1v179l-109 -1l5 39l-7 17h111v154q0 37 -5 53q40 -11 66 -9v-198h130l-5 -56l-125 1v-179zM238 591v-658h-59v597l-110 -173l-14 50l-13 13q116 183 245 414l58 -23q-67 -118 -129 -220q13 -1 22 0zM494 349h-132v-250h132v250z" />
    <glyph glyph-name="uni505C" unicode="&#x505c;" 
d="M932 721l-9 -55q-334 2 -603 -1l5 37l-5 12l-92 -141l11 1v-665h-64v587q-44 -65 -121 -171l-12 49l-13 13q137 195 296 452l58 -25l-59 -93h260q-10 34 -29 106l69 9q26 -89 33 -115h275zM802 608q13 0 13 -13q-3 -60 -6 -156h-406l8 170zM745 568h-276v-83h276v83z
M903 371q15 0 15 -14v-160h-62v122q-270 2 -489 -1v-107h-62v142q0 15 -4 23q17 -3 44 -5h558zM384 224h452l-7 -55l-168 1v-265l-103 51l35 6v208l-105 -1q-68 0 -101 -1l5 38z" />
    <glyph glyph-name="uni5065" unicode="&#x5065;" 
d="M219 601v-661h-57v596q-45 -80 -103 -176l-17 43l-14 12q112 192 243 447l57 -18q-82 -157 -129 -242q8 -1 20 -1zM935 -73l-545 206q-33 -90 -72 -186l-29 16h-23q38 96 72 189q-25 10 -100 38l23 49q73 -27 95 -36q47 134 73 205h-92l-1 -2h-57q53 104 133 274
q-88 0 -128 -1l5 38l-7 16h191q24 0 14 -24l-124 -248h122q23 0 14 -23l-90 -254l243 -91v97q-109 0 -160 -1l5 34l-7 16h162v82l-142 -1l5 32l-7 16h144v70h-129l3 34l-3 16h129v80q-114 0 -167 -1l5 33l-8 16h170v86l-68 -1q-44 0 -65 -1l5 34l-7 15h135v25q0 57 -5 82
q37 -15 58 -12v-95h139q14 0 14 -15v-118h83l-6 -48h-77v-130h-153v-70h168l-5 -48l-163 1v-82h190l-6 -50q-57 1 -184 1v-117q112 -41 245 -91l-16 -18zM705 616h100v85q-32 1 -100 1v-86zM705 488h100v81h-100v-81z" />
    <glyph glyph-name="uni506C" unicode="&#x506c;" 
d="M272 512q89 149 179 324l60 -8q-19 -37 -59 -109h422q17 0 15 -16q-5 -129 -19 -434l-77 37l18 6l16 352q-14 1 -43 1q-45 -83 -120 -206l107 -55l-30 -49l-107 56l-63 -100l-28 17l-22 -3l67 109q-30 15 -93 48q-65 -86 -106 -137l-24 22l-22 1q44 58 104 139l-46 24
l31 46l48 -24q68 95 79 112l-138 -1q-52 -92 -101 -170l-26 20zM232 593v-660h-59v595q-45 -79 -113 -185l-17 45l-15 12q122 197 250 434l59 -19q-74 -133 -126 -222q12 -1 21 0zM626 665q-31 -45 -97 -137q23 -13 88 -45q61 102 105 182h-96zM546 262l48 29l121 -165
l-49 -31zM764 20q39 0 61 11l-15 -65h-332q-47 0 -47 47v239q28 -12 61 -10v-222h272zM949 48l-52 -28l-112 205l51 26zM358 247l44 -22l-113 -231l-22 27l-22 4z" />
    <glyph glyph-name="uni5076" unicode="&#x5076;" 
d="M249 570v-658h-61v598q-67 -93 -126 -171l-12 49l-13 15q141 192 292 432l60 -25q-81 -127 -159 -240q10 -1 19 0zM875 339q15 0 15 -16q-1 -151 -4 -421l-71 35l14 6l3 339l-193 1v-139l84 15q-13 34 -29 73l42 13l77 -190l-42 -15l-28 70l-291 -53l2 32l-11 21l137 24
v149l-89 -1q-59 0 -87 -1v-369h-58v386q0 34 -5 49q28 -7 49 -9h190v94h-202l10 347q362 -2 431 -3q23 0 23 -22q-4 -117 -7 -322h-196v-94h193v1h43zM440 731v-99h140v55q0 33 -1 44h-139zM776 731h-137v-99h137v99zM580 482v101l-140 -1v-100h140zM776 482v100
q-43 1 -137 1v-101h137z" />
    <glyph glyph-name="uni5077" unicode="&#x5077;" 
d="M954 542l-18 -16l-7 -44l-355 264q-101 -119 -228 -249l15 -3h222q13 0 13 -15v-559l-68 35l13 6v183q-80 2 -161 0v-215h-53v513q0 26 -1 35l-32 -32l-10 40l-17 13q163 168 313 354l61 -27q-18 -22 -27 -32zM226 582v-653h-61v595q-59 -88 -103 -151l-14 48l-14 12
q119 178 258 415l60 -25q-91 -151 -149 -241q14 -2 23 0zM483 612h257l-4 -52q-122 2 -251 0l5 35zM807 502h56v-584l-87 48l31 6v530zM726 464v-381h-51v344q0 29 -4 44q34 -9 55 -7zM541 442q-80 2 -161 0v-103h161v103zM541 195v93q-80 2 -161 0v-93h161z" />
    <glyph glyph-name="uni507B" unicode="&#x507b;" 
d="M263 386q126 95 229 183q-123 0 -181 -1l5 36l-9 19h262v169q0 31 -5 53q40 -11 65 -9v-213h279l-8 -54l-195 1l226 -173l-21 -14l-9 -37l-271 210l9 14h-10v-196h-60v187q-127 -107 -266 -210l-20 25zM227 574v-649h-60v577q-38 -62 -105 -164l-15 47l-15 12
q118 184 262 441l59 -21q-72 -127 -142 -243h16zM698 654l-21 6q79 99 119 157l47 -36q-52 -73 -120 -154zM470 628l-100 150l53 28l100 -149zM930 253q-97 0 -148 1q-79 -76 -171 -160l261 -117l-45 -53q-137 62 -269 123q-86 -76 -132 -115l-38 11l-41 -2q83 72 151 133
l-150 68l64 111l-141 -1l5 37l-9 19h177l58 100l65 -15l-53 -85h425zM691 254q-141 0 -210 -1q-38 -59 -50 -79q25 -12 120 -53q86 79 140 133z" />
    <glyph glyph-name="uni507E" unicode="&#x507e;" 
d="M566 810q0 22 -4 34q42 -9 65 -7v-104h248l-7 -54q-75 1 -241 1v-113h-61v113l-233 -1l5 36l-8 18h236v77zM245 581v-676h-60v611q-41 -75 -110 -189l-18 45l-15 11q120 204 246 452l59 -18q-94 -178 -126 -236q14 -1 24 0zM939 531l-8 -55q-96 0 -146 1v-69h-59v69
q-172 0 -257 -1v-68h-58v68l-120 -1l5 37l-8 19h123v74q0 20 -4 29q41 -7 62 -6v-97h257v77q0 18 -4 29q41 -7 63 -6v-100h154zM778 90v224q-171 3 -348 0v-238h-58v260q0 24 -4 36q17 -4 43 -6h363v1h49q16 0 16 -16v-261h-61zM687 288q-120 -197 -245 -375l-37 7l-39 -10
q148 212 247 378h74zM668 131l238 -190l-38 -48l-237 192z" />
    <glyph glyph-name="uni507F" unicode="&#x507f;" 
d="M253 587v-673h-61v604q-60 -93 -124 -185l-14 47l-15 12q135 199 278 443l59 -22q-86 -142 -140 -226q10 -1 17 0zM363 578h231v216q0 22 -4 34q42 -9 64 -7v-243h252q14 0 14 -14v-172h-58v131h-479v-128h-58v163q0 17 -4 25q18 -3 42 -5zM719 615l-21 6q69 92 124 178
l47 -40q-54 -84 -126 -175zM469 588l-86 157l50 36l86 -156zM427 364v55h386l-12 -55h-374zM746 172l176 -225l-54 -35l-30 39h-459q-20 0 -26 12q-5 12 5 27q28 42 75 110q53 76 77 112h-199v59h614l-12 -59h-325q-66 -97 -142 -204h348l-101 131z" />
    <glyph glyph-name="uni5080" unicode="&#x5080;" 
d="M602 323q-127 -241 -222 -400l-37 6l-36 -13q135 229 225 407h-160l11 416q70 0 155 -1l41 117l64 -11l-41 -106l238 -2q28 0 28 -28q-4 -138 -7 -385h-259zM261 598v-678h-61v614q-42 -66 -133 -198l-15 48l-14 13q141 211 284 454l60 -22q-74 -124 -140 -230
q7 -1 19 -1zM440 684v-124h143v124h-143zM795 684h-153v-124h153v124zM795 381v126q-48 1 -153 1v-127h153zM440 381h143v127l-73 -1q-47 0 -70 -1v-125zM807 291q-29 -72 -59 -141h74q-14 35 -29 70l42 16l67 -156l-43 -17q-11 25 -17 41h-137q-26 0 -16 26q12 34 34 85
q26 61 35 84zM916 -4q29 0 48 12l-14 -65h-286q-55 0 -55 52v301q28 -13 59 -11v-289h248z" />
    <glyph glyph-name="uni5085" unicode="&#x5085;" 
d="M247 589v-672h-63v613q-51 -80 -125 -187l-16 50l-14 13q138 205 276 442l62 -23q-75 -126 -145 -236q15 -1 25 0zM600 778q0 46 -5 66q43 -14 66 -11v-109h156l-84 85l52 30l86 -87q-42 -25 -49 -28h121l-5 -49q-133 2 -277 0v-67h212q16 0 16 -17v-353h-59v77
q-53 1 -169 1v-60h-61v60q-115 0 -169 -1v-81h-59v336q0 29 -4 44q19 -5 29 -6h203v67q-156 2 -276 -1l5 37l-7 16h278v51zM830 556l-169 1v-72h169v71zM431 485h169v72l-86 -1q-56 0 -83 -1v-70zM600 364v75q-115 0 -169 -1v-74h169zM830 364v74l-169 1v-75h169zM959 137
q-62 1 -195 1v-230l-104 51l40 6v173q-161 0 -240 -1q12 -8 161 -118l-37 -44l-167 125q26 30 33 37l-152 -1l5 36l-8 19h405v65h64v-65h204z" />
    <glyph glyph-name="uni5088" unicode="&#x5088;" 
d="M960 6l-19 -17l-6 -44l-288 240v-269h-65v283q-123 -133 -276 -273l-23 28l-25 9q163 156 267 269l-114 -1q-74 0 -110 -1l5 39l-9 20h285v51q0 34 -4 50h-245l10 240q70 0 159 -1v100q-123 0 -181 -1l5 39q-53 -93 -113 -190q14 -3 27 -1v-659h-63v602
q-54 -87 -114 -175l-17 46l-16 13q115 174 265 442l63 -22l-21 -37h589l-8 -58q-59 1 -188 1v-101h144q19 0 18 -18q-3 -81 -6 -220h-292q35 -8 53 -5v-96h300l-9 -58q-79 1 -253 1zM560 629h110v100q-55 1 -110 0v-100zM398 443h109v138h-109v-138zM561 581v-138h107v138
h-107zM824 581h-101v-138h101v138z" />
    <glyph glyph-name="uni508D" unicode="&#x508d;" 
d="M586 731l-42 106l63 14l50 -120h231l-8 -56q-221 3 -537 -1l5 38l-9 19h247zM232 575v-649h-62v586q-57 -88 -116 -173l-14 52l-13 15q131 194 277 441l59 -24q-101 -166 -153 -248q13 -1 22 0zM829 385v97q-141 2 -433 0v-85h-61v121q0 14 -3 21q15 -3 26 -3h115
q-9 24 -42 103l61 14l50 -117h115q39 74 64 127l54 -20q-29 -62 -55 -107h154q15 0 15 -14v-137h-60zM924 300q-254 2 -400 1l-24 -86h248v1h48q18 0 16 -17l-15 -291l-80 35l17 7q8 144 11 212q-129 2 -260 0l-65 -229l-38 4l-33 -18q58 192 106 382l-151 -1l5 37l-9 19
h293l-38 100l66 13l44 -113h268z" />
    <glyph glyph-name="uni50A3" unicode="&#x50a3;" 
d="M947 254l-22 -12l-12 -36l-227 196l8 13q-144 0 -216 -1q-72 -129 -139 -240l-20 33l-20 4q72 126 114 203l-115 -1l5 36l-8 18h147q32 56 51 95l-126 -1l5 34l-8 17h156l48 91l-117 -1q-76 0 -113 -1l5 36l-8 17h260l54 105l63 -11l-25 -47q-16 -31 -25 -47h238l-7 -52
l-258 1l-48 -91h295l-7 -51q-96 1 -315 1q-8 -16 -26 -47l-26 -48h424l-8 -53q-109 0 -167 1zM247 574v-644h-58v583l-108 -165l-15 45l-15 12q120 187 270 449l59 -21q-98 -171 -153 -259q11 -1 20 0zM804 263q-36 -42 -104 -106q43 -29 186 -123l-28 -49l-215 143v-205
l-94 45l35 5v132l-260 -146l-7 35l-17 18l278 147q4 -7 6 -12v217h59v-233l28 45l26 -17l-17 26l-18 9q80 80 105 109zM578 178l-39 -38l-128 120l40 37z" />
    <glyph glyph-name="uni50A5" unicode="&#x50a5;" 
d="M238 595v-669h-62v590q-43 -72 -109 -174l-17 48l-15 13q115 180 260 444l61 -21q-68 -121 -133 -232q10 0 15 1zM315 596q0 16 -3 25q39 -7 66 -5v-1h209v198q0 22 -4 33q40 -8 68 -6v-225l241 1q16 0 16 -16v-163h-65v120q-229 3 -465 0v-114h-63v153zM714 658l-20 8
q76 93 122 158l43 -43q-55 -76 -124 -155zM466 629l-99 146l53 27l100 -145zM922 14q27 0 46 12l-14 -69h-253q-57 0 -57 55v216h-89q-106 -175 -188 -287l-36 6l-37 -10q95 133 191 291h-91l9 238l401 -2q16 0 16 -16q-3 -80 -6 -220h-106v-214h214zM459 281h292v137h-292
v-137z" />
    <glyph glyph-name="uni50A7" unicode="&#x50a7;" 
d="M580 748l-31 88l64 20l41 -108h228q16 0 16 -15v-170h-63v129h-431v-123h-65v159q0 16 -3 26q19 -4 47 -6h197zM229 601v-670h-62v591q-50 -75 -110 -162l-16 48l-16 13q126 183 272 425l61 -21q-107 -174 -140 -225zM937 225l-12 -59h-635v59h130v291q0 32 -5 44
q26 -6 47 -8l286 95l19 -53l-283 -88v-75h392l-12 -56h-134v-150h207zM484 225h183v150h-183v-150zM707 161l198 -193l-48 -42l-198 195zM296 -33q120 107 202 190l37 -47q-88 -91 -202 -187l-16 34z" />
    <glyph glyph-name="uni50A8" unicode="&#x50a8;" 
d="M952 464q-76 1 -247 1l-84 -91l228 -3q22 0 22 -24q-3 -133 -6 -372h-309l8 339q-90 -90 -116 -114l-16 32l-21 7q124 124 215 226q-119 0 -175 -1l5 38l-8 19h161v135l-123 -1l5 38l-7 17h125v94q0 28 -4 41q45 -10 64 -7v-128h142l-5 -54q59 71 100 125l44 -36
q-77 -102 -186 -224h196zM228 587v-663h-59v587q-38 -65 -109 -181l-16 46l-14 12q120 199 255 454l58 -20q-89 -165 -130 -235h15zM308 740l52 29l127 -177l-52 -31zM669 521h22q44 51 114 134l-136 1v-135zM492 166l23 -48l-200 -130l-7 36l-17 18l54 33v359q-57 0 -83 -1
l5 41l-7 17h126q16 0 16 -18v-363zM807 323h-191v-113h191v113zM807 28v128q-94 2 -191 0v-128h191z" />
    <glyph glyph-name="uni50A9" unicode="&#x50a9;" 
d="M214 579v-661h-59v583q-34 -71 -93 -185l-20 46l-15 11q115 225 221 469l59 -17q-69 -150 -114 -246q12 -1 21 0zM945 72l-5 -56q-152 2 -314 0v-97h-58v625q-19 -38 -69 -134l-19 39l-16 8q77 150 175 372l57 -14q-27 -59 -79 -169h311l-5 -55q-38 1 -123 1v-137h108
l-5 -55l-103 1v-126h115l-5 -55l-110 1v-149h145zM782 651l-79 145l55 19l80 -144zM406 335q59 -132 118 -267l-48 -27l-93 214q-39 -132 -82 -267l-29 14l-23 -1q45 137 100 331q-41 96 -86 198l47 24q37 -83 62 -141l64 227h-160l3 38l-3 17h210q21 0 15 -22
q-57 -209 -95 -338zM600 611zM744 455v98q0 29 -1 39q-79 0 -117 -1v-136h118zM626 275h118v126l-118 -1v-125zM626 72h118v149q-80 0 -118 -1v-148z" />
    <glyph glyph-name="uni50AC" unicode="&#x50ac;" 
d="M242 598v-681h-63v604q-50 -78 -118 -179l-16 48l-15 13q137 206 273 443l61 -21q-73 -123 -137 -227q8 -1 15 0zM380 765q0 18 -6 34q45 -8 66 -5v-133h167v157q0 19 -4 28q44 -6 65 -5v-180h157v119q0 18 -4 27q41 -8 64 -6v-192h-19v-1h-486v157zM956 37l-8 -58
q-158 2 -494 0v-60h-59v461q-32 -52 -88 -135l-18 41l-16 10q83 127 182 308l60 -20l-57 -100h207l-38 104l63 13l44 -117h184l-7 -53l-204 1v-100h204l-6 -50l-198 1v-93h197l-6 -50q-59 1 -191 1v-104h249zM646 432l-98 -1q-63 0 -94 -1v-98h192v100zM646 283l-97 -1
q-64 0 -95 -1v-91h192v93zM454 37h192v104q-131 0 -192 -1v-103z" />
    <glyph glyph-name="uni50B2" unicode="&#x50b2;" 
d="M968 -20l-24 -3l-23 -34q-74 122 -147 244l-86 -244l-35 4l-31 -19q47 128 115 321l-93 155l-6 -17l-27 34q-9 2 -14 4l-2 -22q-57 1 -185 1l-12 -88h180q15 0 15 -15l-13 -347l-71 43l16 3l10 264q-72 2 -144 0q-20 -136 -41 -294l-32 2l-28 -20q31 208 62 451
q-57 0 -84 -1l5 35l-7 16h168v90l-136 -1l5 33l-7 15h138v80l-146 -1l5 34l-7 16h148v89q0 34 -5 49q44 -11 63 -8v-130h139l-5 -50l-134 1v-80h110l-5 -48l-105 1v-90h108l-1 -9q64 188 128 414l60 -9q-37 -126 -60 -197h238l-5 -58l-46 1l-115 -336zM220 614v-677h-58v602
q-47 -79 -105 -170l-17 45l-15 12q113 178 241 412l58 -20q-41 -73 -117 -205q9 0 13 1zM761 321l91 274q-50 1 -143 -1l-51 -151l21 14z" />
    <glyph glyph-name="uni50BA" unicode="&#x50ba;" 
d="M281 304q57 74 109 148q-23 19 -68 54l31 39l66 -51l40 58l-72 56l29 38l71 -54l71 106h-147q-50 -92 -117 -200l-20 27l-18 5q78 130 168 313l57 -13l-43 -82h170l-27 44l46 27l43 -70l231 1q11 0 14 -7t-2 -15q-84 -116 -125 -169l147 -239l-22 -2l-22 -30l-261 424
q-184 -272 -311 -439l-18 25zM213 611q10 0 14 1v-682h-56v603q-32 -60 -106 -189l-16 46l-15 11q117 211 227 437l59 -19zM701 699l61 -99q32 42 71 99q-66 2 -132 0zM740 384q-126 2 -257 0l5 38l-8 16h265zM876 236q-77 1 -249 1v-320l-94 48l32 6v266l-222 -1l6 38
l-9 18h544zM459 201l37 -42l-175 -206l-15 39l-20 15zM742 189l175 -173l-43 -42l-176 175z" />
    <glyph glyph-name="uni50BB" unicode="&#x50bb;" 
d="M369 757q64 0 145 -1l44 98l58 -12q-26 -52 -42 -86l275 -1q23 -1 23 -23q-4 -112 -7 -310h-109q12 -9 199 -161l-36 -41l-206 168l32 34h-387zM253 584v-663h-59v606q-54 -85 -123 -188l-15 48l-13 13q128 192 272 440l57 -21q-85 -144 -142 -235q13 -1 23 0zM806 707
h-386v-232h386v232zM461 520q51 32 107 71l-92 61l30 37q54 -36 105 -69q56 37 121 84l27 -38l-106 -74l109 -72l-30 -38q-61 41 -123 81l-61 -39q-37 -24 -60 -38l-12 26zM491 373q-78 -59 -187 -126l-15 28l-18 9q135 90 189 131zM655 109q139 -67 296 -144l-17 -15
l-2 -37l-315 156q-114 -84 -218 -151l-10 31l-18 12q133 92 189 136l-107 53l25 46l127 -62q82 65 122 100h-222q-77 -85 -143 -154l-16 29l-21 5q138 152 240 279l63 -15q-38 -47 -80 -95h265q17 0 21 -13t-8 -23q-83 -70 -171 -138z" />
    <glyph glyph-name="uni50CF" unicode="&#x50cf;" 
d="M959 -25l-23 -6l-21 -34q-179 252 -202 283q-30 -20 -45 -29q4 -135 -37 -285q-41 26 -66 45q8 0 18 1q22 83 25 177q-156 -103 -291 -183l-13 25l-18 11q140 86 321 208q0 23 -1 35q-2 30 -5 43q-177 -108 -292 -168l-13 25l-17 12q151 83 311 182q-8 28 -23 62
q-153 -82 -268 -134l-10 27l-16 11q114 56 245 126h-157l7 160q-49 -53 -79 -84l-15 34l-19 9q138 148 260 304l60 -21l-52 -64h251q12 0 17 -8q4 -8 -2 -17q-43 -73 -71 -116l151 -1q16 0 15 -14q-3 -68 -6 -182h-264q41 -75 50 -159q102 67 194 135l30 -48
q-75 -55 -127 -88zM232 568v-655h-60v578q-58 -103 -112 -194l-17 50l-14 14q128 220 253 466l59 -21q-77 -147 -126 -238h17zM403 607q150 0 245 -1q27 42 52 90q-110 2 -219 0zM421 459h166v101h-166v-101zM820 560h-174v-101h174v101z" />
    <glyph glyph-name="uni50D6" unicode="&#x50d6;" 
d="M579 805q0 16 -4 32q40 -8 69 -6v-95h277l-8 -50l-269 1v-78h252l-7 -49q-177 2 -545 0l5 33l-8 16h238v78l-123 -1q-79 0 -118 -1l5 34l-8 17h244v69zM244 583v-663h-61v603q-43 -61 -128 -171l-12 50l-13 13q133 176 293 418l58 -25q-101 -149 -155 -225q11 -1 18 0z
M950 256l-9 -52q-318 3 -648 0l5 35l-8 17h201q-16 33 -37 73l54 16h-129l8 162l465 -1q15 0 14 -14q-3 -56 -6 -147h-101l24 -14q-17 -33 -44 -75h211zM444 392h353v72h-353v-72zM674 256q30 48 52 89h-214q0 -1 46 -89h116zM857 146q16 0 15 -15q-3 -66 -6 -174h-507
l9 190zM798 103h-368v-98h368v98z" />
    </font>
</defs>
</svg>
